<svg xmlns="http://www.w3.org/2000/svg" xmlns:xlink="http://www.w3.org/1999/xlink" viewBox="0 0 221 41" width="221px" height="41px"><path fill="#373736" d="M47.274 33.947h.595v6.248h-.595zM49.059 33.947h.551v2.512h.018c.052-.134.127-.258.223-.372.096-.114.209-.21.337-.289.128-.079.268-.14.42-.184.152-.044.306-.066.464-.066.315 0 .579.041.792.123.213.082.383.197.512.346.128.149.219.331.271.547.053.216.079.458.079.726v2.905h-.551v-2.818c0-.193-.018-.372-.052-.538-.035-.166-.096-.311-.184-.433-.088-.123-.206-.219-.355-.289-.148-.07-.334-.105-.556-.105-.222 0-.419.039-.591.118-.172.079-.319.187-.442.324-.122.137-.216.3-.28.49-.064.19-.099.395-.105.617v2.634h-.551v-6.248zM53.767 35.679h.508v1.059h.017c.14-.367.357-.65.652-.849.295-.198.646-.289 1.055-.271v.551c-.251-.012-.479.022-.683.101s-.381.191-.529.337c-.149.146-.264.321-.346.525-.082.204-.123.423-.123.656v2.406h-.551v-4.515zM59.061 33.947h3.964v.507h-3.369v2.258h2.993v.507h-2.993v2.975h-.595zM66.543 37.727h-.017c-.035.064-.102.111-.201.14-.099.029-.187.05-.263.061-.233.041-.474.077-.722.109s-.474.08-.678.144c-.204.064-.372.156-.503.276-.131.12-.197.29-.197.512 0 .14.028.264.083.372.055.108.13.201.223.28.093.079.201.139.324.179.122.041.248.061.376.061.21 0 .411-.032.604-.096.192-.064.36-.157.503-.28.143-.123.257-.271.341-.446.085-.175.127-.373.127-.595v-.717zm-2.94-.665c.029-.531.211-.916.547-1.155.336-.239.763-.359 1.282-.359.198 0 .396.019.595.057.198.038.376.109.534.214s.286.252.385.442c.099.19.149.436.149.739v2.398c0 .222.108.333.324.333.058 0 .117-.012.175-.035v.464c-.064.012-.121.02-.171.026-.05.006-.112.009-.188.009-.14 0-.252-.019-.337-.057-.085-.038-.15-.092-.197-.162-.047-.07-.077-.153-.092-.249s-.022-.203-.022-.319h-.018c-.099.146-.2.276-.302.389-.102.114-.216.21-.341.289-.126.079-.27.139-.433.18-.163.041-.353.061-.569.061-.21 0-.407-.026-.59-.079-.184-.053-.344-.133-.481-.241-.137-.108-.245-.245-.324-.411-.079-.166-.118-.363-.118-.59 0-.315.07-.562.21-.74.14-.178.325-.313.556-.407.231-.093.49-.159.779-.197.289-.038.582-.074.88-.109.111-.012.211-.027.302-.048.09-.02.165-.051.223-.092.058-.041.103-.099.136-.175.032-.076.048-.175.048-.298 0-.187-.031-.34-.092-.459-.061-.12-.146-.215-.254-.285-.108-.07-.233-.118-.376-.144-.143-.026-.296-.039-.459-.039-.344 0-.629.083-.853.25-.225.166-.343.433-.354.801h-.554zM71.382 37.097c-.076-.338-.217-.604-.424-.796-.207-.193-.492-.289-.853-.289-.262 0-.493.056-.691.166-.198.111-.363.257-.494.437-.131.181-.23.387-.298.617-.067.23-.101.465-.101.704 0 .239.034.474.101.704.067.23.166.436.298.617.131.181.296.326.494.437.198.111.429.166.691.166.169 0 .33-.032.481-.096.152-.064.286-.153.402-.267.117-.114.213-.249.289-.407.076-.157.123-.329.14-.516h.551c-.076.549-.279.977-.608 1.286-.33.309-.748.464-1.256.464-.344 0-.649-.064-.914-.193-.265-.128-.489-.3-.67-.516-.181-.216-.318-.468-.411-.757-.093-.289-.14-.596-.14-.923 0-.321.047-.627.14-.919.093-.292.23-.545.411-.761.181-.216.404-.388.67-.516.265-.128.57-.193.914-.193.484 0 .894.128 1.229.385.335.257.535.645.6 1.164h-.551zM72.73 33.947h.551v2.512h.018c.052-.134.127-.258.223-.372.096-.114.209-.21.337-.289.128-.079.268-.14.42-.184.152-.044.306-.066.464-.066.315 0 .579.041.792.123.213.082.384.197.512.346.128.149.219.331.271.547.053.216.079.458.079.726v2.905h-.551v-2.818c0-.193-.018-.372-.052-.538-.035-.166-.096-.311-.184-.433-.088-.123-.206-.219-.355-.289-.149-.07-.334-.105-.556-.105s-.419.039-.591.118c-.172.079-.319.187-.442.324-.122.137-.216.3-.28.49-.064.19-.099.395-.105.617v2.634h-.551v-6.248zM77.429 33.947h.551v2.512h.017c.053-.134.127-.258.223-.372.096-.114.209-.21.337-.289.128-.079.268-.14.42-.184.152-.044.306-.066.464-.066.315 0 .579.041.792.123.213.082.384.197.512.346.128.149.219.331.271.547.052.216.079.458.079.726v2.905h-.551v-2.818c0-.193-.018-.372-.052-.538-.035-.166-.096-.311-.184-.433-.088-.123-.206-.219-.355-.289-.149-.07-.334-.105-.556-.105-.222 0-.419.039-.591.118-.172.079-.319.187-.442.324-.122.137-.216.3-.28.49-.064.19-.099.395-.105.617v2.634h-.551v-6.248zM85.024 37.727h-.017c-.035.064-.102.111-.201.14-.099.029-.187.05-.263.061-.233.041-.474.077-.722.109s-.474.08-.678.144c-.204.064-.372.156-.503.276-.131.12-.197.29-.197.512 0 .14.027.264.083.372.055.108.13.201.223.28.093.079.201.139.324.179.122.041.248.061.376.061.21 0 .411-.032.604-.096.192-.064.36-.157.503-.28.143-.123.257-.271.341-.446.084-.175.127-.373.127-.595v-.717zm-2.94-.665c.029-.531.211-.916.547-1.155.336-.239.763-.359 1.282-.359.198 0 .396.019.595.057.198.038.376.109.534.214s.286.252.385.442c.099.19.149.436.149.739v2.398c0 .222.108.333.324.333.058 0 .117-.012.175-.035v.464c-.064.012-.121.02-.171.026-.05.006-.112.009-.188.009-.14 0-.252-.019-.337-.057-.085-.038-.15-.092-.197-.162-.047-.07-.077-.153-.092-.249s-.022-.203-.022-.319h-.018c-.099.146-.2.276-.302.389-.102.114-.216.21-.341.289-.126.079-.27.139-.433.18-.163.041-.353.061-.569.061-.21 0-.407-.026-.59-.079-.184-.053-.344-.133-.481-.241-.137-.108-.245-.245-.324-.411-.079-.166-.118-.363-.118-.59 0-.315.07-.562.21-.74.14-.178.325-.313.556-.407.231-.093.49-.159.779-.197.289-.038.582-.074.88-.109.111-.012.212-.027.302-.048.09-.02.165-.051.223-.092.058-.041.103-.099.136-.175.032-.076.048-.175.048-.298 0-.187-.031-.34-.092-.459-.061-.12-.146-.215-.254-.285-.108-.07-.233-.118-.376-.144-.143-.026-.296-.039-.459-.039-.344 0-.629.083-.853.25-.225.166-.343.433-.354.801h-.554zM86.669 35.679h.551v.779h.018c.052-.134.127-.258.223-.372.096-.114.209-.21.337-.289.128-.079.268-.14.42-.184.152-.044.306-.066.464-.066.315 0 .579.041.792.123.213.082.383.197.512.346.128.149.219.331.271.547.052.216.079.458.079.726v2.905h-.551v-2.818c0-.193-.018-.372-.052-.538-.035-.166-.096-.311-.184-.433-.088-.123-.206-.219-.355-.289-.148-.07-.334-.105-.556-.105-.222 0-.419.039-.591.118-.172.079-.319.187-.442.324-.122.137-.216.3-.28.49-.064.19-.099.395-.105.617v2.634h-.551v-4.515zM91.736 37.937c0 .233.028.465.083.696.056.23.143.436.262.617.12.181.273.328.46.442.187.114.411.171.674.171.292 0 .538-.057.739-.171.201-.114.365-.261.49-.442.126-.181.216-.386.271-.617.056-.23.083-.462.083-.696 0-.233-.027-.465-.083-.696-.055-.23-.146-.436-.271-.617-.125-.181-.289-.328-.49-.442-.201-.114-.448-.171-.739-.171-.262 0-.487.057-.674.171-.187.114-.34.261-.46.442s-.207.386-.262.617c-.055.231-.083.462-.083.696m3.614 2.257h-.507v-.857h-.018c-.058.146-.144.28-.258.403-.114.122-.243.227-.389.315-.146.088-.302.155-.468.201-.166.047-.331.07-.494.07-.344 0-.643-.064-.897-.193-.254-.128-.465-.302-.634-.521-.169-.219-.295-.472-.376-.761-.082-.289-.122-.594-.122-.914 0-.321.041-.626.122-.914.082-.289.207-.543.376-.761.169-.219.38-.392.634-.521.254-.128.553-.193.897-.193.169 0 .334.022.494.066.16.044.311.106.451.188s.264.184.372.306c.108.123.191.265.249.429h.017v-2.59h.551v6.247zM96.723 38.085c0 .204.029.411.088.621.058.21.146.4.263.569.117.169.27.309.459.42.19.111.416.166.678.166.403 0 .718-.107.945-.319.228-.213.385-.492.473-.836h.551c-.117.513-.331.912-.643 1.194-.312.283-.754.424-1.326.424-.362 0-.671-.064-.927-.193-.257-.128-.467-.302-.63-.521-.163-.219-.284-.472-.363-.761-.079-.289-.118-.594-.118-.914 0-.298.039-.589.118-.875.079-.286.2-.541.363-.766.163-.224.374-.405.63-.543.257-.137.566-.206.927-.206.362 0 .671.073.928.219.257.146.465.337.626.573.16.236.275.507.345.814.07.306.099.617.088.932h-3.475zm2.923-.463c-.006-.21-.042-.411-.109-.604-.067-.192-.162-.363-.284-.512-.123-.148-.271-.268-.447-.359-.175-.09-.373-.136-.595-.136-.227 0-.429.045-.604.136-.175.09-.324.21-.446.359-.123.149-.22.321-.293.517-.073.195-.121.395-.145.599h2.923zM100.95 33.947h.551v6.248h-.551zM104.993 35.679h.508v.761h.026c.146-.274.338-.492.578-.652.239-.16.539-.241.901-.241.298 0 .567.073.81.219.242.146.404.367.486.665.134-.298.333-.519.595-.665.263-.146.543-.219.84-.219.997 0 1.496.528 1.496 1.584v3.063h-.551v-3.036c0-.373-.079-.658-.236-.853-.157-.195-.435-.293-.831-.293-.239 0-.438.045-.595.136-.157.09-.283.211-.376.363-.093.152-.159.325-.197.521-.038.196-.057.398-.057.608v2.555h-.551v-3.063c0-.152-.016-.296-.048-.433s-.085-.257-.157-.359c-.073-.102-.171-.182-.293-.241-.122-.058-.271-.088-.446-.088-.239 0-.443.042-.612.127-.169.084-.308.201-.416.35-.108.149-.188.325-.241.529-.052.204-.079.423-.079.656v2.52h-.551v-4.514zM112.291 35.679h.551v4.515h-.551v-4.515zm0-1.732h.551v.884h-.551v-.884zM114.776 35.679h.919v.464h-.919v3.045c0 .181.025.322.075.424.05.102.174.159.372.171.157 0 .315-.009.472-.026v.472c-.082 0-.163.003-.245.009-.082.006-.163.009-.245.009-.368 0-.624-.073-.77-.219-.146-.146-.216-.411-.21-.796v-3.089h-.787v-.464h.787v-1.356h.551v1.356zM119.012 33.947h.875l2.161 5.477 2.153-5.477h.875v6.247h-.595v-5.399h-.018l-2.135 5.399h-.56l-2.144-5.399h-.017v5.399h-.595zM126.537 38.085c0 .204.029.411.088.621.058.21.146.4.262.569.117.169.27.309.46.42.19.111.416.166.678.166.403 0 .718-.107.945-.319.228-.213.385-.492.473-.836h.551c-.117.513-.331.912-.643 1.194-.312.283-.754.424-1.326.424-.362 0-.671-.064-.928-.193-.257-.128-.467-.302-.63-.521-.163-.219-.284-.472-.363-.761-.079-.289-.118-.594-.118-.914 0-.298.039-.589.118-.875.079-.286.2-.541.363-.766.164-.224.374-.405.63-.543.257-.137.566-.206.928-.206.362 0 .671.073.928.219.257.146.465.337.626.573.16.236.275.507.346.814.07.306.099.617.088.932h-3.476zm2.923-.463c-.006-.21-.042-.411-.109-.604-.067-.192-.162-.363-.284-.512-.122-.148-.271-.268-.446-.359-.175-.09-.373-.136-.595-.136-.227 0-.429.045-.604.136-.175.09-.324.21-.446.359s-.22.321-.293.517c-.073.195-.121.395-.145.599h2.922zM130.764 35.679h.551v4.515h-.551v-4.515zm0-1.732h.551v.884h-.551v-.884zM135.078 37c-.006-.169-.041-.316-.105-.442s-.15-.229-.258-.311c-.108-.082-.232-.142-.372-.18-.14-.038-.289-.057-.446-.057-.123 0-.247.013-.372.039-.126.026-.241.07-.346.131-.105.061-.19.141-.254.241-.064.099-.096.222-.096.368 0 .122.031.226.092.31.061.085.138.156.232.215.093.058.195.106.306.144.111.038.213.069.306.092l.735.166c.157.023.313.066.468.127.155.061.292.141.411.241.12.099.217.222.293.368.076.146.114.318.114.516 0 .245-.055.454-.166.626-.111.172-.252.312-.424.42-.172.108-.366.187-.582.236-.216.05-.429.074-.639.074-.531 0-.961-.127-1.291-.381-.33-.254-.518-.658-.564-1.212h.551c.023.373.159.655.407.844.248.19.556.284.923.284.128 0 .265-.015.411-.044.146-.029.28-.079.403-.149.122-.07.223-.159.302-.267.079-.108.118-.241.118-.398 0-.128-.028-.239-.083-.333-.055-.094-.13-.171-.223-.232-.093-.062-.2-.113-.319-.153-.119-.041-.24-.076-.363-.105l-.709-.158c-.181-.046-.347-.101-.499-.162-.152-.061-.284-.137-.398-.227-.114-.09-.203-.201-.267-.333-.064-.131-.096-.293-.096-.486 0-.227.051-.423.153-.586.102-.163.235-.295.398-.394.164-.099.346-.172.547-.219.201-.047.401-.07.599-.07.228 0 .439.029.634.088.196.058.368.149.516.271.149.122.267.274.354.455.088.181.137.394.149.639h-.55zM137.458 35.679h.919v.464h-.919v3.045c0 .181.025.322.075.424.05.102.173.159.372.171.157 0 .315-.009.473-.026v.472c-.082 0-.164.003-.245.009-.082.006-.163.009-.245.009-.368 0-.624-.073-.77-.219-.146-.146-.216-.411-.21-.796v-3.089h-.788v-.464h.788v-1.356h.551v1.356zM139.497 38.085c0 .204.029.411.088.621.058.21.146.4.262.569.117.169.27.309.46.42.19.111.415.166.678.166.402 0 .718-.107.945-.319.228-.213.385-.492.473-.836h.551c-.117.513-.331.912-.643 1.194-.312.283-.754.424-1.326.424-.362 0-.671-.064-.927-.193-.257-.128-.467-.302-.63-.521-.163-.219-.284-.472-.363-.761-.079-.289-.118-.594-.118-.914 0-.298.039-.589.118-.875.079-.286.2-.541.363-.766.163-.224.374-.405.63-.543.257-.137.566-.206.927-.206.362 0 .671.073.928.219.257.146.465.337.626.573.16.236.275.507.346.814.07.306.099.617.088.932h-3.476zm2.923-.463c-.006-.21-.042-.411-.109-.604-.067-.192-.162-.363-.284-.512-.122-.148-.271-.268-.447-.359-.175-.09-.373-.136-.595-.136-.227 0-.429.045-.604.136-.175.09-.324.21-.446.359s-.22.321-.293.517c-.073.195-.121.395-.145.599h2.923zM143.715 35.679h.508v1.059h.017c.14-.367.357-.65.652-.849.295-.198.646-.289 1.055-.271v.551c-.251-.012-.479.022-.683.101s-.381.191-.529.337c-.149.146-.264.321-.346.525-.082.204-.122.423-.122.656v2.406h-.551v-4.515zM146.016 35.679h.586l1.156 3.868h.017l1.103-3.868h.621l1.103 3.868h.017l1.155-3.868h.586l-1.452 4.515h-.604l-1.111-3.797h-.018l-1.103 3.797h-.603zM153.279 38.085c0 .204.029.411.088.621.058.21.146.4.262.569.117.169.27.309.46.42.19.111.415.166.678.166.403 0 .718-.107.945-.319.228-.213.385-.492.473-.836h.551c-.117.513-.331.912-.643 1.194-.312.283-.754.424-1.326.424-.362 0-.671-.064-.928-.193-.257-.128-.466-.302-.63-.521-.163-.219-.284-.472-.363-.761-.079-.289-.118-.594-.118-.914 0-.298.039-.589.118-.875.079-.286.2-.541.363-.766.164-.224.374-.405.63-.543.257-.137.566-.206.928-.206s.671.073.928.219c.257.146.465.337.626.573.16.236.275.507.346.814.07.306.099.617.088.932h-3.476zm2.923-.463c-.006-.21-.042-.411-.109-.604-.067-.192-.162-.363-.284-.512-.122-.148-.271-.268-.447-.359-.175-.09-.373-.136-.595-.136-.227 0-.429.045-.604.136-.175.09-.324.21-.446.359s-.22.321-.293.517c-.073.195-.121.395-.145.599h2.923zM157.497 35.679h.508v1.059h.017c.14-.367.357-.65.652-.849.295-.198.646-.289 1.055-.271v.551c-.251-.012-.479.022-.683.101s-.381.191-.529.337c-.149.146-.264.321-.346.525-.082.204-.123.423-.123.656v2.406h-.551v-4.515zM160.254 33.947h.551v3.92l2.503-2.188h.735l-1.925 1.671 2.056 2.844h-.692l-1.785-2.458-.892.743v1.715h-.551zM167.333 37c-.006-.169-.041-.316-.105-.442s-.15-.229-.258-.311c-.108-.082-.232-.142-.372-.18-.14-.038-.289-.057-.446-.057-.123 0-.247.013-.372.039-.126.026-.241.07-.346.131-.105.061-.19.141-.254.241-.064.099-.096.222-.096.368 0 .122.031.226.092.31.061.085.138.156.232.215.093.058.195.106.306.144.111.038.213.069.306.092l.735.166c.157.023.313.066.468.127.155.061.292.141.411.241s.217.222.293.368c.076.146.114.318.114.516 0 .245-.055.454-.166.626-.111.172-.252.312-.424.42-.172.108-.366.187-.582.236-.216.05-.429.074-.639.074-.531 0-.961-.127-1.291-.381-.33-.254-.518-.658-.564-1.212h.551c.023.373.159.655.407.844.248.19.556.284.923.284.128 0 .265-.015.411-.044.146-.029.28-.079.402-.149.122-.07.223-.159.302-.267.079-.108.118-.241.118-.398 0-.128-.028-.239-.083-.333-.055-.094-.13-.171-.223-.232-.093-.062-.2-.113-.32-.153-.119-.041-.24-.076-.363-.105l-.709-.158c-.181-.046-.347-.101-.499-.162-.152-.061-.284-.137-.398-.227-.114-.09-.203-.201-.267-.333-.064-.131-.096-.293-.096-.486 0-.227.051-.423.153-.586.102-.163.235-.295.398-.394.164-.099.346-.172.547-.219.201-.047.401-.07.599-.07.228 0 .439.029.634.088.196.058.368.149.516.271.149.122.267.274.354.455.088.181.137.394.149.639h-.548zM169.713 35.679h.919v.464h-.919v3.045c0 .181.025.322.074.424.05.102.174.159.372.171.157 0 .315-.009.473-.026v.472c-.082 0-.164.003-.245.009-.082.006-.163.009-.245.009-.368 0-.624-.073-.77-.219-.146-.146-.216-.411-.21-.796v-3.089h-.787v-.464h.787v-1.356h.551v1.356zM174.316 37.727h-.017c-.035.064-.102.111-.201.14-.099.029-.187.05-.263.061-.233.041-.474.077-.722.109s-.474.08-.678.144c-.204.064-.372.156-.503.276-.131.12-.197.29-.197.512 0 .14.027.264.083.372.055.108.13.201.223.28.093.079.201.139.324.179.122.041.248.061.376.061.21 0 .411-.032.604-.096s.36-.157.503-.28c.143-.123.257-.271.341-.446.084-.175.127-.373.127-.595v-.717zm-2.94-.665c.029-.531.212-.916.547-1.155.336-.239.763-.359 1.282-.359.198 0 .397.019.595.057.198.038.376.109.534.214.158.105.286.252.385.442.099.19.149.436.149.739v2.398c0 .222.108.333.324.333.058 0 .117-.012.175-.035v.464c-.064.012-.121.02-.171.026-.05.006-.112.009-.188.009-.14 0-.252-.019-.337-.057-.085-.038-.15-.092-.197-.162s-.077-.153-.092-.249-.022-.203-.022-.319h-.018c-.099.146-.2.276-.302.389-.102.114-.216.21-.341.289-.126.079-.27.139-.433.18-.163.041-.353.061-.569.061-.21 0-.407-.026-.59-.079-.184-.053-.344-.133-.481-.241-.137-.108-.245-.245-.324-.411-.079-.166-.118-.363-.118-.59 0-.315.07-.562.21-.74.14-.178.325-.313.556-.407.23-.093.49-.159.779-.197.289-.038.582-.074.88-.109.111-.012.212-.027.302-.048.09-.02.165-.051.223-.092.058-.041.104-.099.136-.175.032-.076.048-.175.048-.298 0-.187-.031-.34-.092-.459-.061-.12-.146-.215-.254-.285-.108-.07-.233-.118-.376-.144-.143-.026-.296-.039-.459-.039-.344 0-.629.083-.853.25-.225.166-.343.433-.354.801h-.554zM176.845 35.679h.919v.464h-.919v3.045c0 .181.025.322.074.424.05.102.174.159.372.171.157 0 .315-.009.473-.026v.472c-.082 0-.163.003-.245.009-.082.006-.163.009-.245.009-.368 0-.624-.073-.77-.219-.146-.146-.216-.411-.21-.796v-3.089h-.787v-.464h.787v-1.356h.551v1.356zM179.435 35.679h.919v.464h-.919v3.045c0 .181.025.322.074.424.05.102.174.159.372.171.157 0 .315-.009.473-.026v.472c-.082 0-.163.003-.245.009-.082.006-.163.009-.245.009-.368 0-.624-.073-.77-.219-.146-.146-.216-.411-.21-.796v-3.089h-.787v-.464h.787v-1.356h.551v1.356zM181.474 39.267h.735v.927h-.735z"/><path fill="#C92123" d="M186.401 38.138c-.006.321.044.589.149.805.105.216.25.388.433.516.184.128.401.22.652.276.251.056.519.083.805.083.163 0 .341-.023.534-.07.192-.047.372-.121.538-.223.166-.102.305-.233.415-.394.111-.16.166-.354.166-.582 0-.175-.039-.326-.118-.455-.079-.129-.181-.236-.306-.324-.125-.088-.264-.159-.416-.214-.152-.056-.301-.101-.446-.136l-1.392-.341c-.186-.047-.365-.105-.534-.175-.169-.07-.318-.163-.446-.28-.128-.117-.232-.26-.311-.429-.079-.169-.118-.376-.118-.621 0-.152.029-.33.088-.534.058-.204.168-.397.328-.578.161-.181.38-.334.661-.459.28-.125.639-.188 1.076-.188.309 0 .604.041.884.122.28.082.527.204.74.367.213.164.381.366.503.608s.184.524.184.844h-.595c-.012-.239-.064-.448-.158-.626-.093-.178-.219-.327-.376-.446-.158-.12-.337-.21-.538-.271-.201-.061-.413-.092-.634-.092-.204 0-.401.022-.591.066-.189.044-.356.114-.499.21-.143.096-.258.223-.346.38-.088.158-.132.353-.132.586 0 .146.025.273.075.381.05.108.118.198.206.271.087.073.188.134.302.184.114.05.235.089.363.118l1.523.376c.222.058.43.13.626.214.195.085.368.19.516.315.149.125.266.278.35.459.085.181.127.4.127.657 0 .07-.007.163-.022.28-.015.117-.05.241-.105.372-.055.131-.134.264-.236.398-.102.134-.242.257-.42.368-.178.111-.398.2-.661.267-.262.067-.577.101-.945.101-.367 0-.709-.042-1.024-.127-.315-.084-.583-.216-.805-.394-.222-.178-.392-.405-.512-.683-.12-.277-.171-.605-.153-.984h.595zM191.852 38.085c0 .204.029.411.088.621.058.21.146.4.262.569.117.169.27.309.46.42.19.111.416.166.678.166.403 0 .718-.107.945-.319.228-.213.385-.492.473-.836h.551c-.117.513-.331.912-.643 1.194-.312.283-.754.424-1.326.424-.362 0-.671-.064-.928-.193-.256-.128-.466-.302-.63-.521-.163-.219-.284-.472-.363-.761-.079-.289-.118-.594-.118-.914 0-.298.039-.589.118-.875.079-.286.2-.541.363-.766.164-.224.374-.405.63-.543.257-.137.566-.206.928-.206.362 0 .671.073.928.219.257.146.465.337.626.573.16.236.276.507.346.814.07.306.099.617.088.932h-3.476zm2.923-.463c-.006-.21-.042-.411-.109-.604-.067-.192-.162-.363-.284-.512-.122-.148-.271-.268-.447-.359-.175-.09-.373-.136-.595-.136-.227 0-.429.045-.604.136-.175.09-.324.21-.446.359s-.22.321-.293.517c-.073.195-.121.395-.145.599h2.923zM196.079 35.679h.551v4.515h-.551v-4.515zm0-1.732h.551v.884h-.551v-.884zM198.564 35.679h.919v.464h-.919v3.045c0 .181.025.322.074.424.05.102.174.159.372.171.157 0 .315-.009.472-.026v.472c-.082 0-.164.003-.245.009-.082.006-.163.009-.245.009-.368 0-.624-.073-.77-.219-.146-.146-.216-.411-.21-.796v-3.089h-.788v-.464h.788v-1.356h.551v1.356zM203.036 35.25c.239-.006.457-.019.652-.039.196-.02.365-.067.508-.14.143-.073.262-.188.359-.346.096-.157.165-.376.206-.656h.446v6.125h-.551v-4.55h-1.619v-.394zM209.38 37.674c.239 0 .454-.042.643-.127.19-.085.35-.2.481-.346.131-.146.23-.316.298-.512.067-.196.101-.407.101-.635 0-.216-.029-.42-.088-.612-.058-.193-.15-.36-.275-.503-.126-.143-.285-.255-.477-.337-.193-.082-.423-.122-.691-.122-.222 0-.422.042-.6.127-.178.084-.332.198-.464.341-.131.143-.232.311-.302.503-.07.193-.105.394-.105.604 0 .222.034.432.101.63.067.199.163.371.289.516.126.146.28.261.464.346.183.085.392.127.625.127m-1.33 1.05c.047.338.182.613.407.823.225.21.515.315.87.315.356 0 .645-.09.866-.271.222-.181.394-.409.516-.683.122-.274.204-.57.245-.888.041-.318.061-.617.061-.897h-.018c-.146.303-.366.548-.66.735-.295.187-.617.28-.967.28-.309 0-.588-.051-.836-.153-.248-.102-.459-.243-.634-.424s-.31-.397-.407-.647c-.096-.251-.144-.525-.144-.823 0-.298.051-.573.153-.827.102-.254.245-.473.429-.656.184-.184.403-.328.657-.434.254-.105.532-.157.836-.157.373 0 .694.057.962.171.268.114.49.3.665.56.175.26.305.597.389 1.011.085.414.127.919.127 1.514 0 .123-.007.283-.022.481s-.048.41-.101.634c-.052.225-.127.452-.223.683-.096.23-.225.439-.385.626-.161.187-.36.339-.599.455-.239.117-.525.175-.858.175-.543 0-.976-.133-1.299-.398-.324-.265-.518-.666-.582-1.203h.552zM214.35 39.862c.216 0 .418-.028.608-.083.19-.056.355-.14.494-.254.14-.114.251-.258.333-.433.082-.175.122-.379.122-.613 0-.222-.042-.416-.127-.582-.085-.166-.199-.306-.341-.42-.143-.114-.309-.198-.499-.254-.19-.056-.387-.08-.591-.074-.21-.006-.41.019-.599.074-.19.055-.354.138-.494.249-.14.111-.252.249-.337.416-.085.166-.127.363-.127.59 0 .228.041.429.122.604.082.175.193.319.333.433.14.114.305.2.494.258.191.06.393.089.609.089m1.855-4.314c0 .333-.087.617-.263.853-.175.236-.42.401-.735.494v.018c.397.082.704.26.923.534.219.274.328.618.328 1.032 0 .309-.056.579-.166.81-.111.23-.263.423-.455.577-.192.155-.417.27-.674.346-.257.076-.528.114-.814.114-.286 0-.557-.038-.814-.114-.257-.076-.481-.191-.674-.346-.193-.154-.344-.347-.455-.577-.111-.23-.166-.5-.166-.81.012-.403.127-.747.346-1.032.218-.286.518-.464.897-.534v-.018c-.321-.099-.568-.264-.74-.494-.172-.23-.258-.515-.258-.853 0-.262.054-.49.162-.683.108-.193.249-.352.424-.477s.373-.219.595-.28c.222-.061.446-.092.674-.092.228 0 .452.031.674.092.222.061.421.155.6.28.178.125.321.284.429.477s.162.42.162.683zm-1.855 1.137c.169.006.333-.013.49-.057.157-.044.296-.114.416-.21.12-.096.216-.216.289-.359.073-.143.109-.313.109-.512 0-.175-.034-.33-.101-.464s-.159-.245-.275-.333c-.117-.087-.255-.155-.415-.201-.161-.047-.331-.07-.512-.07-.169 0-.332.023-.49.07-.158.047-.297.114-.42.201-.122.088-.22.199-.293.333-.073.134-.109.289-.109.464 0 .204.038.379.114.525.076.146.175.266.297.359.122.093.262.16.42.201.157.042.317.059.48.053zM217.046 38.138l2.835-4.069h.499v4.139h.919v.464h-.919v1.522h-.508v-1.522h-2.826v-.534zm2.826.07v-3.334h-.018l-2.31 3.334h2.328z"/><path fill="#373736" d="M82.942 7.158h9.02l10.908 21.466h-9.565l-1.258-3.067h-9.524l-1.342 3.067H71.91L82.942 7.158zm7.258 13.8l-2.685-6.614h-.084l-2.895 6.614H90.2zM104.966 7.158h9.44l8.726 11.485h.083V7.158h8.727v21.466h-8.978l-9.187-11.725h-.084v11.725h-8.727zM144.107 21.409c0 .541.126 1.022.335 1.413.671 1.293 2.685 1.564 4.405 1.564 1.51 0 3.818-.361 3.818-1.955 0-1.112-1.301-1.413-6.461-2.465-4.741-.962-10.153-1.894-10.153-6.223 0-4.961 5.915-7.095 12.082-7.095 6.503 0 12.251 1.774 12.503 7.005h-8.726c.167-.811-.336-1.353-1.091-1.714-.756-.391-1.804-.541-2.727-.541-1.258 0-3.314.241-3.314 1.443.168 1.533 4.448 1.864 8.684 2.706 4.237.842 8.432 2.255 8.432 6.194 0 5.592-7.174 7.395-13.845 7.395-3.398 0-13.089-.871-13.173-7.726h9.231zM164.747 7.158h24.794v5.502h-15.564v2.676h14.138v5.111h-14.138v2.676h16.026v5.501h-25.256zM194.323 7.158h9.44l8.726 11.485h.084V7.158h8.726v21.466h-8.978l-9.188-11.725h-.083v11.725h-8.727z"/><defs><path id="a" d="M47.661 19.605v1.804c0 4.69 3.399 7.726 10.992 7.726 7.51 0 11.243-2.315 11.243-8.237V7.158h-9.23v13.83c0 .962.168 3.037-2.223 3.037-2.476 0-2.476-1.533-2.476-3.187v-1.233h-8.306z"/></defs><clipPath id="b"><use overflow="visible" xlink:href="#a"/></clipPath><linearGradient id="c" x1="54.221" x2="63.341" y1="6.494" y2="29.814" gradientUnits="userSpaceOnUse"><stop offset="0" stop-color="#f9c9b3"/><stop offset=".37" stop-color="#e31e24"/><stop offset="1" stop-color="#511f18"/></linearGradient><path fill="url(#c)" d="M47.661 7.158h22.235v21.977H47.661z" clip-path="url(#b)"/><defs><path id="d" d="M16.709.985L38.453 4.91c.652.12 1.478.198 1.775.459 1.763 1.449 1.771 8.884-4.728 15.77-1.157 1.233-2.396 2.255-2.466 2.319l-1.215 1.098-1.953 1.764c-.002.001 1.265-1.22 1.703-1.952 3.802-6.371-1.682-18.49-15.097-23.083C14.932.759 12.884.389 11.26 0l5.449.985z"/></defs><clipPath id="e"><use overflow="visible" xlink:href="#d"/></clipPath><linearGradient id="f" x1="22.6454" x2="30.5654" y1="-.8594" y2="27.0106" gradientUnits="userSpaceOnUse"><stop offset="0" stop-color="#f9c9b3"/><stop offset=".37" stop-color="#e31e24"/><stop offset="1" stop-color="#511f18"/></linearGradient><path fill="url(#f)" d="M11.26 0h30.739v26.322H11.26z" clip-path="url(#e)"/><path fill="#373736" d="M7.146 28.71C4.93 22.578 2.713 16.446.496 10.314c-.22-.617-.564-1.362-.484-1.747.39-2.232 6.908-5.955 16.198-3.843.933.21 1.82.475 2.435.672 1.683.539 3.379 1.041 5.071 1.554-1.964-.136-4.092-.588-5.972.155-5.928 2.347-11.082 10.95-9.762 21.758.267 2.186 1.224 4.995 1.799 7.143-.878-2.431-1.756-4.863-2.635-7.296"/><path fill="#373736" d="M37.49 24.168c-4.295 4.988-8.59 9.978-12.885 14.966-.431.498-.913 1.163-1.291 1.288-2.153.783-8.679-2.928-11.471-11.927-.503-1.605-.78-3.177-.801-3.267l-.297-1.323c-.21-.939-.421-1.879-.631-2.817.268.759.627 2.072 1.03 2.712 3.701 5.861 15.667 7.248 25.907-.28 1.761-1.295 3.781-3.522 5.399-5.089-1.652 1.912-3.31 3.821-4.96 5.737"/><path fill="#373736" d="M30.028 17.836c-.005-.249-.017-.495-.041-.735l-1.093-.086 1.026-.386c-.039-.243-.089-.482-.149-.717l-1.106.074.977-.539c-.073-.233-.154-.46-.249-.685l-1.106.236.895-.679c-.108-.216-.227-.427-.356-.634l-1.056.391v-.001l.788-.804c-.138-.196-.282-.39-.439-.578l-.998.545c-.001 0-.001 0-.001-.001l.664-.912c-.074-.079-.14-.16-.217-.238-.095-.098-.197-.183-.294-.275l-.896.675-.009-.009.528-1.01c-.184-.155-.372-.299-.565-.434l-.797.805c-.009-.005-.017-.01-.025-.016l.373-1.073c-.202-.123-.407-.234-.618-.336l-.668.911c-.013-.005-.025-.013-.039-.018l.211-1.118c-.215-.086-.432-.167-.656-.234l-.535 1.012c-.014-.004-.03-.007-.044-.011l.044-1.131c-.225-.051-.455-.091-.689-.124l-.375 1.067c-.016-.001-.03-.005-.044-.006l-.124-1.122c-.23-.017-.462-.031-.699-.031l-.216 1.117c-.014 0-.028.002-.042.002L21.1 9.632c-.236.014-.468.038-.697.069l-.049 1.127c-.015.002-.03.003-.046.006l-.448-1.045c-.228.048-.454.101-.676.166l.12 1.136c-.014.005-.028.01-.043.016l-.595-.965c-.218.083-.432.176-.643.279l.283 1.094c-.012.007-.025.011-.036.018l-.724-.863c-.202.117-.403.239-.597.375l.445 1.05c-.007.005-.013.01-.02.015l-.843-.748c-.185.146-.365.303-.542.468l.585.961c-.003.004-.007.007-.01.01l-.943-.618c-.168.174-.333.35-.484.531l.725.872-.005.008-1.024-.476c-.144.196-.279.393-.403.597l.838.75c-.001.003-.003.005-.005.008l-1.089-.325c-.113.213-.217.428-.31.649l.949.628-.002.006-1.116-.163c-.079.227-.145.458-.204.693l1.021.479v.002l-1.13-.002c-.042.236-.077.474-.101.719l1.074.326-1.1.157c-.005.134-.018.265-.018.4 0 .112.011.221.015.332l1.099.166-1.078.319c.021.245.056.483.096.719l1.124.007v.004l-1.024.472c.055.235.118.467.192.694l1.12-.156c.001.004.002.007.003.01l-.955.621c.088.221.19.437.3.649l1.085-.315c.002.004.006.01.009.015l-.844.745c.121.203.251.403.392.597l1.033-.47c.004.005.007.01.011.015l-.733.865c.149.182.311.358.477.531l.946-.608c.006.005.012.009.018.016l-.593.955c.175.164.353.321.534.466l.852-.745c.009.006.016.012.025.018l-.452 1.045c.193.137.392.26.592.377l.73-.855c.014.008.028.014.041.021l-.291 1.091c.209.103.421.197.637.282l.605-.965c.015.005.03.01.044.016l-.127 1.133c.22.068.446.121.674.171l.454-1.039c.016.004.033.005.048.007l.04 1.126c.229.033.46.059.696.074l.297-1.097c.014.001.028.002.043.002l.208 1.119c.02 0 .038.003.058.003.218 0 .429-.014.642-.028l.131-1.118c.015-.001.031-.005.046-.006l.367 1.07c.233-.031.463-.067.688-.115l-.035-1.135c.016-.002.031-.008.046-.01l.527 1.015c.224-.065.443-.142.658-.224l-.201-1.115c.015-.006.029-.015.044-.021l.662.918c.21-.099.416-.205.619-.323l-.365-1.078c.011-.007.022-.013.033-.02l.796.818c.192-.131.378-.275.562-.423l-.519-1.012c.007-.006.014-.013.02-.019l.895.685c.113-.104.23-.202.34-.312.06-.061.111-.125.169-.187l-.66-.923c.004-.003.008-.008.012-.012l.995.554c.155-.185.297-.375.434-.568l-.783-.812c.003-.004.005-.008.008-.012l1.054.4c.127-.204.245-.414.352-.627l-.899-.694.003-.006 1.11.246c.093-.221.174-.448.247-.677l-.986-.555 1.117.083c.059-.235.109-.471.149-.715l-1.03-.396 1.095-.077c.025-.24.039-.486.045-.735l-1.058-.24 1.06-.233zm-4.765 3.842c-.992.994-2.199 1.492-3.623 1.492-1.402 0-2.605-.498-3.607-1.492-1.001-.994-1.503-2.206-1.503-3.637 0-1.406.501-2.615 1.503-3.621 1.002-1.005 2.205-1.509 3.607-1.509 1.424 0 2.626.504 3.606 1.509 1.001 1.006 1.502 2.215 1.502 3.621.001 1.43-.494 2.642-1.485 3.637z"/></svg>