<svg xmlns="http://www.w3.org/2000/svg" xmlns:xlink="http://www.w3.org/1999/xlink" viewBox="0 0 175 2485" width="175" height="2485"><style>.st0{fill:#fd0}.st2{fill:#fff}.st3{fill:#231f20}.st6{fill:#d41216}.st7{fill:#00933a}.st10{fill:#020203}.st27{fill:#44413d}.st28{fill:#26285b}.st30{fill:#263c7f}.st31{fill:#179bd7}.st36{fill:#303d45}.st37{fill:#f7a521}.st38{fill:#a41e0c}.st40{fill:#d2123a}.st42{fill:#3c4548}.st63,.st64{fill-rule:evenodd;clip-rule:evenodd;fill:#a41e0c}.st64{fill:#fff}.st66{fill:#010202}</style><path d="M11.6 1737.3c-.6 0-1.1.2-1.3.5-.4.5-.2 1.2-.2 1.2.3.9 4.3 7.6 5.5 9.7l1 1.8c.4-8.3 6.5-13.2 6.5-13.2H11.6z" class="st0"/><path d="M25.2 1736.6H11.7s-1.5-.1-2.1 1c0 0-.7 1.1.2 2.5l7.4 13c0-.1-1.1-10.2 8-16.5zm-9.1 11.6l-5.2-9.2s-.2-.3 0-.7c0 0 .1-.3.7-.3h9.8c-.1 0-4.2 4-5.3 10.2z"/><path d="M20.7 1752c0 8.5 6.9 15.4 15.4 15.4 7.2 0 13.8-3.5 21.4-11.4 3.4-3.5 12.6-14.1 14.4-16.2.8-.9.7-1.6.6-1.8-.1-.3-.5-.6-1-.6H55.3l-.7.9c-2.7 3.7-9.7 13.6-10.4 14.5l-.7 1c-1.8 2.5-3.6 5.1-7.4 5.1-3.8 0-6.9-3.1-7-6.9-.1-1.8.7-3.7 2-5 1.3-1.4 3.2-2.1 5-2.1 1.3 0 3.8.4 5.6 2.8l.5.7 4.9-7.2-.4-.3c-2.6-2.1-6.7-4.3-10.6-4.3-8.5 0-15.4 6.9-15.4 15.4z" class="st0"/><path d="M54.9 1736.6c-.1.1-10.5 14.7-11.3 15.8l-.8 1c-1.7 2.4-3.4 4.7-6.7 4.7-3.3 0-6.1-2.7-6.1-6.1 0-1.6.6-3.2 1.8-4.4 1.2-1.2 2.8-1.9 4.3-1.8 1.4 0 4.1.5 5.6 3.6v.1l.2.5 6.3-8.8c-2.8-2.6-7.8-5.5-12.2-5.5-9 0-16.2 7.3-16.2 16.3s7.3 16.3 16.2 16.3c9.6 0 17.2-6.7 22-11.7 3.8-3.9 14.6-16.3 14.7-16.4.9-1.2.7-2.1.5-2.5-.3-.7-.9-1.1-1.7-1.1H54.9zm16.6 2.8c-1.4 1.7-10.9 12.5-14.4 16.2-7.5 7.8-14 11.2-21 11.2-8.2 0-14.8-6.6-14.8-14.8 0-8.2 6.6-14.8 14.8-14.8 3.6 0 7.6 2.1 10.3 4.2l-4.3 5.9c-2-2.5-4.5-2.9-6-3-2 0-3.9.8-5.4 2.3-1.5 1.5-2.3 3.5-2.2 5.5.1 4.1 3.5 7.5 7.6 7.5s6.1-2.8 7.9-5.3l.7-1c.8-1 8.9-12.5 10.9-15.3h15.9c.2 0 .4.1.4.4.1.2.1.4-.4 1zM104.1 1745.4c-1.2-2.6-4.1-3.2-6.7-3.4H82.8v22h7.4v-8h7.1c2.2-.1 4.2-.7 5.7-2.4 1.9-2.1 2-5.6 1.1-8.2zm-7.5 5.1c-1 .8-2.4.7-3.7.7h-2.8v-4.6h4.8c.8.1 1.8.5 2 1.4.4.8.3 1.9-.3 2.5zM127.3 1753.5c-1.1-3.3-4.6-4.7-7.7-5.1-4.1-.4-8.4-.3-11.6 2.1-2.6 2-3 5.5-2.2 8.5 1.4 4.1 5.7 5.1 9.5 5.3 3.9.1 7.7-.2 10.5-2.8 2-2 2.4-5.3 1.5-8zm-7.4 5.5c-.8 1.5-2.4 2.1-4 1.9-1.3-.1-2.6-1.1-2.9-2.4-.6-1.9-.5-4.4.9-5.9 1-1 2.7-1.1 4-.8.7.2 1.4.7 1.8 1.4 1 1.6 1.1 4.1.2 5.8zM131.8 1750c-1 .7-1.5 1.8-1.5 3.1 0 .3 0 .7.1 1 .5 2.3 3 2.8 4.9 3.3l.3.1 1.8.3c1.2.2 2.4.4 3.6.8.3.2.6.5.6.9v.1c0 .5-.4.9-.8 1.1-1.1.4-2.7.5-4-.2-.7-.4-.8-1.2-.8-1.8h-6v.3c0 1.8.9 3.3 2.4 4.1 2.6 1.3 5.7 1.3 9.3 1.1 2.1-.3 4.8-.7 6.3-2.9.7-1.2.7-3 0-4-1.3-1.6-3.2-2-5-2.4l-1.2-.3-3.1-.7-.2-.1c-.4-.1-.8-.3-1.2-.6-.1-.1-.2-.3-.2-.5s.1-.5.2-.7c.1-.2.3-.3.5-.4.1 0 .2-.1.4-.1.6-.1 1.2-.2 1.8-.1.3.1.7.1.9.3.6.3.7 1 .7 1.4h6.3c-.1-1.3-.4-2.2-1.1-2.9-1.5-1.5-3.5-1.7-5.5-1.9-3.3-.1-6.8-.2-9.5 1.7zM161.3 1748.2h4v3.7h-4v6.4c0 .6.4 1.2 1 1.4 1 .4 2.4.3 3.4.2v3.7c-2.9.6-6.7 1.1-9.4-.2-1.6-.8-2-2.5-2-4.2v-7.3h-4v-3.7l4-.1v-2.8l6.9-2.2.1 5.1z"/><path id="path7121" fill="#fdd205" d="M8.6 1668h157.8v-56.5H8.6v56.5z"/><path id="path7125" d="M128 1655l2-9.3H17.2l-2 9.3H128z" class="st2"/><path id="path7129" d="M46 1629.4h-4.2l-4.2 19.4h4.2l4.2-19.4z" class="st3"/><path id="path7133" d="M60.7 1629.4H48.9l-4.1 19.4h11.9l.8-3.5h-7.7l1-4.8h6.6l.8-3.5h-6.6l.9-4H60l.7-3.6z" class="st3"/><path d="M33.1 1639.5c-.5 2.3-1.9 5.1-4.9 5.7-.6.1-1.2.1-1.7.1h-2l2.6-12.2h1.8c.4 0 1 0 1.5.1 2.8.4 3.4 3.2 2.7 6.3m-1.6-9.9c-.8-.1-1.9-.1-2.5-.1h-5.3l-4.1 19.4h7c.6 0 1.4 0 2-.1 5.5-.7 8.1-4.6 8.9-8.7 1-5.7-1-9.8-6-10.5" class="st3"/><path id="path7149" d="M130.4 1629.4h-14.7l-.8 3.6h5.3l-3.4 15.8h4.2l3.4-15.8h5.2l.8-3.6z" class="st3"/><path d="M95 1639.2c-.7 3.1-2 6.4-5.5 6.4-3.4 0-3.9-3.2-3.2-6.4.7-3.1 2-6.4 5.5-6.4s3.9 3.2 3.2 6.4m-2.8-10c-6.7 0-9.3 4.6-10.3 9.9-1.1 5.3 1.2 9.9 7.3 9.9 6.7 0 9.3-4.6 10.3-9.9 1-5.3-1.2-9.9-7.3-9.9" class="st3"/><path id="path7157" d="M101.6 1635.2c0 2.3 1.4 3.4 2.7 4.4l2.2 1.6c.4.3.9.6 1.2 1 .3.3.5.6.5 1.1 0 .7-.3 1.1-.8 1.5-.9.6-2.3.6-3.1.6-1.3 0-3.4-.4-4.2-.7l-1.3 3.5c1.5.5 3.9.8 5.7.8 2.1 0 3.6-.3 4.9-.8 2.3-1 3.4-2.8 3.4-4.9 0-1.3-.4-2.1-1-2.8-.5-.6-1.2-1.3-2.1-1.9l-2-1.5c-1-.8-1.8-1.3-1.8-2.2 0-.8.6-1.6 1.6-1.7.7-.1 1.3-.1 2.2-.1h3.2l.8-3.6h-3.5c-1 0-2.3 0-3.5.1-2.6.3-5.1 2.2-5.1 5.6" class="st3"/><path d="M76.7 1636.3c-.3 1.6-1.4 2.6-2.8 2.9-.3.1-1 .1-1.3.1h-1.7l1.4-6.3h1.8c.5 0 .9.1 1.2.2 1 .3 1.7 1.3 1.4 3.1m-.7-6.7c-.5-.1-1.2-.1-1.9-.1h-5.3l-4.2 19.4h4.2l1.3-5.9h2.4c1.3 0 2.1-.1 2.9-.4 3-.9 4.9-3.4 5.4-6.1.7-3.6-1.1-6.3-4.8-6.9" class="st3"/><path id="path7165" fill="#e52629" d="M150 1629.4l2.5-11.7h-15.8l-3.3 15.3h3.9l2.5-11.7h8l-2.5 11.7h11.8l-1.6 7.3h-11.8l-2.3 11h-8.9s-.8 3.6-.8 3.7h12.8l2.4-11h11.7l3.1-14.6H150z"/><path fill="#ffcc03" d="M6 1847.9h163v36H6z"/><g id="DHL_1_"><path d="M6 1872.8h22l-1.2 1.6H6v-1.6zM6 1869.8h24.3l-1.2 1.6H6v-1.6zM6 1875.8h19.8l-1.2 1.7H6v-1.7z" class="st6"/><g><path d="M169 1874.4h-22l1.2-1.6H169v1.6zM169 1877.5h-24.2l1.2-1.7h23v1.7zM150.5 1869.8H169v1.6h-19.7l1.2-1.6z" class="st6"/></g><g><path d="M27.3 1877.5l10.5-14.2h13c1.4 0 1.4.5.7 1.5s-1.9 2.6-2.6 3.6c-.4.5-1 1.4 1.2 1.4h17.4c-1.4 2-6.1 7.7-14.6 7.7H27.3zM87.3 1869.8l-5.7 7.7h-15l5.7-7.7h15zM108.9 1869.8l-5.7 7.7h-15l5.7-7.7h15zM113.8 1869.8s-1.1 1.5-1.6 2.2c-1.9 2.5-.2 5.5 5.9 5.5h24l5.7-7.7h-34z" class="st6"/></g><g><path d="M34.7 1854.4l-5.2 7.1h28.4c1.4 0 1.4.5.7 1.5s-1.9 2.6-2.6 3.6c-.4.5-1 1.4 1.2 1.4h11.6s1.9-2.5 3.4-4.7c2.1-2.9.2-8.9-7.4-8.9H34.7zM110.2 1868H73.6l10-13.6h14.9l-5.7 7.8h6.7l5.7-7.8h15l-10 13.6zM140.9 1854.4l-10 13.6H115l10-13.6h15.9z" class="st6"/></g></g><path d="M42.1 1326c-1-3 .7-6.2 3.7-7.2s6.2.7 7.2 3.7-.7 6.2-3.7 7.2-6.2-.7-7.2-3.7zM29.8 1326.3c-.7-2.2.5-4.5 2.7-5.2 2.2-.7 4.5.5 5.2 2.7.7 2.2-.5 4.5-2.7 5.2-2.2.7-4.5-.5-5.2-2.7zM20.4 1321.3c-.6-1.7.4-3.6 2.1-4.1 1.7-.6 3.6.4 4.1 2.1.6 1.7-.4 3.6-2.1 4.1-1.7.6-3.6-.4-4.1-2.1z" class="st7"/><path fill="#004d86" d="M103.7 1280.9v4.1h-5.4v-4.1h5.4zm-12.8-2.9v10.1c-1-1-1.9-1.7-2.8-2.1-1.2-.5-2.4-.7-3.6-.7-2.5 0-4.7.9-6.6 2.7-2.1 1.9-3.1 4.6-3.1 7.9 0 2.9.8 5.3 2.4 7.2 1.8 2.1 4.2 3.1 7.3 3.1 1.6 0 3-.3 4.2-1 .8-.4 1.6-1.2 2.3-2.2v2.6h5.4V1278h-5.5zm-1.3 21.9c-1 1.3-2.3 2-4 2-1.4 0-2.7-.5-3.7-1.6-1.1-1.1-1.6-2.5-1.6-4.3 0-1.4.4-2.7 1.1-3.8 1-1.6 2.4-2.4 4.3-2.4 1.5 0 2.7.6 3.7 1.7s1.5 2.6 1.5 4.4c0 1.5-.4 2.8-1.3 4zm14.1-13.9v19.5h-5.4V1286h5.4zm54.7 4.4v9.4c0 .5.1.8.4 1 .3.2.7.3 1.2.3h3.6v4.5h-7c-1.2 0-2.2-.3-2.8-.9-.5-.5-.8-1.5-.8-2.8v-22.8h5.4v6.9h5.1v4.5h-5.1zm-5.9-4.4h-6.2l-5.5 7.5V1279h-5.4v13.4c-.4-1.3-1-2.4-1.8-3.4-2-2.4-4.8-3.7-8.2-3.7-2 0-3.9.5-5.4 1.4-.8.4-1.4.9-2 1.5v-2.3h-6.1c-1.1.1-2.2.4-3.1.9-.8.4-1.5 1-2.1 1.7-.7.8-1 1.8-1 3.1v13.9h5.4v-13.2c.1-.3.3-.6.5-.8.2-.2.5-.4.9-.6.4-.2.8-.3 1.4-.3h2.4c-.8 1.6-1.2 3.3-1.2 5.1 0 2.9.9 5.3 2.6 7.2 2.1 2.2 4.8 3.3 8 3.3 2.4 0 4.6-.7 6.5-2.3 1.2-.9 2.2-2.2 2.9-3.7l-4.9-1.4c-.3.6-.8 1.2-1.4 1.6-1 .6-2 1-3.1 1-1.6 0-2.9-.6-4-1.8-.6-.7-1-1.5-1.2-2.6h14.8v8.5h5.4v-8.1l5.4 8.1h6.2l-6.7-10.2 6.9-9.3zm-31.9 7.9c.2-1 .6-1.9 1.1-2.5.9-1.1 2.2-1.6 3.7-1.6 1.6 0 2.9.5 3.9 1.6.6.6.9 1.4 1.1 2.5h-9.8z"/><path d="M67.3 1286l-4.6 11.6-4-11.6H48v2.5c-.8-.9-1.5-1.6-2.3-2-1.2-.7-2.6-1.1-4.1-1.1-1.9 0-3.5.5-5 1.4-1.5.9-2.6 2.1-3.4 3.6-.3.5-.5 1.1-.7 1.7-.7-2.1-2-3.7-3.9-5-1.6-1.1-3.4-1.6-5.4-1.6-1.7 0-3.1.4-4.3 1.1-.7.4-1.4 1.1-2.1 2v-2.4h-5.4v27.3h5.4v-9.9c1.6 1.9 3.8 2.8 6.5 2.8 2.3 0 4.2-.6 5.9-1.8 1.5-1.1 2.6-2.6 3.3-4.4.4 1.1.9 2 1.6 2.9 1.8 2.2 4.2 3.3 7.2 3.3 2.7 0 5-1.1 6.8-3.4v2.7h5.4v-18.4L60 1305l-1.9 5.4c1.9-.4 3.9.3 5.1 1.7L73 1286h-5.7zm-40.9 13.6c-1 1.5-2.4 2.2-4.3 2.2-1.5 0-2.8-.5-3.7-1.6-1-1-1.5-2.5-1.5-4.3 0-1.5.4-2.8 1.1-3.9 1-1.5 2.5-2.3 4.3-2.3 1.5 0 2.7.6 3.7 1.7s1.5 2.6 1.5 4.5c0 1.4-.4 2.7-1.1 3.7zm20.4.2c-1.1 1.3-2.4 2-4 2-1.3 0-2.5-.5-3.5-1.5-1.1-1.1-1.7-2.6-1.7-4.5 0-1.6.4-2.9 1.3-4.1.9-1.3 2.3-2 4-2 1.7 0 3.1.6 4.1 1.9.8 1.1 1.2 2.4 1.2 3.9 0 1.8-.4 3.1-1.4 4.3zm13.1 20.7c2.2-.7 3.4-3 2.7-5.2-.7-2.2-3-3.4-5.2-2.7-2.2.7-3.4 3-2.7 5.2.7 2.2 3.1 3.4 5.2 2.7z" class="st7"/><path fill="none" d="M93.6 245.8h89.3V319H93.6z"/><path id="XMLID_1775_" d="M115.7 309.8v-3.6c0-1.4-.9-2.3-2.3-2.3-.7 0-1.5.2-2 1-.4-.6-1-1-1.9-1-.6 0-1.2.2-1.7.9v-.8h-1.3v5.8h1.3v-3.2c0-1 .6-1.5 1.4-1.5.8 0 1.3.5 1.3 1.5v3.2h1.3v-3.2c0-1 .6-1.5 1.4-1.5.9 0 1.3.5 1.3 1.5v3.2h1.2zm18.9-5.8h-2.1v-1.8h-1.3v1.8H130v1.2h1.2v2.7c0 1.3.5 2.2 2 2.2.5 0 1.2-.2 1.6-.4l-.4-1.1c-.4.2-.8.3-1.1.3-.6 0-.8-.4-.8-1v-2.6h2.1V304zm10.8-.2c-.7 0-1.2.3-1.5.9v-.7h-1.3v5.8h1.3v-3.3c0-1 .4-1.5 1.2-1.5.3 0 .5 0 .8.1l.4-1.2c-.3 0-.7-.1-.9-.1zm-16.3.6c-.6-.4-1.4-.6-2.4-.6-1.5 0-2.4.7-2.4 1.9 0 .9.7 1.5 2 1.7l.6.1c.7.1 1 .3 1 .6 0 .4-.5.7-1.3.7-.9 0-1.5-.3-1.9-.6l-.6 1c.7.5 1.6.8 2.5.8 1.7 0 2.7-.8 2.7-1.9 0-1-.8-1.6-2-1.7l-.6-.1c-.5-.1-1-.2-1-.6 0-.4.4-.7 1.1-.7.7 0 1.5.3 1.8.5l.5-1.1zm33.8-.6c-.7 0-1.2.3-1.5.9v-.7h-1.3v5.8h1.3v-3.3c0-1 .4-1.5 1.2-1.5.3 0 .5 0 .8.1l.4-1.2c-.2 0-.6-.1-.9-.1zm-16.3 3.1c0 1.8 1.2 3.1 3.1 3.1.9 0 1.5-.2 2.1-.7l-.6-1c-.5.3-1 .5-1.5.5-1 0-1.8-.7-1.8-1.9 0-1.1.7-1.8 1.8-1.9.5 0 1 .2 1.5.5l.6-1c-.6-.5-1.2-.7-2.1-.7-1.8 0-3.1 1.3-3.1 3.1zm11.9 0V304h-1.3v.7c-.4-.5-1-.9-1.8-.9-1.6 0-2.9 1.3-2.9 3.1s1.3 3.1 2.9 3.1c.8 0 1.4-.3 1.8-.9v.7h1.3v-2.9zm-4.7 0c0-1 .7-1.9 1.8-1.9 1 0 1.8.8 1.8 1.9 0 1.1-.7 1.9-1.8 1.9-1.1-.1-1.8-.9-1.8-1.9zm-15.3-3.1c-1.7 0-2.9 1.2-2.9 3.1 0 1.8 1.2 3.1 3 3.1.9 0 1.7-.2 2.4-.8l-.6-.9c-.5.4-1.1.6-1.7.6-.8 0-1.6-.4-1.7-1.4h4.3v-.5c0-1.9-1.1-3.2-2.8-3.2zm0 1.2c.8 0 1.3.5 1.5 1.4h-3c.1-.9.6-1.4 1.5-1.4zm31.7 1.9v-5.2H169v3c-.4-.5-1-.9-1.8-.9-1.6 0-2.9 1.3-2.9 3.1s1.3 3.1 2.9 3.1c.8 0 1.4-.3 1.8-.9v.7h1.3v-2.9zm-4.7 0c0-1 .7-1.9 1.8-1.9 1 0 1.8.8 1.8 1.9 0 1.1-.7 1.9-1.8 1.9-1.1-.1-1.8-.9-1.8-1.9zm-42.7 0V304h-1.3v.7c-.4-.5-1-.9-1.8-.9-1.6 0-2.9 1.3-2.9 3.1s1.3 3.1 2.9 3.1c.8 0 1.4-.3 1.8-.9v.7h1.3v-2.9zm-4.7 0c0-1 .7-1.9 1.8-1.9 1 0 1.8.8 1.8 1.9 0 1.1-.7 1.9-1.8 1.9-1.1-.1-1.8-.9-1.8-1.9z" class="st10"/><g id="XMLID_328_"><path fill="#eb611c" d="M128.6 259.7h19.2v34.4h-19.2z"/><path id="XMLID_330_" fill="#e41221" d="M129.9 276.9c0-7 3.3-13.2 8.4-17.2-3.7-2.9-8.4-4.7-13.5-4.7-12.1 0-21.9 9.8-21.9 21.9 0 12.1 9.8 21.9 21.9 21.9 5.1 0 9.8-1.7 13.5-4.7-5.2-4-8.4-10.2-8.4-17.2z"/><path fill="#f59e1e" d="M173.6 276.9c0 12.1-9.8 21.9-21.9 21.9-5.1 0-9.8-1.7-13.5-4.7 5.1-4 8.4-10.2 8.4-17.2s-3.3-13.2-8.4-17.2c3.7-2.9 8.4-4.7 13.5-4.7 12.1 0 21.9 9.8 21.9 21.9z"/></g><g id="layer1" transform="translate(-333.70157 -536.42431)"><g id="g10267" transform="matrix(4.98469 0 0 -4.98469 -1470.1185 1039.6264)"><defs><path id="SVGID_3_" d="M371.9 45.3c0-.8.7-1.3 1.3-1.6.6-.3.8-.5.8-.7 0-.4-.5-.6-.9-.6-.8 0-1.2.2-1.5.4l-.3-1.3c.4-.2 1-.3 1.7-.3 1.6 0 2.6.8 2.6 2 0 1.5-2.1 1.6-2.1 2.3 0 .2.2.4.6.5.2 0 .8.1 1.5-.3l.3 1.2c-.4.1-.8.3-1.4.3-1.5 0-2.6-.8-2.6-1.9m6.5 1.8c-.3 0-.5-.2-.6-.4l-2.3-5.4h1.6l.3.9h1.9l.2-.9h1.4l-1.2 5.8h-1.3m.2-1.6l.5-2.2h-1.3l.8 2.2m-8.6 1.6l-1.2-5.8h1.5l1.2 5.8H370m-2.2 0l-1.6-4-.6 3.4c-.1.4-.4.6-.7.6h-2.6v-.2c.5-.1 1.1-.3 1.5-.5.2-.1.3-.2.4-.5l1.2-4.7h1.6l2.4 5.8h-1.6"/></defs><clipPath id="SVGID_1_"><use overflow="visible" xlink:href="#SVGID_3_"/></clipPath><g id="g10269" clip-path="url(#SVGID_1_)"><g id="g10275" transform="translate(351.611 96.896)"><linearGradient id="path10283_1_" x1="10.2248" x2="10.4116" y1="-426.6127" y2="-426.6127" gradientTransform="matrix(419.708 154.5691 154.5691 -419.708 61662.0391 -180688.7344)" gradientUnits="userSpaceOnUse"><stop offset="0" stop-color="#252756"/><stop offset="1" stop-color="#2b4d9c"/></linearGradient><path id="path10283" fill="url(#path10283_1_)" d="M8.7-50.4l18.4 6.8L31.3-55l-18.4-6.8"/></g></g></g></g><g id="layer2"><linearGradient id="path2588_1_" x1="9.697" x2="41.5216" y1="628.975" y2="632.5594" gradientTransform="matrix(1 0 0 -1 0 2148)" gradientUnits="userSpaceOnUse"><stop offset="0" stop-color="#eef7fe"/><stop offset="1" stop-color="#1f97d1"/></linearGradient><path id="path2588" fill="url(#path2588_1_)" d="M39.5 1521.2l1.9-7.3H5.8l6.1 7.3h27.6z"/><linearGradient id="path2594_1_" x1="97.0803" x2="103.366" y1="698.3182" y2="692.1645" gradientTransform="matrix(1 0 0 -1 -91.1779 2213.2751)" gradientUnits="userSpaceOnUse"><stop offset="0" stop-color="#d7eaf8"/><stop offset="1" stop-color="#49a3d8"/></linearGradient><path id="path2594" fill="url(#path2594_1_)" d="M5.8 1515.8l5.7 5.4h.5l-6.1-7.3v1.9z"/><linearGradient id="path3415_1_" x1="-181.7035" x2="-161.2773" y1="594.3527" y2="598.7256" gradientTransform="matrix(1 0 0 -1 200.4878 2122.0972)" gradientUnits="userSpaceOnUse"><stop offset="0" stop-color="#d4ebf8"/><stop offset="1" stop-color="#1293c6"/></linearGradient><path id="path3415" fill="url(#path3415_1_)" d="M20.8 1529.8l-6-7.1h24.3l-1.8 7.1H20.8z"/><linearGradient id="path3417_1_" x1="-128.691" x2="-122.5308" y1="573.4799" y2="566.2777" gradientTransform="matrix(1 0 0 -1 142.9835 2096.4534)" gradientUnits="userSpaceOnUse"><stop offset="0" stop-color="#daecf7"/><stop offset="1" stop-color="#368abb"/></linearGradient><path id="path3417" fill="url(#path3417_1_)" d="M20.4 1529.8l-5.6-5.3v-1.8l6 7.1h-.4z"/><linearGradient id="path3435_1_" x1="-40.1801" x2="-31.6131" y1="569.6443" y2="573.7863" gradientTransform="matrix(1 0 0 -1 68.502 2105.5068)" gradientUnits="userSpaceOnUse"><stop offset="0" stop-color="#9dc3df"/><stop offset="1" stop-color="#177fac"/></linearGradient><path id="path3435" fill="url(#path3435_1_)" d="M30.8 1538.7l-6.1-7.2h12.1l-1.9 7.2h-4.1z"/><linearGradient id="path3437_1_" x1="-25.6322" x2="-19.4003" y1="577.2884" y2="569.9812" gradientTransform="matrix(1 0 0 -1 49.8197 2109.1458)" gradientUnits="userSpaceOnUse"><stop offset="0" stop-color="#deeff9"/><stop offset="1" stop-color="#3886b3"/></linearGradient><path id="path3437" fill="url(#path3437_1_)" d="M24.7 1533.3l5.7 5.4h.4l-6.1-7.2v1.8z"/><linearGradient id="path3457_1_" x1="98.5222" x2="98.5222" y1="644.3745" y2="651.6649" gradientTransform="matrix(1 0 0 -1 -59.7103 2183.1667)" gradientUnits="userSpaceOnUse"><stop offset="0" stop-color="#656469"/><stop offset="1" stop-color="#656469"/></linearGradient><path id="path3457" fill="url(#path3457_1_)" d="M36.2 1538.7h3.4l1.8-7.2H38l-1.8 7.2z"/><linearGradient id="path3473_1_" x1="83.9779" x2="83.9779" y1="588.1646" y2="595.2673" gradientTransform="matrix(1 0 0 -1 -42.8596 2117.9294)" gradientUnits="userSpaceOnUse"><stop offset="0" stop-color="#636368"/><stop offset="1" stop-color="#656469"/></linearGradient><path id="path3473" fill="url(#path3473_1_)" d="M38.5 1529.7h3.4l1.8-7h-3.4l-1.8 7z"/><linearGradient id="path3487_1_" x1="111.314" x2="111.314" y1="533.8342" y2="541.0577" gradientTransform="matrix(1 0 0 -1 -67.9526 2055.0137)" gradientUnits="userSpaceOnUse"><stop offset="0" stop-color="#6c6b70"/><stop offset="1" stop-color="#eaebed"/></linearGradient><path id="path3487" fill="url(#path3487_1_)" d="M40.7 1521.2h3.5l1.8-7.2h-3.5l-1.8 7.2z"/><path id="path3497" fill="#49474a" d="M73.4 1538.7c-1.6-.4-2.5-1.1-3.2-2.5-.4-.8-.4-.9-.4-2.7 0-1.4.1-2.3.3-3.3.7-3.4 2.3-7.1 3.5-8.5 1.4-1.6 3.3-2.4 6.2-2.7 2.8-.2 5.1.1 6.3 1 1.2.8 1.6 1.8 1.6 3.9 0 1.5-.4 3.8-.9 4.8-.5 1.1-.4 1.1-6.3 1.1h-5.1l-.1.5c-.6 2.4-.5 3.5.4 4.1.7.5 3.2.6 5.2.4 1.5-.2 2.5-.6 3.2-1.3 1.1-1 1.1-.9.6 1.1-.9 3.3-1 3.6-2.5 4-.9.3-7.5.4-8.8.1zm9.9-12.6c.4-1.6.3-2.4-.4-3-1-.9-3.5-.9-4.8.1-.6.4-1.1 1.3-1.5 2.5l-.3.9h7v-.5zm53 12.6c-1.4-.4-2.2-.9-2.8-2.1l-.5-.9v-2.1c0-1.7.1-2.4.3-3.5.8-3.7 2.2-6.9 3.7-8.4 1.7-1.8 3.8-2.5 7.5-2.5s5.3.7 6.1 2.7c.4.9.3 3.7-.1 5.3-.4 1.6-.7 2.4-1.2 2.6-.2.1-1.6.2-5.6.3l-5.3.1-.2 1c-.3 1.3-.4 2.4-.1 2.9.1.3.5.6.9.8.6.3.8.3 2.8.3 2.9 0 4.3-.4 5.4-1.4.5-.5.9-.7.9-.5 0 .3-1.1 4.3-1.3 4.6-.6 1.1-2 1.4-6.5 1.4-2.5-.4-3.1-.4-4-.6zm10.2-12.9c.5-2.5-.4-3.4-3-3.3-2 .1-3 .9-3.8 3.2-.1.4-.3.8-.3.8h6.8l.3-.7zm-100.3 12.8c-.3-.3-.2-1 .2-2.6 2.1-7.8 5.2-20 5.2-20.4 0-.3-.1-.5-.3-.7-.2-.1-.3-.3-.3-.5s.3-.2 3-.2c2.6 0 3 0 3.2.2.3.3.3.7-.9 5.1-.5 2-.9 3.7-.9 3.8 0 0 1.7.1 3.7.1h3.6l.1-.3c.2-.4 1.8-6.6 1.9-7.3.1-.4 0-.6-.3-.9-.7-.7-.6-.7 2.7-.7 3.3 0 3.3 0 3.3.7 0 .3-1.7 7.2-3.4 13.6-2 7.5-2.3 9-2.1 9.3.1.2.2.4.4.5s.2.2.2.3c0 .2-.4.2-3 .2-3.3 0-3.3 0-3.3-.7 0-.2.6-2.7 1.3-5.5.7-2.8 1.3-5.1 1.3-5.2 0-.2-.7-.2-3.7-.2h-3.7l-1.3 5.1c-.7 2.8-1.3 5.2-1.3 5.3 0 .1.1.4.3.6.2.2.3.4.3.5-.2.2-5.9.2-6.2-.1zm42.2 0c-.1-.1-.2-.3-.2-.4 0-.1 1-4.2 2.3-9.1 2.1-8.3 2.3-8.9 2.1-9.2-.1-.2-.3-.3-.3-.3-.1 0-.1-.1-.1-.2 0-.2.4-.2 2.7-.2 3.5 0 3.4-.1 2.8 2.4-.1.2.2 0 .6-.6.4-.5.9-1.1 1.1-1.3l.4-.4h2.5c1.4 0 2.5 0 2.5.1 0 .3-.8 2.9-.9 3.2-.3.5-.8.6-3 .6-1.8 0-2.2.1-2.6.3-1 .5-1.2 1-2.9 7.6-.9 3.3-1.6 6.3-1.7 6.5-.1.3 0 .5.3.8.2.2.3.4.3.5 0 0-1.2.1-2.7.1-2.6-.2-3.1-.2-3.2-.4zm14.1 0c-.1-.1-.2-.3-.2-.4 0-.1 1-4.1 2.2-8.9 1.2-4.8 2.2-8.9 2.2-9.1 0-.2-.1-.4-.3-.6-.6-.5-.4-.5 2.4-.5 3.4 0 3.4 0 2.9 1.8l-.2.8s.3-.2.5-.6c1.4-2 1.7-2.1 4.8-2.1 2.3 0 2.4 0 3.1.4.8.4 1.2 1 1.5 2.1l.1.4.8-1.1c1.1-1.7 1.3-1.8 4.4-1.8 2.4 0 2.6 0 3.3.3.4.2.8.4.9.6.4.4.7 1.2.7 2 0 .4-.7 3.6-1.9 8.2-1.1 4.3-1.8 7.6-1.8 7.8 0 .2.2.4.4.5.6.3.2.4-2.5.4-2.9 0-3.1 0-3.1-.7 0-.2.7-3.3 1.7-6.9.9-3.6 1.7-6.7 1.7-7 0-1-.9-1.5-2.4-1.3-1.5.2-2.1.6-2.6 1.9-.2.6-3.2 11.7-3.3 12.6-.1.4 0 .6.3.8.2.2.3.4.3.4s-1.3.1-2.7.1c-2.8 0-3 0-3-.7 0-.2.7-3.3 1.7-6.8.9-3.6 1.7-6.7 1.7-7 0-1.1-1-1.6-2.7-1.3-1.1.2-1.6.5-2 1.3-.4.7-3.6 12.6-3.6 13.4 0 .3.1.5.3.6.2.1.3.3.3.3 0 .1-.6.2-2.7.2-2.6.1-3.1.1-3.2-.1zm49.2-.1c-.2-.3-.2-.5.4-2.7.5-1.8.7-2.3.8-2.4.1 0 .3.1.4.3.2.5.7.8 1.9.9 1.6.2 5.4.1 6.1-.2.6-.3 1-.8 1.2-1.6.2-.7 0-1.1-.4-1.4-.2-.1-1.6-.6-3.1-1-3-.8-3.8-1.2-4.3-2.1-.3-.5-.3-.7-.3-1.9.1-2.9 1.5-5.7 3.3-6.6 1.1-.6 1.8-.6 6.8-.6h4.7l-.3 1.3c-.4 1.5-.6 2-1 2.2-.2.1-1.3.2-3.6.2-2.8.1-3.3.1-3.6.3-.5.3-.7.7-.9 1.4-.2.9.2 1.1 3.2 2 3.7 1.1 4.4 1.5 4.8 2.8.3 1.3-.2 4.6-1.1 6.4-.6 1.3-1.3 2-2.3 2.5l-.9.5h-11.4l-.4-.3z"/></g><linearGradient id="SVGID_2_" x1="12.1182" x2="68.4975" y1="2106.9175" y2="2074.3669" gradientUnits="userSpaceOnUse"><stop offset="0" stop-color="#b2183b"/><stop offset=".02046573" stop-color="#b2183b"/><stop offset=".1523" stop-color="#b2183b"/><stop offset=".205" stop-color="#bd1a33"/><stop offset=".2748" stop-color="#c81c2a"/><stop offset=".3573" stop-color="#d11c22"/><stop offset=".4593" stop-color="#d71d1d"/><stop offset=".6025" stop-color="#db1d18"/><stop offset="1" stop-color="#dc1d17"/></linearGradient><path fill="url(#SVGID_2_)" fill-rule="evenodd" d="M39.6 2058.2l-26 14.2 28.9 16.8c.3.2.6.5.6.8v24.7c0 .3-.3.6-.3.6l-1.7 1c-.3.1-.7.2-1-.1l-1.5-.9c-.2-.1-.4-.4-.4-.7v-21.9c0-.4-.4-.6-.7-.7l-25.1-14.6v29.3c0 .6.6 1.4 1.1 1.7l26 15.4c.8.5 1.3.4 2.5-.2l25.7-15.2c.6-.4 1.2-1 1.2-1.7v-29.2l-17.3 10.1c-.2.1-.6.2-.8 0l-1.6-.9c-.3-.2-.6-.5-.6-.9v-1.8c0-.3.2-.6.4-.8l18.5-10.7-26-14.2c-.6-.4-1.5-.4-1.9-.1z" clip-rule="evenodd"/><path d="M109.9 2106.6v-34.4h-6.4v11.3c-.6-.4-3.2-.8-5.3-.8-6.9.2-12 5.6-11.9 12.3.2 8.7 5.3 12.3 13.3 12.8 4.2.2 9.1-1 10.3-1.2zm-6.4-4.7c-.4.1-3.2.4-4.3.2-4.2-.7-6.3-2.9-6.3-6.6 0-4 1.6-6.9 6.6-7.1.8 0 3.6.5 4 .8v12.7zM162.8 2106.6v-34.4h-6.4v11.3c-.6-.4-3.2-.8-5.3-.8-6.9.2-12 5.6-11.9 12.3.2 8.7 5.3 12.3 13.3 12.8 4.2.2 9.1-1 10.3-1.2zm-6.4-4.7c-.4.1-3.2.4-4.3.2-4.2-.7-6.3-2.9-6.3-6.6 0-4 1.6-6.9 6.6-7.1.8 0 3.6.5 4 .8v12.7zM113.5 2084.7v32.3h6.5v-28.1c.4-.1 3.2-.5 4.2-.4 4.3.3 6.2 2.6 6.3 6.4.1 2.4-.7 4.4-2.3 5.7-1.2.9-2.8 1.4-4.7 1.5v5.7c3 .1 6-.5 8.4-2.1 3.1-2 5.3-6.5 5.2-10.7-.2-7.7-4.5-12-13.3-12.2-4-.2-9 1.3-10.3 1.9z" class="st27"/><path id="path4402" d="M135.5 1990.7l5.3-27.2h-9.2l-7 36.3h16.8l1.7-9.1h-7.6z" class="st28"/><path id="path4404" d="M162.7 1971.6c1.5 0 3.7.3 4.9.8l1.6-8.4c-2-.2-4-.5-6.3-.5-10 0-14.7 6-14.7 12.7 0 8.8 9 8.6 9 12.4 0 1.9-1.4 2.9-4.1 2.9-2.1 0-4.7-.5-6.3-1.1l-1.7 9c1.8.5 4.5.7 7.1.7 9 0 15.2-6 15.2-13.2 0-8.5-9-8.6-9-12.4-.1-1.8 1-2.9 4.3-2.9" class="st28"/><path id="path4406" d="M117.3 1963.5c-13.8 0-22.7 10.4-22.7 23 0 7.8 4.1 13.4 14.7 13.4 4.1 0 8.5-.8 12.1-2.3l3.3-17.5h-9.2l-2.1 10.7c-.8.2-1.7.2-2.5.2-4.6 0-6.2-2.5-6.2-6 0-6.2 3.8-12.8 11.8-12.8 2.2 0 4.6.5 6.8 1 .2.1.5.2.7.2.7.3 1.4.6 1.9.8l1.9-9.4c-3.2-.7-7.1-1.3-10.5-1.3" class="st28"/><path id="path4408" fill="#f8b60b" d="M47.8 1963.6l-2.5 12h17.1c-14.2 21-42.4 17.5-49.8 8.7-6.4-7.5-.9-20.4 18.1-28.3-18.8 5.7-29.4 20.8-23.2 30.9 7 11.5 29 16.3 48.5 10.7 13-4.6 18.6-11 20.6-14.4l-3.2 16.7h12.8l6.9-36.3H47.8z"/><g><path d="M68.1 158.5h-8.7c-.6 0-1.1.4-1.2 1l-3.5 22.2c-.1.4.3.8.7.8h4.1c.6 0 1.1-.4 1.2-1l.9-6c.1-.6.6-1 1.2-1h2.7c5.7 0 9-2.8 9.9-8.2.4-2.4 0-4.3-1.1-5.6-1.1-1.4-3.3-2.2-6.2-2.2zm1 8.1c-.5 3.1-2.8 3.1-5.1 3.1h-1.3l.9-5.8c.1-.4.4-.6.7-.6h.6c1.6 0 3 0 3.8.9.4.6.5 1.3.4 2.4zM93.9 166.5h-4.1c-.4 0-.7.3-.7.6l-.2 1.2-.3-.4c-.9-1.3-2.9-1.7-4.9-1.7-4.6 0-8.5 3.5-9.3 8.3-.4 2.4.2 4.7 1.5 6.4 1.3 1.5 3.1 2.1 5.2 2.1 3.7 0 5.7-2.4 5.7-2.4l-.2 1.2c-.1.4.3.8.7.8H91c.6 0 1.1-.4 1.2-1l2.2-14.2c.3-.5 0-.9-.5-.9zm-5.7 8.1c-.4 2.4-2.3 4-4.7 4-1.2 0-2.2-.4-2.8-1.1-.6-.7-.8-1.8-.7-2.9.4-2.3 2.3-4 4.6-4 1.2 0 2.1.4 2.8 1.1.7.7.9 1.8.8 2.9zM116 166.5h-4.2c-.4 0-.8.2-1 .5l-5.7 8.5-2.4-8.1c-.2-.5-.6-.9-1.2-.9h-4.1c-.5 0-.8.5-.7 1l4.6 13.5-4.3 6c-.3.5 0 1.1.6 1.1h4.2c.4 0 .8-.2 1-.5l13.9-20c.2-.4-.1-1.1-.7-1.1z" class="st30"/><path d="M129.8 158.5h-8.7c-.6 0-1.1.4-1.2 1l-3.5 22.2c-.1.4.3.8.7.8h4.4c.4 0 .8-.3.8-.7l1-6.3c.1-.6.6-1 1.2-1h2.7c5.7 0 9-2.8 9.9-8.2.4-2.4 0-4.3-1.1-5.6-1.1-1.4-3.3-2.2-6.2-2.2zm1 8.1c-.5 3.1-2.8 3.1-5.1 3.1h-1.3l.9-5.8c.1-.4.4-.6.7-.6h.6c1.6 0 3 0 3.8.9.4.6.6 1.3.4 2.4zM155.7 166.5h-4.1c-.4 0-.7.3-.7.6l-.2 1.2-.3-.4c-.9-1.3-2.9-1.7-4.9-1.7-4.6 0-8.5 3.5-9.3 8.3-.4 2.4.2 4.7 1.5 6.4 1.3 1.5 3.1 2.1 5.2 2.1 3.7 0 5.7-2.4 5.7-2.4l-.2 1.2c-.1.4.3.8.7.8h3.7c.6 0 1.1-.4 1.2-1l2.2-14.2c.3-.5-.1-.9-.5-.9zm-5.8 8.1c-.4 2.4-2.3 4-4.7 4-1.2 0-2.2-.4-2.8-1.1-.6-.7-.8-1.8-.7-2.9.4-2.3 2.3-4 4.6-4 1.2 0 2.1.4 2.8 1.1.7.7 1 1.8.8 2.9zM160.6 159.1l-3.6 22.6c-.1.4.3.8.7.8h3.6c.6 0 1.1-.4 1.2-1l3.5-22.2c.1-.4-.3-.8-.7-.8h-4c-.4 0-.7.3-.7.6z" class="st31"/><path d="M18.8 186.9l.7-4.2H11l4.9-31c0-.1.1-.2.1-.2.1-.1.2-.1.3-.1h11.9c3.9 0 6.7.8 8.1 2.4.7.8 1.1 1.6 1.3 2.4.2.9.2 2 0 3.3v1l.7.4c.6.3 1 .6 1.3 1 .6.6.9 1.5 1.1 2.5.2 1 .1 2.2-.2 3.6-.3 1.6-.8 2.9-1.5 4-.6 1-1.4 1.9-2.3 2.5-.9.6-1.9 1.1-3.1 1.4-1.1.3-2.5.4-3.9.4h-.9c-.7 0-1.3.2-1.8.7-.5.4-.8 1-.9 1.7l-.1.4-1.2 7.4-.1.3c0 .1 0 .1-.1.2h-.1l-5.7-.1z" class="st30"/><path d="M38.8 159.7c0 .2-.1.5-.1.7-1.6 8-6.9 10.8-13.8 10.8h-3.5c-.8 0-1.5.6-1.7 1.4l-1.8 11.3-.5 3.2c-.1.5.3 1 .9 1h6.2c.7 0 1.4-.5 1.5-1.3l.1-.3 1.2-7.4.1-.4c.1-.7.7-1.3 1.5-1.3h.9c6 0 10.7-2.4 12-9.5.6-2.9.3-5.4-1.2-7.1-.6-.3-1.2-.8-1.8-1.1z" class="st31"/><path fill="#253064" d="M37.1 159c-.2-.1-.5-.1-.7-.2-.3-.1-.5-.1-.8-.1-.9-.2-2-.2-3.1-.2h-9.3c-.2 0-.4.1-.6.1-.4.2-.7.6-.8 1.1l-2 12.5-.1.4c.1-.8.8-1.4 1.7-1.4h3.5c6.8 0 12.2-2.8 13.8-10.8 0-.2.1-.5.1-.7-.4-.2-.8-.4-1.3-.5-.1-.1-.3-.1-.4-.2z"/><path d="M21.8 159.7c.1-.5.4-.9.8-1.1.2-.1.4-.1.6-.1h9.3c1.1 0 2.1.1 3.1.2.3 0 .5.1.8.1.3.1.5.1.7.2.1 0 .2.1.4.1.5.2.9.3 1.3.5.5-3 0-5-1.6-6.8-1.8-2-5-2.9-9.1-2.9H16.2c-.8 0-1.5.6-1.7 1.4l-4.9 31.3c-.1.6.4 1.2 1 1.2h7.3l1.8-11.7 2.1-12.4z" class="st30"/></g><g><path d="M50.5 1192.7h15.3v25.3H50.5zM66.9 1180.1c0 4.8-3.9 8.6-8.6 8.6-4.8 0-8.6-3.9-8.6-8.6 0-4.8 3.9-8.6 8.6-8.6 4.7-.1 8.6 3.8 8.6 8.6z" class="st10"/><path d="M94.6 1146H39.9v83h54.7c12-.2 21.4-3.1 28.1-8.9 8.2-7 12.3-17.9 12.3-32.6 0-7-1.1-13.3-3.2-18.7-2.1-5.2-5.1-9.6-9-13.1-6.9-6.2-16.6-9.5-28.2-9.7zm-1 5.5c10.6 0 19.4 2.9 25.6 8.3 6.9 6.1 10.4 15.5 10.4 27.7 0 24.2-11.8 36-36 36H45.4v-72h48.2z" class="st10"/><path fill="#cd0667" d="M92.1 1218.1H72.7v-59.9H92h-.8c16.1 0 33.3 6.4 33.3 30 0 25-17.2 29.8-33.3 29.8h.9z"/><path d="M69.4 1173.7h5.3c1.2 0 2.1.1 2.7.3.8.2 1.6.7 2.2 1.3.6.6 1.1 1.4 1.4 2.3s.5 2.1.5 3.4c0 1.2-.1 2.2-.4 3.1-.4 1-.9 1.9-1.5 2.5-.5.5-1.2.9-2 1.1-.6.2-1.5.3-2.6.3h-5.5v-14.3zm2.9 2.4v9.5h2.2c.8 0 1.4 0 1.8-.1.5-.1.9-.3 1.2-.6.3-.3.6-.7.8-1.4.2-.6.3-1.5.3-2.6s-.1-2-.3-2.6c-.2-.6-.5-1.1-.8-1.4-.4-.3-.8-.6-1.3-.7-.4-.1-1.2-.1-2.4-.1h-1.5z" class="st2"/><path d="M69 1173.3v15.2h5.9c1.1 0 2-.1 2.7-.3.9-.3 1.7-.7 2.2-1.2.7-.7 1.3-1.6 1.6-2.7.3-.9.5-2 .5-3.2 0-1.4-.2-2.6-.5-3.5-.3-1-.8-1.8-1.5-2.5-.6-.7-1.4-1.2-2.3-1.4-.7-.2-1.6-.3-2.9-.3H69zm5.7.8c1.2 0 2 .1 2.6.3.8.2 1.4.6 2 1.2.6.6 1 1.3 1.3 2.2.3.9.5 2 .5 3.3 0 1.1-.1 2.1-.4 2.9-.3 1-.8 1.8-1.4 2.4-.5.4-1.1.8-1.9 1.1-.6.2-1.4.3-2.5.3h-5.1v-13.6c.7-.1 4.9-.1 4.9-.1z" class="st2"/><path d="M71.9 1175.7v10.3h2.6c.9 0 1.5 0 1.9-.1.5-.1 1-.4 1.3-.7.4-.3.7-.8.9-1.6.2-.7.3-1.6.3-2.7 0-1.2-.1-2-.3-2.7-.2-.7-.5-1.2-.9-1.6-.4-.4-.9-.6-1.5-.8-.4-.1-1.2-.1-2.5-.1h-1.8zm1.7.8c1.4 0 2 .1 2.3.1.5.1.9.3 1.2.6.3.3.5.7.7 1.2.2.6.3 1.4.3 2.4 0 1.1-.1 1.9-.3 2.5-.2.6-.4 1-.7 1.2-.3.2-.6.4-1 .5-.3.1-.9.1-1.7.1h-1.8v-8.7c.5.1 1 .1 1 .1zM84.8 1188.1v-14.4h10.7v2.4h-7.8v3.2h7.2v2.4h-7.2v3.9h8v2.4H84.8z" class="st2"/><path d="M84.4 1173.3v15.2h11.7v-3.2h-8v-3.1h7.2v-3.2h-7.2v-2.4h7.8v-3.2H84.4zm10.6.8v1.7h-7.8v4h7.2v1.7h-7.2v4.7h8v1.7H85.1v-13.6c.8-.2 9.2-.2 9.9-.2zM112 1188.1h-3.2l-1.3-3.3h-5.8l-1.2 3.3h-3.1l5.6-14.4h3.1l5.9 14.4zm-5.4-5.7l-2-5.3-1.9 5.3h3.9z" class="st2"/><path d="M102.8 1173.3l-5.9 15.2h3.9s1-2.8 1.2-3.3h5.2c.2.4 1.3 3.3 1.3 3.3h4l-6.1-15.2h-3.6zm3.1.8c.2.5 5.1 12.6 5.4 13.6H109c-.2-.4-1.3-3.3-1.3-3.3h-6.3s-1 2.8-1.2 3.3H98c.4-1 5.1-13.1 5.3-13.6h2.6z" class="st2"/><path d="M102.1 1182.8h5.1l-2.6-6.9-2.5 6.9zm2.5-4.6c.4 1.2 1.2 3.1 1.4 3.8h-2.8c.3-.7 1-2.7 1.4-3.8zM114.4 1188.1v-14.3h2.9v11.8h7.2v2.4h-10.1z" class="st2"/><path d="M114 1173.4v15.1h10.9v-3.2h-7.2v-11.8H114zm2.9.8v11.8h7.2v1.7h-9.4v-13.5h2.2z" class="st2"/></g><g><path fill="#ebeeee" d="M27.5 1375h120v76h-120z"/><path fill="#f4991a" d="M27.5 1447h120v4h-120z"/><path d="M95.5 1387.3v-2.3c0-.3.3-.6.6-.6h10.2c.3 0 .6.2.6.6v2c0 .3-.3.8-.8 1.4l-5.3 7.5c2 0 4 .2 5.8 1.3.4.2.5.6.5.9v2.4c0 .3-.4.7-.7.5-3.1-1.6-7.3-1.8-10.8 0-.4.2-.7-.2-.7-.5v-2.3c0-.4 0-1 .4-1.6l6.1-8.8h-5.3c-.3.1-.6-.2-.6-.5zm-37.2 14.2h-3.1c-.3 0-.5-.2-.6-.5v-15.9c0-.3.3-.6.6-.6h2.9c.3 0 .5.2.6.5v2.1h.1c.8-2 2.2-3 4.1-3 1.9 0 3.2.9 4 3 .8-2 2.5-3 4.3-3 1.3 0 2.7.5 3.6 1.7 1 1.3.8 3.3.8 5v10.1c0 .3-.3.6-.6.6h-3.1c-.3 0-.6-.3-.6-.6v-8.5c0-.7.1-2.3-.1-3-.2-1.1-.9-1.4-1.8-1.4-.8 0-1.5.5-1.9 1.3-.3.8-.3 2.1-.3 3.1v8.4c0 .3-.3.6-.6.6h-3.1c-.3 0-.6-.3-.6-.6v-8.5c0-1.8.3-4.4-1.9-4.4-2.2 0-2.1 2.6-2.1 4.4v8.4c0 .6-.3.8-.6.8zm57.4-17.3c4.6 0 7.1 4 7.1 9 0 4.9-2.8 8.7-7.1 8.7-4.5 0-7-4-7-8.9 0-5 2.5-8.8 7-8.8zm0 3.2c-2.3 0-2.4 3.1-2.4 5.1 0 1.9 0 6.1 2.4 6.1s2.5-3.4 2.5-5.4c0-1.3-.1-3-.5-4.2-.3-1.2-1-1.6-2-1.6zm13 14.1h-3.1c-.3 0-.6-.3-.6-.6V1385c0-.3.3-.5.6-.5h2.9c.3 0 .5.2.6.4v2.4h.1c.9-2.2 2.1-3.2 4.2-3.2 1.4 0 2.8.5 3.6 1.9.8 1.3.8 3.4.8 5v10c0 .3-.3.5-.6.5h-3.1c-.3 0-.5-.2-.6-.5v-8.7c0-1.7.2-4.3-1.9-4.3-.8 0-1.4.5-1.8 1.3-.4 1-.5 1.9-.5 3v8.6c0 .4-.2.6-.6.6zm-76.5-2.9c-.6-.8-1.2-1.4-1.2-2.9v-4.8c0-2 .1-3.9-1.4-5.3-1.2-1.1-3.2-1.5-4.7-1.5-3 0-6.2 1.1-6.9 4.8-.1.4.2.6.5.7l3 .3c.3 0 .5-.3.5-.6.3-1.3 1.3-1.9 2.5-1.9.6 0 1.4.2 1.7.8.4.6.4 1.5.4 2.3v.4c-1.8.2-4.2.3-5.8 1.1-1.9.8-3.3 2.6-3.3 5.1 0 3.2 2 4.8 4.6 4.8 2.2 0 3.4-.5 5.1-2.3.6.8.7 1.2 1.8 2.1.2.1.5.1.7-.1.6-.6 1.7-1.5 2.4-2.1.3-.3.3-.6.1-.9zm-6.1-1.4c-.5.9-1.3 1.4-2.1 1.4-1.2 0-1.9-.9-1.9-2.2 0-2.6 2.4-3.1 4.6-3.1v.7c0 1.1 0 2.1-.6 3.2zm46.8 1.4c-.6-.8-1.2-1.4-1.2-2.9v-4.8c0-2 .1-3.9-1.4-5.3-1.2-1.1-3.2-1.5-4.7-1.5-3 0-6.2 1.1-6.9 4.8-.1.4.2.6.5.7l3 .3c.3 0 .5-.3.5-.6.3-1.3 1.3-1.9 2.5-1.9.6 0 1.4.2 1.7.8.4.6.4 1.5.4 2.3v.4c-1.8.2-4.2.3-5.8 1.1-1.9.8-3.3 2.6-3.3 5.1 0 3.2 2 4.8 4.6 4.8 2.2 0 3.4-.5 5.1-2.3.6.8.7 1.2 1.8 2.1.2.1.5.1.7-.1.6-.6 1.7-1.5 2.4-2.1.3-.3.3-.6.1-.9zm-6.1-1.4c-.5.9-1.3 1.4-2.1 1.4-1.2 0-1.9-.9-1.9-2.2 0-2.6 2.4-3.1 4.6-3.1v.7c0 1.1 0 2.1-.6 3.2z" class="st36"/><path d="M99.8 1407.4c-5.9 4.2-14.2 6.5-21.4 6.5-10.2 0-19.3-3.7-26.3-10-.6-.6-.2-1.3.6-.8 7.6 4.4 16.7 7 26.3 7 6.5 0 13.3-1.3 19.8-4.1 1.5-.6 2.1.7 1 1.4z" class="st37"/><path d="M102.4 1404.6c-.7-1-4.9-.5-6.8-.2-.6.1-.7-.4-.1-.8 3.3-2.3 8.8-1.7 9.4-.9.6.8-.2 6.3-3.3 8.9-.5.4-.9.2-.7-.3.6-1.9 2.2-5.8 1.5-6.7z" class="st37"/><path d="M101.5 1422.1c.3.6.5 1.2.7 1.8.2.7.3 1.3.3 2.1.1.2.1.4.1.7v.7c0 .6 0 1.2-.1 1.8-.1.6-.2 1.1-.3 1.6v.1c-.2.7-.4 1.4-.8 2-.4.6-.8 1.2-1.3 1.8-.6.6-1.3 1.1-2.1 1.4-.8.4-1.7.5-2.6.5H95c-1 0-1.9-.2-2.8-.5-.9-.4-1.6-.8-2.3-1.4l-.2-.2V1442.5c0 .3-.1.5-.2.6-.1.1-.3.2-.5.2h-1.8c-.3 0-.5-.1-.6-.2-.1-.1-.2-.3-.2-.6v-.2-22.5-.2-.2c0-.2.1-.3.2-.4.1-.1.2-.2.4-.2h1.7c.2 0 .3.1.4.2.1.1.2.2.2.3.1.2.1.3.1.5v.7c.3-.2.7-.4 1-.7.3-.2.7-.4 1-.7v.1c.5-.3 1.1-.6 1.8-.8.6-.2 1.3-.3 2-.3.4 0 .7 0 1.1.1.3.1.7.1 1 .2.9.2 1.7.6 2.4 1.3.9.8 1.4 1.6 1.8 2.4zm-2.7 8.4c.1-.4.2-.9.3-1.4.1-.5.1-1.1.1-1.6v-.5-.5c0-.5 0-.9-.1-1.4-.1-.4-.2-.8-.4-1.2v-.1c-.3-.8-.8-1.4-1.4-2-.7-.5-1.5-.8-2.4-.8H94.6c-.9 0-1.7.1-2.4.4-.7.3-1.4.6-2.1 1.1-.1 0-.1 0-.1.1V1432.2c0 .1.1.1.1.1H90c.7.5 1.4.9 2.1 1.2.7.3 1.6.4 2.4.4h.5c.6-.1 1.1-.2 1.6-.4s.9-.6 1.2-1v.1l.6-.9c.1-.5.2-.8.4-1.2zm20.1-8.2c.1.1.1.4.1.6V1435.7c-.1.2-.1.3-.2.4-.1.1-.2.1-.4.1h-1.7c-.2 0-.3-.1-.4-.2-.1-.1-.2-.2-.2-.4-.1-.2-.1-.3-.2-.5s-.1-.4-.1-.6l-.2.1c-.6.6-1.3 1-2 1.3s-1.5.6-2.3.7c-.2.1-.4.1-.6.1h-.7c-.4 0-.9-.1-1.3-.2s-.9-.2-1.2-.4c-.7-.3-1.3-.8-1.8-1.4-.5-.6-.8-1.3-.9-2.1v-.5-.5c0-.4 0-.9.1-1.2.1-.4.2-.7.4-1.1v-.1c.3-.6.8-1.1 1.3-1.6s1.2-.8 1.9-1h-.1c.5-.2 1-.3 1.4-.4.5-.1 1-.1 1.5-.1h.9c.5.1 1.1.1 1.7.2.6.1 1.1.2 1.6.3h.1v.1c.1-.2.1-.3.1-.5v-.5-1.2c0-.4-.1-.8-.1-1.2-.1-.5-.3-.9-.6-1.3-.4-.4-.8-.6-1.3-.7h.1c-.3-.1-.6-.1-.9-.1H111.2c-.8.1-1.5.2-2.3.3-.8.1-1.5.3-2.1.5-.2.1-.4.1-.5 0-.1-.1-.2-.3-.2-.5v-.5-.6c0-.2 0-.3.1-.5.1-.1.2-.2.4-.3h-.1l.9-.3c.4-.1.7-.2 1.1-.3h-.1c.7-.2 1.3-.3 2-.4.7-.1 1.4-.1 2-.1h.7c.2 0 .4 0 .7.1.5 0 1.1.1 1.6.2s1 .3 1.4.6c.5.3 1 .7 1.4 1.2.4.5.6 1.1.7 1.7zm-3.2 10.1c.1 0 .1 0 .1-.1V1432v-1.2-2.2h-.2c-.4-.1-.9-.1-1.4-.2-.5-.1-1-.1-1.5-.2h.1-.7c-.3 0-.6 0-.9.1-.3.1-.6.1-.8.2-.4.1-.8.3-1.1.6-.3.3-.5.7-.7 1.1v-.1c-.1.2-.1.3-.1.5v1.1c0 .2.1.3.1.5.1.3.3.6.5.9.2.2.5.4.9.5h-.1c.2.1.4.2.7.2h1.3c.8-.1 1.5-.3 2.1-.6.5 0 1.1-.4 1.7-.8zm21.8-13.4c.1 0 .2 0 .3.1.1.1.1.1.1.2v.3c0 .1-.1.2-.1.2l-7.7 19.6v.1c-.2.4-.4.9-.6 1.3-.2.4-.5.8-.8 1.2-.4.5-.9.9-1.4 1.2-.6.3-1.1.5-1.7.5-.1.1-.2.1-.4.1h-.4c-.3 0-.6 0-.9-.1-.3-.1-.6-.1-.9-.2-.2 0-.4-.1-.6-.2-.2-.2-.2-.4-.2-.6v-.1-.6-.6c.1-.2.1-.3.2-.4.1-.1.2-.1.4-.1.1.1.2.1.4.1h.5-.1H125.1c.4-.1.8-.2 1.1-.5.3-.2.5-.6.7-.9.2-.4.3-.8.5-1.2.2-.4.3-.8.5-1.2v.1c.1-.1.1-.2.1-.4v-.4-.4c0-.1-.1-.2-.1-.3-2.1-5.2-4.2-10.5-6.4-15.7v.1c-.1-.1-.1-.2-.1-.3v-.3c-.1-.2 0-.3 0-.4.1-.1.2-.2.4-.2h2.2c.2 0 .4.1.5.2.1.1.3.2.4.4l1.1 3.1 3.7 10.3.2.3 1.2-3.5 3.4-9.7c.1-.1.1-.2.1-.3v-.2c.1-.2.2-.3.3-.4.1-.1.3-.1.5-.1h2.1z" class="st36"/></g><g><path d="M43.1 663c0 .1 0 .2-.1.3s-.1.2-.2.2-.1.1-.2.1H41.7c-.2 0-.3 0-.5-.1-.1 0-.3-.1-.4-.2l-.4-.4c-.2-.2-.2-.4-.4-.6l-3.9-7.2-.6-1.2-.6-1.2v10.6l-.1.1s-.2 0-.3.1h-.8c-.1 0-.2 0-.3-.1-.1 0-.1-.1-.1-.1V651.5c0-.3.1-.4.2-.6s.3-.2.5-.2h1.3c.1 0 .2.1.4.2l.3.3c.1.1.2.3.3.5l3 5.5c.2.3.4.7.5 1s.3.6.5 1 .3.6.5.9.3.6.5.9v-1.6-8.5-.1l.1-.1c.1 0 .2-.1.3-.1h.8c.1 0 .2 0 .3.1.1 0 .1.1.1.1V663zM55.9 663.1c.1.1.1.3.1.3s0 .2-.1.2-.1.1-.3.1h-1.3c-.1 0-.1-.1-.1-.1l-.1-.1-1.1-3.1h-5.3l-1 3c0 .1 0 .1-.1.2l-.1.1s-.1.1-.3.1h-.9c-.2 0-.2 0-.3-.1s-.1-.1-.1-.2 0-.2.1-.3l4.2-11.7c0-.1.1-.1.1-.2s.1-.1.2-.1.2 0 .3-.1.3 0 .5 0h.5c.1 0 .2 0 .3.1s.1.1.2.1.1.1.1.2l4.5 11.6zm-5.4-10.4l-2.2 6.3h4.4l-2.2-6.3zM66.3 661.9v.5c0 .1 0 .1-.1.2s-.1.1-.1.2-.2.2-.4.3-.5.3-.8.4-.7.2-1.1.3-.8.1-1.3.1c-.8 0-1.6-.1-2.2-.4s-1.2-.7-1.7-1.2-.8-1.2-1.1-2-.4-1.7-.4-2.7c0-1 .1-2 .4-2.8s.6-1.5 1.1-2.1 1.1-1 1.8-1.3 1.4-.4 2.3-.4c.4 0 .7 0 1.1.1s.7.2 1 .3.6.2.8.4.4.2.5.3.1.2.2.2 0 .1.1.2 0 .1 0 .2v.6c0 .1 0 .2-.1.2 0 .1-.1.1-.1.1h-.1c-.1 0-.2-.1-.4-.2s-.4-.3-.6-.4c-.3-.2-.6-.3-.9-.4-.4-.1-.8-.2-1.3-.2-.6 0-1.1.1-1.5.3-.5.2-.9.6-1.2 1-.3.4-.6 1-.8 1.6-.2.6-.3 1.3-.3 2.2 0 .8.1 1.5.3 2.1.2.6.4 1.1.7 1.5.3.4.7.7 1.2.9.5.2 1 .3 1.6.3.5 0 .9-.1 1.3-.2s.7-.3 1-.4c.3-.2.5-.3.7-.4.2-.1.3-.2.4-.2h.1l.1.1v.2c0 .1-.2.3-.2.5zM77.6 663.4v.1l-.1.1s-.2 0-.3.1-.2 0-.4 0h-.4c-.1 0-.2 0-.3-.1l-.1-.1V657.8h-5.8V663.5l-.1.1s-.2 0-.3.1-.2 0-.4 0H69c-.1 0-.2 0-.3-.1l-.1-.1v-12.2-.1l.1-.1s.2 0 .3-.1.2 0 .4 0h.4c.1 0 .2 0 .3.1l.1.1V656.4H76v-5.1-.1l.1-.1s.1 0 .3-.1.2 0 .4 0h.4c.1 0 .2 0 .3.1l.1.1v12.2zM90.6 663c0 .1 0 .2-.1.3 0 .1-.1.2-.2.2s-.1.1-.2.1H89.2c-.2 0-.3 0-.5-.1-.1 0-.3-.1-.4-.2l-.4-.4c-.1-.2-.2-.4-.4-.6l-3.9-7.2-.6-1.2-.6-1.2v10.6l-.1.1s-.2 0-.3.1h-.8c-.1 0-.2 0-.3-.1-.1 0-.1-.1-.1-.1V651.5c0-.3.1-.4.2-.6s.3-.2.5-.2h1.3c.1 0 .2.1.4.2l.3.3c.1.1.2.3.3.5l3 5.5c.2.3.4.7.5 1s.3.6.5 1c.2.3.3.6.5.9s.3.6.5.9v-1.6-8.5-.1l.1-.1s.2-.1.3-.1h.8c.1 0 .2 0 .3.1l.1.1V663zM103.4 663.1c.1.1.1.3.1.3 0 .1 0 .2-.1.2s-.1.1-.3.1h-1.3c-.1 0-.1-.1-.1-.1l-.1-.1-1.1-3.1h-5.3l-1 3c0 .1 0 .1-.1.2l-.1.1c-.1 0-.1.1-.3.1h-.9c-.1 0-.2 0-.3-.1s-.1-.1-.1-.2 0-.2.1-.3l4.2-11.7c0-.1.1-.1.1-.2 0 0 .1-.1.2-.1s.2 0 .3-.1.3 0 .5 0h.5c.1 0 .2 0 .3.1.1 0 .1.1.2.1 0 0 .1.1.1.2l4.5 11.6zm-5.5-10.4l-2.2 6.3h4.4l-2.2-6.3zM114.6 663.4v.1l-.1.1c-.1 0-.2 0-.3.1s-.2 0-.4 0h-.4c-.1 0-.2 0-.3-.1-.1 0-.1-.1-.1-.1V657.8h-5.8V663.5l-.1.1c-.1 0-.2 0-.3.1s-.2 0-.4 0h-.4c-.1 0-.2 0-.3-.1-.1 0-.1-.1-.1-.1v-12.2-.1l.1-.1c.1 0 .2 0 .3-.1h.8c.1 0 .2 0 .3.1.1 0 .1.1.1.1V656.4h5.8v-5.1-.1l.1-.1c.1 0 .1 0 .3-.1h.8c.1 0 .2 0 .3.1.1 0 .1.1.1.1v12.2zM131.7 663.4v.1l-.1.1s-.2 0-.3.1h-.8c-.1 0-.2 0-.3-.1-.1 0-.1-.1-.1-.1v-11.1l-4.5 11.1s0 .1-.1.1c0 0-.1.1-.2.1h-.9c-.1 0-.2 0-.2-.1-.1 0-.1-.1-.2-.1l-.1-.1-4.3-11.1v11.1l-.1.1s-.2 0-.3.1-.2 0-.4 0h-.4c-.1 0-.2 0-.3-.1-.1 0-.1-.1-.1-.1v-11.7c0-.3.1-.5.2-.6.1-.1.3-.2.5-.2h1c.2 0 .4 0 .6.1.2 0 .3.1.4.2l.3.3c.1.1.1.3.2.5l3.6 9.2 3.8-9.1c.1-.2.2-.4.2-.5s.2-.2.3-.3c.1-.1.2-.1.3-.2.1 0 .3-.1.4-.1H131.2c.1 0 .2.1.2.1l.2.2c0 .1.1.2.1.3v11.8zM142.1 663v.3c0 .1 0 .2-.1.2 0 .1-.1.1-.1.1H135.7c-.2 0-.3-.1-.4-.2-.1-.1-.2-.3-.2-.5v-11.3c0-.3.1-.4.2-.5.1-.1.3-.2.4-.2h6.1l.1.1c0 .1 0 .1.1.2v.6c0 .1 0 .2-.1.2 0 .1-.1.1-.1.1h-5v4h4.3l.1.1s.1.1.1.2v.6c0 .1 0 .2-.1.2s-.1.1-.1.1h-4.3v4.5h5.1l.1.1c0 .1.1.1.1.2v.9z"/></g><g><path d="M99.8 609.3c.2-1 1-1.6 2.2-1.9 1-.2 2.7-.2 5.3 1 .2.1 12.3 5.2 14.6 6.2.3.1.5.6.5.6 3 8.3 11.6 4.8 11.6 4.7-4.4.2-7.6-2.2-8.6-4.1-2.2-4.4 2.8-3.9 5.5-3.9 10.3-.1 10.1 2.4 15.6 4.2l8.4 3.2c.2.1.3.3.4.5 0 .2 0 .4-.1.6l-.5.8c-1.4 2-3 5-4.4 6.9-.1.1-.2.2-.4.3h-.7L143 627c-.3-.1-15.8 4.7-21.7.5L103 613.7c-.7-.6-1.5-1.2-2.2-1.7-.9-.7-1.2-1.8-1-2.7z" class="st10"/><path d="M103.9 594.2c0 5.2 4.2 9.4 9.4 9.4.9 0 1.8-.1 2.6-.4-.3-1-.5-2-.5-3.1 0-4.3 2.8-7.9 6.7-9-1.3-3.7-4.8-6.3-8.9-6.3-5.1 0-9.3 4.2-9.3 9.4zm10.6 5c0 .4-.3.7-.7.7h-1.3c-.4 0-.7-.3-.7-.7v-7.8l-.8.4c-.2.1-.4.1-.6 0-.2-.1-.3-.3-.4-.5l-.3-1c-.1-.3.1-.6.3-.8l2.2-1.2c.1-.1.2-.1.3-.1h1.1c.4 0 .7.3.7.7l.2 10.3z" class="st38"/><path d="M117 600.9c0 5.1 4.1 9.1 9.1 9.1 5.1 0 9.1-4.1 9.1-9.1 0-5.1-4.1-9.1-9.1-9.1s-9.1 4-9.1 9.1zm11.1 4.9c0 .4-.3.7-.7.7h-1.2c-.4 0-.7-.3-.7-.7v-7.6l-.8.4c-.2.1-.4.1-.6 0-.2-.1-.3-.3-.4-.5l-.2-1c-.1-.3.1-.6.3-.8l2.2-1.2c.1-.1.2-.1.3-.1h1.1c.4 0 .7.3.7.7v10.1z" class="st38"/><g><path d="M67.8 587.5l-12.2-5.1c-.6-.3-1.4-.4-2.1-.4s-1.4.1-2 .4l-12.3 5.1c-1.6.7-2.5 2-2.5 3.4v12.2c0 1.4 1 2.7 2.5 3.4l12.2 5.1c.6.3 1.4.4 2.1.4.7 0 1.4-.1 2.1-.4l12.3-5.1c1.6-.7 2.5-2 2.5-3.4v-12.2c0-1.4-1-2.7-2.6-3.4zm-15-2.8c.1-.1.4-.1.7-.1.2 0 .4 0 .7.1l11.2 4.7-11.9 4.9-11.9-4.9 11.2-4.7zm-12.2 19.5c-.5-.2-.8-.7-.8-1.1v-11.7l12.2 5.1V609l-11.4-4.8zm25.9 0L55 609v-12.5l12.2-5.1v11.7c.1.5-.2.9-.7 1.1z" class="st38"/><path d="M60.9 586.6l-.3-.6-7.1 3-6.9-2.9-.3.6 6.4 2.6-6.6 2.8.3.5 7.1-2.9 6.9 2.8.3-.5-6.4-2.7z" class="st38"/></g><g><path d="M75.2 609.3c-.2-1-1-1.6-2.2-1.9-1-.2-2.7-.2-5.3 1-.2.1-12.3 5.2-14.6 6.2-.3.1-.5.6-.5.6-3 8.3-11.6 4.8-11.6 4.7 4.4.2 7.6-2.2 8.6-4.1 2.2-4.4-2.8-3.9-5.5-3.9-10.3-.1-10.1 2.4-15.6 4.2l-8.4 3.2c-.2.1-.3.3-.4.5 0 .2 0 .4.1.6l.5.8c1.4 2 3 5 4.4 6.9.1.1.2.2.4.3h.7L32 627c.3-.1 15.8 4.7 21.7.5L72 613.7c.7-.6 1.5-1.2 2.2-1.7.9-.7 1.2-1.8 1-2.7z" class="st10"/></g></g><g><path d="M38.2 775.9h-2.3l-1.5-5.4c-.2-.6-.5-1.1-.9-1.4-.4-.3-.8-.4-1.4-.4h-3.8v7.2h-2.2v-17.1c1.4-.1 3.4-.2 5.9-.2 2 0 3.5.4 4.3 1.1.8.7 1.2 2 1.2 3.9 0 1.4-.2 2.5-.7 3.2-.5.7-1.3 1.1-2.4 1.3v.1c.5.1.9.4 1.3.8s.7 1 .8 1.7l1.7 5.2zm-9.9-9.1H32c1.3 0 2.2-.2 2.7-.7.5-.4.7-1.3.7-2.6 0-1.2-.2-2.1-.7-2.5-.5-.4-1.4-.7-2.7-.7h-3.7v6.5zM51.9 774.1l.1 1.7c-1.5.1-4 .1-7.4.1-1 0-1.8-.3-2.4-.8-.6-.5-.9-1.3-.9-2.2v-11.2c0-.9.3-1.6.9-2.2.6-.5 1.4-.8 2.4-.8 3.4 0 5.8 0 7.4.1l-.1 1.7H45c-1 0-1.5.5-1.5 1.6v3.7h7.4v1.8h-7.4v4.7c0 1.1.5 1.7 1.5 1.7h6.9zM66.1 774l.2 1.6c-1.4.4-3 .6-5 .6-2.5 0-4.2-.7-5.2-2s-1.5-3.6-1.5-6.9c0-3.3.5-5.6 1.5-6.9s2.7-2 5.2-2c1.8 0 3.3.2 4.7.5l-.2 1.7c-1.5-.1-3-.2-4.4-.2-1.7 0-2.8.5-3.5 1.5s-1 2.8-1 5.4c0 2.6.3 4.4 1 5.4.6 1 1.8 1.5 3.5 1.5 1.9 0 3.5-.1 4.7-.2zM81.7 758.7v17.1h-2.2v-8.2h-7.9v8.2h-2.2v-17.1h2.2v7h7.9v-7h2.2zM99.2 758.7V775c0 .6-.3.9-.8.9h-2.1c-.4 0-.8-.2-1-.7L89.5 763c-.6-1.2-.9-2-1-2.3h-.4c.1.7.1 1.4.1 2.3v12.8H86v-16.3c0-.6.3-.9.9-.9H89c.4 0 .8.2 1 .7l5.6 11.8c.4.8.8 1.6 1.2 2.5h.4c0-.9-.1-1.8-.1-2.6v-12.4h2.1zM115.9 758.7v10.6c0 2.5-.5 4.3-1.4 5.3-.9 1-2.5 1.6-4.7 1.6-2.3 0-4-.5-4.9-1.6-1-1-1.4-2.8-1.4-5.3v-10.6h2.2v10.6c0 1.8.3 3.1.9 3.8.6.7 1.6 1.1 3.2 1.1 1.5 0 2.5-.4 3.1-1.1s.9-2 .9-3.8v-10.6h2.1zM133.3 758.7V775c0 .6-.3.9-.8.9h-2.1c-.4 0-.8-.2-1-.7l-5.8-12.1c-.6-1.2-.9-2-1-2.3h-.4c.1.7.1 1.4.1 2.3v12.8h-2.2v-16.3c0-.6.3-.9.9-.9h2.1c.4 0 .8.2 1 .7l5.6 11.8c.4.8.8 1.6 1.2 2.5h.4c0-.9-.1-1.8-.1-2.6v-12.4h2.1zM147.7 775.9l-.2-1.8c-1.5 1.4-3.2 2.1-5.1 2.1-1.9 0-3.3-.7-4.1-2.1-.9-1.4-1.3-3.7-1.3-6.8 0-3.4.5-5.7 1.6-6.9 1-1.3 2.9-1.9 5.6-1.9 1.8 0 3.4.2 4.8.5l-.2 1.6c-1.4-.1-2.9-.2-4.4-.2-1.3 0-2.3.2-3 .5-.7.3-1.2 1-1.5 2-.3 1-.5 2.5-.5 4.5 0 2.5.3 4.3.8 5.3s1.5 1.5 2.9 1.5c1.3 0 2.7-.6 4.2-1.7V766h2.1v9.9h-1.7z"/></g><g><path d="M16.6 866.7v13.7c0 1.1.6 1.6 1.7 1.6h6.2l.1 1.7c-1.4.1-3.7.2-6.6.2-2.3 0-3.5-1.1-3.5-3.2v-13.9h2.1zM36.3 878.5h-7.1l-1.7 5.4h-2.3l5.5-16.5c.1-.4.4-.6.8-.6h2.3c.4 0 .7.2.8.6l5.5 16.5H38l-1.7-5.4zm-.6-1.9l-2.2-6.8c-.1-.4-.3-.9-.4-1.4h-.7l-.4 1.4-2.2 6.8h5.9zM48.8 876.6l-3.6-.9c-1.2-.3-2.1-.8-2.6-1.6s-.8-1.8-.8-3.2c0-1 .1-1.8.3-2.4s.6-1.1 1.1-1.4c.5-.3 1.1-.5 1.7-.6.6-.1 1.5-.1 2.5-.1 2 0 3.7.2 5.1.5l-.1 1.6c-1.6-.1-3.2-.1-4.8-.1H46c-.3 0-.7.1-1 .3-.3.2-.6.4-.7.8-.1.4-.2.8-.2 1.5 0 .9.2 1.6.5 1.9.3.4.9.7 1.7.9l3.5.9c1.3.3 2.2.9 2.7 1.6.5.8.8 1.8.8 3.2 0 1.9-.4 3.1-1.3 3.8-.9.6-2.3.9-4.5.9-1.8 0-3.6-.2-5.3-.5l.1-1.6c2.8.1 4.5.1 5.2.1 1.4 0 2.3-.2 2.7-.5.5-.3.7-1.1.7-2.2 0-.9-.2-1.6-.5-2-.2-.4-.8-.7-1.6-.9zM68.3 868.7h-5.5v15.2h-2.2v-15.2h-5.5v-1.9h13.2v1.9zM77.2 876.6l-3.6-.9c-1.2-.3-2.1-.8-2.6-1.6s-.8-1.8-.8-3.2c0-1 .1-1.8.3-2.4s.6-1.1 1.1-1.4c.5-.3 1.1-.5 1.7-.6.6-.1 1.5-.1 2.5-.1 2 0 3.7.2 5.1.5l-.1 1.6c-1.6-.1-3.2-.1-4.8-.1h-1.6c-.3 0-.7.1-1 .3-.3.2-.6.4-.7.8-.1.4-.2.8-.2 1.5 0 .9.2 1.6.5 1.9.3.4.9.7 1.7.9l3.5.9c1.3.3 2.2.9 2.7 1.6.5.8.8 1.8.8 3.2 0 1.9-.4 3.1-1.3 3.8-.9.6-2.3.9-4.5.9-1.8 0-3.6-.2-5.3-.5l.1-1.6c2.8.1 4.5.1 5.2.1 1.4 0 2.3-.2 2.7-.5.5-.3.7-1.1.7-2.2 0-.9-.2-1.6-.5-2-.3-.4-.8-.7-1.6-.9zM95.9 882l.2 1.6c-1.4.4-3 .6-5 .6-2.5 0-4.2-.7-5.2-2s-1.5-3.6-1.5-6.9c0-3.3.5-5.6 1.5-6.9s2.7-2 5.2-2c1.8 0 3.3.2 4.7.5l-.2 1.7c-1.5-.1-3-.2-4.4-.2-1.7 0-2.8.5-3.5 1.5-.6 1-1 2.8-1 5.4 0 2.6.3 4.4 1 5.4.6 1 1.8 1.5 3.5 1.5 1.8 0 3.4-.1 4.7-.2zM111.4 866.7v17.1h-2.2v-8.2h-7.9v8.2h-2.2v-17.1h2.2v7h7.9v-7h2.2zM127.8 883.9h-2.3l-1.5-5.4c-.2-.6-.5-1.1-.9-1.4-.4-.3-.8-.4-1.4-.4h-3.8v7.2h-2.2v-17.1c1.4-.1 3.4-.2 5.9-.2 2 0 3.5.4 4.3 1.1.8.7 1.2 2 1.2 3.9 0 1.4-.2 2.5-.7 3.2s-1.3 1.1-2.4 1.3v.1c.5.1.9.4 1.3.8s.7 1 .8 1.7l1.7 5.2zm-9.9-9.1h3.7c1.3 0 2.2-.2 2.7-.7.5-.4.7-1.3.7-2.6 0-1.2-.2-2.1-.7-2.5-.5-.4-1.4-.7-2.7-.7h-3.7v6.5zM133.3 883.9h-2.2v-17.1h2.2v17.1zM147.8 868.6h-6.4c-.6 0-1 .1-1.3.4-.3.3-.4.7-.4 1.3v4h7.2v1.8h-7.2v7.9h-2.2v-14.1c0-1 .3-1.7.9-2.3.6-.5 1.4-.8 2.4-.8 3.3 0 5.6.1 7.1.2l-.1 1.6zM162.7 868.7h-5.5v15.2H155v-15.2h-5.5v-1.9h13.2v1.9z"/></g><g><path d="M41.1 1112c0 .4-.1.8-.2 1.1-.1.3-.2.6-.4.9-.2.3-.4.5-.7.7-.3.2-.5.4-.9.5s-.7.2-1 .3-.8.1-1.3.1h-3.3c-.1 0-.3 0-.4-.2-.1-.1-.2-.3-.2-.5v-11.3c0-.3.1-.4.2-.5.1-.1.3-.2.4-.2h2.9c.8 0 1.4.1 1.9.2s.9.4 1.2.6.6.6.7 1c.2.4.2.8.2 1.3 0 .3 0 .6-.1.9s-.2.5-.3.8c-.1.2-.3.4-.5.6-.2.2-.5.3-.7.4.3.1.7.2 1 .4.3.2.6.4.8.7.2.3.4.6.5.9.2.5.2.9.2 1.3zm-2.5-5.6c0-.3 0-.6-.1-.8-.1-.2-.2-.5-.4-.6-.2-.2-.4-.3-.7-.4-.3-.1-.7-.1-1.2-.1h-1.7v4.1h1.9c.4 0 .8-.1 1.1-.2.3-.1.5-.3.7-.5.2-.2.3-.4.4-.7v-.8zm.8 5.7c0-.4-.1-.7-.2-1-.1-.3-.3-.5-.5-.7-.2-.2-.5-.3-.9-.4-.3-.1-.8-.2-1.3-.2h-2v4.5h2.4c.4 0 .7 0 1-.1.3-.1.5-.2.8-.4.2-.2.4-.4.5-.7.1-.3.2-.6.2-1zM53 1115.1c.1.1.1.3.1.3s0 .2-.1.2-.1.1-.3.1h-1.3c-.1 0-.1-.1-.1-.1l-.1-.1-1.1-3.1h-5.3l-1 3c0 .1 0 .1-.1.2l-.1.1s-.1.1-.3.1h-.9c-.1 0-.2 0-.3-.1 0 0-.1-.1-.1-.2s0-.2.1-.3l4.2-11.7c0-.1.1-.1.1-.2 0 0 .1-.1.2-.1s.2 0 .3-.1.3 0 .5 0h.5c.1 0 .2 0 .3.1.1 0 .1.1.2.1s.1.1.1.2l4.5 11.6zm-5.5-10.4l-2.2 6.3h4.4l-2.2-6.3zM63.5 1115.4v.1l-.1.1c-.1 0-.2 0-.3.1h-.9c-.1 0-.2 0-.3-.1s-.1-.1-.2-.1c0-.1-.1-.1-.1-.2l-1.2-3c-.1-.3-.3-.6-.4-.9s-.3-.5-.5-.7-.4-.4-.7-.5c-.3-.1-.6-.2-1-.2h-1.1v5.5l-.1.1c-.1 0-.1 0-.3.1h-.8c-.1 0-.2 0-.3-.1-.1 0-.1-.1-.1-.1V1103.7c0-.3.1-.4.2-.5.1-.1.3-.2.4-.2h3.5c.2 0 .4 0 .6.1.5.1.9.2 1.3.4s.7.4.9.7c.3.3.4.6.6 1s.2.8.2 1.2c0 .4-.1.8-.2 1.1-.1.3-.3.6-.5.9-.2.3-.5.5-.8.7-.3.2-.6.3-1 .5l.6.3c.2.1.3.3.5.5s.3.4.4.7.3.5.4.9l1.1 2.8c.1.2.1.4.2.5v.1zm-2.5-8.9c0-.5-.1-.9-.3-1.3s-.6-.6-1.1-.7c-.2 0-.3-.1-.6-.1h-2.2v4.3h1.6c.4 0 .8-.1 1.1-.2s.6-.3.8-.4c.2-.2.4-.4.5-.7.1-.3.2-.6.2-.9zM73.2 1115v.3c0 .1 0 .2-.1.2s-.1.1-.1.1h-7.7c-.2 0-.3-.1-.4-.2-.1-.1-.2-.3-.2-.5v-.4-.2c0-.1 0-.1.1-.2 0-.1.1-.2.1-.3.1-.1.1-.2.2-.4l5.8-9.1h-6l-.1-.1c0-.1-.1-.1-.1-.2v-.3-.3c0-.1 0-.2.1-.2s.1-.1.1-.1h7.2c.2 0 .3.1.4.2.1.1.2.3.2.5v.7c0 .1 0 .2-.1.2 0 .1-.1.2-.1.3s-.1.2-.2.3l-5.8 9.1h6.2c.1 0 .2.1.3.2.2-.1.2.1.2.4zM84.6 1115.1c.1.1.1.3.1.3s0 .2-.1.2-.1.1-.3.1H83c-.1 0-.1-.1-.1-.1l-.1-.1-1.1-3.1h-5.3l-1 3c0 .1 0 .1-.1.2l-.1.1s-.1.1-.3.1H74c-.1 0-.2 0-.3-.1 0 0-.1-.1-.1-.2s0-.2.1-.3l4.2-11.7c0-.1.1-.1.1-.2 0 0 .1-.1.2-.1s.2 0 .3-.1.3 0 .5 0h.5c.1 0 .2 0 .3.1.1 0 .1.1.2.1s.1.1.1.2l4.5 11.6zm-5.4-10.4L77 1111h4.4l-2.2-6.3zM95.9 1115.4v.1l-.1.1c-.1 0-.2 0-.3.1h-.8c-.1 0-.2 0-.3-.1-.1 0-.1-.1-.1-.1V1109.8h-5.8V1115.5l-.1.1c-.1 0-.2 0-.3.1h-.8c-.1 0-.2 0-.3-.1-.1 0-.1-.1-.1-.1v-12.2-.1l.1-.1c.1 0 .2 0 .3-.1h.8c.1 0 .2 0 .3.1.1 0 .1.1.1.1V1108.4h5.8v-5.1-.1l.1-.1c.1 0 .1 0 .3-.1h.8c.1 0 .2 0 .3.1.1 0 .1.1.1.1v12.2zM105.8 1114.9v.3c0 .1 0 .2-.1.2 0 .1-.1.1-.1.1h-5.8c-.1 0-.3 0-.4-.2-.1-.1-.2-.3-.2-.5v-11.7-.1l.1-.1c.1 0 .2 0 .3-.1h.8c.1 0 .2 0 .3.1.1 0 .1.1.1.1v11h4.7c.1 0 .1.1.1.1 0 .1.1.1.1.2.1.4.1.5.1.6zM116.7 1111c0 .8-.1 1.5-.3 2.1-.2.6-.5 1.1-1 1.5-.4.4-.9.7-1.5.9s-1.3.3-2 .3-1.3-.1-1.9-.3c-.6-.2-1.1-.5-1.5-.9-.4-.4-.7-.9-.9-1.5-.2-.6-.3-1.3-.3-2.1v-7.8-.1l.1-.1c.1 0 .1 0 .3-.1h.8c.1 0 .2 0 .3.1.1 0 .1.1.1.1V1110.8c0 .6.1 1.1.2 1.5.1.4.3.8.6 1.1.3.3.6.5 1 .7s.8.2 1.3.2.9-.1 1.3-.2.7-.4 1-.6c.3-.3.5-.6.6-1.1.1-.4.2-.9.2-1.5v-7.7-.1l.1-.1c.1 0 .2 0 .3-.1h.8c.1 0 .2 0 .3.1.1 0 .1.1.1.1V1111zM129.6 1115c0 .1 0 .2-.1.3 0 .1-.1.2-.2.2s-.1.1-.2.1H128.2c-.2 0-.3 0-.5-.1-.1 0-.3-.1-.4-.2l-.4-.4c-.1-.2-.2-.4-.4-.6l-3.9-7.2-.6-1.2-.6-1.2v10.6l-.1.1c-.1 0-.2 0-.3.1h-.8c-.1 0-.2 0-.3-.1-.1 0-.1-.1-.1-.1V1103.5c0-.3.1-.4.2-.6.1-.1.3-.2.5-.2h1.3c.1 0 .2.1.4.2l.3.3c.1.1.2.3.3.5l3 5.5c.2.3.4.7.5 1s.3.6.5 1 .3.6.5.9.3.6.5.9v-1.6-8.5-.1l.1-.1c.1 0 .2 0 .3-.1h.8c.1 0 .2 0 .3.1.1 0 .1.1.1.1v12.2zM142.4 1104.7v.3c0 .1 0 .2-.1.2 0 .1-.1.1-.1.1h-.1c-.1 0-.2-.1-.4-.2s-.4-.3-.7-.4c-.3-.1-.7-.3-1.1-.4-.4-.1-.9-.2-1.5-.2-.7 0-1.3.1-1.9.4s-1 .6-1.4 1.1-.7 1-.9 1.6c-.2.6-.3 1.3-.3 2 0 .8.1 1.5.3 2.1s.5 1.2.9 1.6.9.8 1.4 1c.5.2 1.2.3 1.8.3.4 0 .8 0 1.2-.1.4-.1.8-.2 1.1-.4v-3.7h-2.9c-.1 0-.2-.1-.2-.2-.1-.1-.1-.3-.1-.5v-.3c0-.1 0-.2.1-.2 0-.1.1-.1.1-.1h4.3c.1 0 .1.1.2.1.1.1.1.1.1.2v5.1c0 .2 0 .3-.1.4-.1.1-.2.2-.4.3-.2.1-.4.2-.7.3l-.9.3c-.3.1-.6.1-1 .2s-.6.1-1 .1c-1 0-1.8-.2-2.6-.5s-1.4-.7-1.9-1.3c-.5-.6-.9-1.2-1.2-2s-.4-1.7-.4-2.6c0-1 .2-1.9.5-2.7.3-.8.7-1.5 1.3-2.1.5-.6 1.2-1 2-1.3.8-.3 1.6-.5 2.6-.5.5 0 .9 0 1.4.1.4.1.8.2 1.1.3.3.1.6.2.8.4.2.1.4.2.5.3.1.1.1.2.2.3v.6z"/></g><path fill="none" stroke="#020203" stroke-miterlimit="10" d="M155.5 893.6h-136c-5.5 0-10-4.5-10-10v-71.1c0-5.5 4.5-10 10-10h136c5.5 0 10 4.5 10 10v71.1c0 5.5-4.5 10-10 10z"/><path d="M9.5 824.5h156v18H9.5z"/><g><path d="M51.4 1062.9c.3-1.3 1.3-2.1 2.9-2.4 1.3-.3 3.5-.3 6.9 1.3.2.1 16 6.8 19 8.1.5.2.6.8.6.8 3.9 10.8 15.1 6.3 15.1 6.2-5.8.3-9.9-2.9-11.2-5.4-2.9-5.8 3.6-5 7.2-5.1 13.4-.2 13.2 3.1 20.4 5.5l10.9 4.2c.3.1.4.4.5.6.1.3 0 .5-.2.8l-.7 1c-1.8 2.5-3.9 6.5-5.7 9-.1.2-.3.3-.5.4h-.2c-.2.1-.5.1-.7 0l-8-2c-.4-.1-20.6 6.1-28.4.7l-23.9-18.1c-.9-.7-1.9-1.5-2.9-2.3-1-.6-1.4-2-1.1-3.3z" class="st10"/><path d="M56.7 1043.3c0 6.8 5.5 12.2 12.2 12.2 1.2 0 2.4-.2 3.4-.5-.4-1.2-.7-2.6-.7-4 0-5.6 3.7-10.3 8.8-11.7-1.7-4.8-6.2-8.3-11.6-8.3-6.6 0-12.1 5.5-12.1 12.3zm13.9 6.6c0 .5-.4.9-.9.9H68c-.5 0-.9-.4-.9-.9v-10.2l-1 .6c-.2.1-.5.1-.8 0-.3-.1-.4-.3-.5-.6l-.3-1.3c-.1-.4.1-.8.5-1l2.9-1.5c.1-.1.3-.1.4-.1h1.5c.5 0 .9.4.9.9l-.1 13.2z" class="st38"/><path d="M73.8 1052c0 6.6 5.3 11.9 11.9 11.9 6.6 0 11.9-5.3 11.9-11.9s-5.3-11.9-11.9-11.9c-6.5 0-11.9 5.3-11.9 11.9zm14.5 6.5c0 .5-.4.9-.9.9h-1.6c-.5 0-.9-.4-.9-.9v-9.9l-1 .5c-.2.1-.5.1-.8 0-.2-.1-.4-.3-.5-.6l-.3-1.3c-.1-.4.1-.8.4-1l2.8-1.5c.1-.1.3-.1.4-.1h1.5c.5 0 .9.4.9.9v13z" class="st38"/></g><g><path d="M33.3 990.7v.3c0 .1 0 .2-.1.2s-.1.1-.1.1H28.4v4.3h4.5l.1.1s.1.1.1.2v.6c0 .1 0 .2-.1.2s-.1.1-.1.1h-4.5V1002.2l-.1.1s-.1 0-.3.1-.2 0-.4 0h-.4c-.1 0-.2 0-.3-.1l-.1-.1V990.4c0-.3.1-.4.2-.5s.3-.2.4-.2H33.1l.1.1s.1.1.1.2v.7zM37.5 1002.4v.1l-.1.1s-.2 0-.3.1-.2 0-.4 0h-.4c-.1 0-.2 0-.3-.1l-.1-.1v-12.2-.1l.1-.1s.2 0 .3-.1.2 0 .4 0h.4c.1 0 .2 0 .3.1l.1.1v12.2zM50.5 1002c0 .1 0 .2-.1.3s-.1.2-.2.2-.1.1-.2.1H49.1c-.2 0-.3 0-.5-.1-.1 0-.3-.1-.4-.2l-.4-.4c-.2-.2-.2-.4-.4-.6l-3.9-7.2-.6-1.2-.6-1.2v10.6l-.1.1s-.2 0-.3.1h-.8c-.1 0-.2 0-.3-.1-.1 0-.1-.1-.1-.1V990.5c0-.3.1-.4.2-.6s.3-.2.5-.2h1.3c.1 0 .2.1.4.2l.3.3c.1.1.2.3.3.5l3 5.5c.2.3.4.7.5 1s.3.6.5 1 .3.6.5.9.3.6.5.9v-1.6-8.5-.1l.1-.1c.1 0 .2-.1.3-.1h.8c.1 0 .2 0 .3.1.1 0 .1.1.1.1v12.2zM63.3 1002.1c.1.1.1.3.1.3s0 .2-.1.2-.1.1-.3.1h-1.3c-.1 0-.1-.1-.1-.1l-.1-.1-1.1-3.1h-5.3l-1 3c0 .1 0 .1-.1.2l-.1.1s-.1.1-.3.1h-.9c-.2 0-.2 0-.3-.1s-.1-.1-.1-.2 0-.2.1-.3l4.2-11.7c0-.1.1-.1.1-.2s.1-.1.2-.1.2 0 .3-.1.3 0 .5 0h.5c.1 0 .2 0 .3.1s.1.1.2.1.1.1.1.2l4.5 11.6zm-5.5-10.4l-2.2 6.3H60l-2.2-6.3zM74.9 1002c0 .1 0 .2-.1.3s-.1.2-.2.2-.1.1-.2.1H73.5c-.2 0-.3 0-.5-.1-.1 0-.3-.1-.4-.2l-.4-.4c-.2-.2-.2-.4-.4-.6l-3.9-7.2-.6-1.2-.6-1.2v10.6l-.1.1s-.2 0-.3.1h-.8c-.1 0-.2 0-.3-.1-.1 0-.1-.1-.1-.1V990.5c0-.3.1-.4.2-.6s.3-.2.5-.2h1.3c.1 0 .2.1.4.2l.3.3c.1.1.2.3.3.5l3 5.5c.2.3.4.7.5 1s.3.6.5 1 .3.6.5.9.3.6.5.9v-1.6-8.5-.1l.1-.1c.1 0 .2-.1.3-.1h.8c.1 0 .2 0 .3.1.1 0 .1.1.1.1v12.2zM85.6 1002v.3c0 .1 0 .2-.1.2s-.1.1-.1.1h-7.7c-.2 0-.3-.1-.4-.2s-.2-.3-.2-.5v-.4-.2s0-.1.1-.2.1-.2.1-.3.1-.2.2-.4l5.8-9.1h-6c-.1 0-.1-.1-.1-.1s-.1-.1-.1-.2v-.3-.3c0-.1 0-.2.1-.2s.1-.1.1-.1h7.2c.2 0 .3.1.4.2s.2.3.2.5v.7c0 .1 0 .2-.1.2s-.1.2-.1.3-.1.2-.2.3l-5.8 9.1h6.2c.1 0 .2.1.3.2s.2.1.2.4zM89.3 1002.4v.1l-.1.1s-.2 0-.3.1-.2 0-.4 0h-.4c-.1 0-.2 0-.3-.1l-.1-.1v-12.2-.1l.1-.1s.2 0 .3-.1.2 0 .4 0h.4c.1 0 .2 0 .3.1l.1.1v12.2zM99.7 1002v.3c0 .1 0 .2-.1.2s-.1.1-.1.1H93.3c-.1 0-.3-.1-.4-.2s-.2-.3-.2-.5v-11.3c0-.3.1-.4.2-.5s.3-.2.4-.2h6.1l.1.1s0 .1.1.2 0 .2 0 .3v.3c0 .1 0 .2-.1.2s-.1.1-.1.1h-5v4h4.3l.1.1s.1.1.1.2v.6c0 .1 0 .2-.1.2s-.1.1-.1.1h-4.3v4.5h5.1l.1.1s.1.1.1.2v.9zM110.9 1002.4v.1l-.1.1s-.2 0-.3.1-.3 0-.5 0h-.4c-.1 0-.2 0-.3-.1s-.1-.1-.2-.1-.1-.1-.1-.2l-1.2-3c-.1-.3-.3-.6-.4-.9s-.3-.5-.5-.7-.4-.4-.7-.5-.6-.2-1-.2h-1.1v5.5l-.1.1s-.1 0-.3.1-.2 0-.4 0h-.4c-.1 0-.2 0-.3-.1l-.1-.1V990.7c0-.3.1-.4.2-.5s.3-.2.4-.2h3.5c.2 0 .4 0 .6.1.5.1.9.2 1.3.4s.7.4.9.7.4.6.6 1 .2.8.2 1.2c0 .4-.1.8-.2 1.1s-.3.6-.5.9-.5.5-.8.7-.6.3-1 .5l.6.3c.2.1.3.3.5.5s.3.4.4.7.3.5.4.9l1.1 2.8c.1.2.1.4.2.5s0 .1 0 .1zm-2.5-8.9c0-.5-.1-.9-.3-1.3s-.6-.6-1.1-.7c-.2 0-.3-.1-.6-.1h-2.2v4.3h1.6c.4 0 .8-.1 1.1-.2s.6-.3.8-.4.4-.4.5-.7.2-.6.2-.9zM122.8 998c0 .8-.1 1.5-.3 2.1s-.5 1.1-1 1.5-.9.7-1.5.9-1.3.3-2 .3-1.3-.1-1.9-.3-1.1-.5-1.5-.9-.7-.9-.9-1.5-.3-1.3-.3-2.1v-7.8-.1l.1-.1s.1 0 .3-.1.2 0 .4 0h.4c.1 0 .2 0 .3.1l.1.1V997.8c0 .6.1 1.1.2 1.5s.3.8.6 1.1.6.5 1 .7.8.2 1.3.2.9-.1 1.3-.2.7-.4 1-.6.5-.6.6-1.1.2-.9.2-1.5v-7.7-.1l.1-.1s.2 0 .3-.1.2 0 .4 0h.4c.1 0 .2 0 .3.1l.1.1V998zM135.7 1002c0 .1 0 .2-.1.3s-.1.2-.2.2-.1.1-.2.1H134.3c-.2 0-.3 0-.5-.1-.1 0-.3-.1-.4-.2l-.4-.4c-.2-.2-.2-.4-.4-.6l-3.9-7.2-.6-1.2-.6-1.2v10.6l-.1.1s-.2 0-.3.1h-.8c-.1 0-.2 0-.3-.1-.1 0-.1-.1-.1-.1V990.5c0-.3.1-.4.2-.6s.3-.2.5-.2h1.3c.1 0 .2.1.4.2l.3.3c.1.1.2.3.3.5l3 5.5c.2.3.4.7.5 1s.3.6.5 1 .3.6.5.9.3.6.5.9v-1.6-8.5-.1l.1-.1c.1 0 .2-.1.3-.1h.8c.1 0 .2 0 .3.1.1 0 .1.1.1.1v12.2zM148.6 991.7v.3c0 .1 0 .2-.1.2s-.1.1-.1.1h-.1c-.1 0-.2-.1-.4-.2s-.4-.3-.7-.4-.7-.3-1.1-.4-.9-.2-1.5-.2c-.7 0-1.3.1-1.9.4s-1 .6-1.4 1.1-.7 1-.9 1.6-.3 1.3-.3 2c0 .8.1 1.5.3 2.1s.5 1.2.9 1.6.9.8 1.4 1 1.2.3 1.8.3c.4 0 .8 0 1.2-.1s.8-.2 1.1-.4V997h-2.9c-.1 0-.2-.1-.2-.2s-.1-.3-.1-.5v-.3c0-.1 0-.2.1-.2s.1-.1.1-.1h4.3c.1 0 .1.1.2.1s.1.1.1.2v5.1c0 .2 0 .3-.1.4s-.2.2-.4.3-.4.2-.7.3l-.9.3c-.3.1-.6.1-1 .2s-.6.1-1 .1c-1 0-1.8-.2-2.6-.5s-1.4-.7-1.9-1.3-.9-1.2-1.2-2-.4-1.7-.4-2.6c0-1 .2-1.9.5-2.7s.7-1.5 1.3-2.1 1.2-1 2-1.3 1.6-.5 2.6-.5c.5 0 .9 0 1.4.1s.8.2 1.1.3.6.2.8.4.4.2.5.3.1.2.2.3 0 .4 0 .6z"/></g><path d="M52.1 941.9v-9.1h2.4c.7 0 1.2-.2 1.7-.5 10.2-6.9 20.3-13.9 30.5-20.8.6-.4 1-.4 1.6 0 9.5 6.5 19.1 13 28.6 19.6 1.9 1.3 3.7 2.2 6 1.8h.1v9.1c-.8.1-1.7.1-2.5.2v31.9h2.5v5.5h-14.2V974h2.4v-20.7H92.3v20.8h2.4v5.5H80.6V974H83v-20.8H64.7c-.7 0-.7.3-.7.8v19.2c0 .3 0 .5.1.9h2.4v5.5H52.3v-5.5h2.5v-31.9c-1.1-.2-1.9-.3-2.7-.3zm32.1-11.1c.5-2.7 2.8-4.6 5.6-4.7 1.7-.1 3.4.3 5 .9.4-1.6.8-3.1 1.1-4.6-4-1.5-7.9-1.8-11.7.1-3.1 1.6-5.2 4.1-6.1 7.5-.2.6-.4.9-1.1.8-.6-.1-1.2 0-1.9 0v3h2.1v1.8h-2.1v2.9h2.6c2 9.9 12.6 11.6 18.4 8.2-.3-1.4-.6-2.9-1-4.4-.3.1-.5.2-.7.2-2.2.8-4.4 1-6.7.3-2.1-.7-3.2-2.2-3.7-4.4h10v-2.9H83.5v-1.8H94v-2.9h-9.8z" class="st38"/><g><path d="M99.8 697.9H88.6c-.6 0-1.1-.5-1.1-1.1 0-.6.5-1.1 1.1-1.1h11.2c.6 0 1.1.5 1.1 1.1 0 .6-.5 1.1-1.1 1.1zM99.8 704.6H77.5c-.6 0-1.1-.5-1.1-1.1 0-.6.5-1.1 1.1-1.1h22.3c.6 0 1.1.5 1.1 1.1 0 .6-.5 1.1-1.1 1.1zM99.8 711.3H77.5c-.6 0-1.1-.5-1.1-1.1 0-.6.5-1.1 1.1-1.1h22.3c.6 0 1.1.5 1.1 1.1 0 .6-.5 1.1-1.1 1.1zM99.8 718H77.5c-.6 0-1.1-.5-1.1-1.1 0-.6.5-1.1 1.1-1.1h22.3c.6 0 1.1.5 1.1 1.1 0 .6-.5 1.1-1.1 1.1z" class="st10"/><path d="M117.4 710.7l-9.8-4.2v-13.1c0-2.5-2-4.5-4.5-4.5H71.9c-2.5 0-4.5 2-4.5 4.5v5.6c0 .6.5 1.1 1.1 1.1s1.1-.5 1.1-1.1v-5.6c0-1.2 1-2.2 2.2-2.2H103c1.2 0 2.2 1 2.2 2.2V719l-17.8 10.2c-.5.3-.7 1-.4 1.5.3.5 1 .7 1.5.4l27.9-15.9v22.9c0 1.2-1 2.2-2.2 2.2H88.6c-.6 0-1.1.5-1.1 1.1 0 .6.5 1.1 1.1 1.1h25.7c2.5 0 4.5-2 4.5-4.5v-25.3c-.1-.8-.6-1.6-1.4-2zm-9.8 7V709l8.7 3.7-8.7 5z" class="st10"/><path d="M76.3 726.9c-.8 0-1.5.1-2.2.2V708c0-3.2-3.8-5.6-8.9-5.6s-8.9 2.3-8.9 5.6v26.8c0 3.2 3.8 5.6 8.9 5.6.8 0 1.5-.1 2.2-.2v1.3c0 3.2 3.8 5.6 8.9 5.6s8.9-2.3 8.9-5.6v-8.9c.1-3.3-3.7-5.7-8.9-5.7zm-11.1-22.3c3.7 0 6.7 1.5 6.7 3.3s-3 3.3-6.7 3.3-6.7-1.5-6.7-3.3 3-3.3 6.7-3.3zm-6.6 7.3c1.6 1.1 3.9 1.7 6.5 1.7 2.7 0 5-.6 6.5-1.7.1.2.1.4.1.6 0 1.8-3 3.3-6.7 3.3s-6.7-1.5-6.7-3.3c.2-.3.3-.5.3-.6zm0 4.4c1.6 1.1 3.9 1.7 6.5 1.7 2.7 0 5-.6 6.5-1.7.1.2.1.4.1.6 0 1.8-3 3.3-6.7 3.3s-6.7-1.5-6.7-3.3c.2-.2.3-.4.3-.6zm0 4.5c1.6 1.1 3.9 1.7 6.5 1.7 2.7 0 5-.6 6.5-1.7.1.2.1.4.1.6 0 1.8-3 3.3-6.7 3.3s-6.7-1.5-6.7-3.3c.2-.3.3-.4.3-.6zm0 4.4c1.6 1.1 3.9 1.7 6.5 1.7 2.7 0 5-.6 6.5-1.7.1.2.1.4.1.6 0 1.8-3 3.3-6.7 3.3s-6.7-1.5-6.7-3.3c.2-.2.3-.4.3-.6zm0 4.5c1.6 1.1 3.9 1.7 6.5 1.7.9 0 1.7-.1 2.5-.2-.2.4-.2.9-.2 1.3v.9c-.7.1-1.4.2-2.2.2-3.7 0-6.7-1.5-6.7-3.3 0-.2.1-.4.1-.6zm6.6 8.4c-3.7 0-6.7-1.5-6.7-3.3 0-.2.1-.4.1-.6 1.6 1.1 3.9 1.7 6.5 1.7.8 0 1.5-.1 2.2-.2v2.2c-.6.1-1.3.2-2.1.2zm11.1 6.7c-3.7 0-6.7-1.5-6.7-3.3 0-.2.1-.4.1-.6 1.6 1.1 3.9 1.7 6.5 1.7s5-.6 6.5-1.7c.1.2.1.4.1.6.2 1.8-2.8 3.3-6.5 3.3zm0-4.5c-3.7 0-6.7-1.5-6.7-3.3 0-.2.1-.4.1-.6 1.6 1.1 3.9 1.7 6.5 1.7s5-.6 6.5-1.7c.1.2.1.4.1.6.2 1.8-2.8 3.3-6.5 3.3zm0-4.5c-3.7 0-6.7-1.5-6.7-3.3s3-3.3 6.7-3.3 6.7 1.5 6.7 3.3-3 3.3-6.7 3.3z" class="st10"/></g><g><path d="M172.2 2203.8c-.2.1-.4.2-.5.2-2 .3-3.9.6-5.9.8-1.3.2-2.5.3-3.8.5-1.5.2-3 .4-4.6.6-1.2.1-2.5.3-3.7.5-.2 0-.5.2-.6-.2.3-.7 0-1.4-.1-2.2-.4-3.2-.8-6.3-1.2-9.5-.3-2.1-.6-4.2-.8-6.4h.3c1 .4 1.8 1.1 2.6 1.7 5.9 4.2 11.8 8.5 17.7 12.7.3.2.5.4.7.6-.1.4-.1.5-.1.7z" class="st40"/><path fill="#d1133a" d="M152.6 2213.8c-2.2 1.2-4.4 2.3-6.6 3.5l-5.1 2.7h-.3c.8-1.6 1.8-3.1 2.6-4.7l.9-1.5c.3-.2.6-.2 1-.2h6.6c.2 0 .6 0 .9.2z"/><path d="M131.9 2208.2c1.2-2.1 2.3-4 3.4-5.9.7-1.3 1.5-2.6 2.2-3.9.2-.3.4-.5.8-.5h2.1c.1.3-.1.5-.3.7-2.4 4.2-4.9 8.4-7.3 12.6-.3.5-.6.7-1.2.7-1.7 0-1.7 0-1.8-1.7-.1-2.7-.3-5.3-.5-8-1.1 1.8-2.1 3.7-3.2 5.5-.7 1.2-1.4 2.5-2.1 3.7-.2.3-.4.5-.8.5-.6-.1-1.4.2-1.8-.1-.4-.4-.2-1.2-.2-1.8-.3-3.8-.5-7.5-.8-11.3-.1-.6.2-.7.7-.7 1.5 0 1.5 0 1.6 1.5.2 2.8.3 5.5.5 8.3v.6c.6-1 1.1-1.8 1.5-2.6 1.3-2.3 2.6-4.5 3.8-6.8.4-.8.9-1 1.7-1 .8 0 1 .2 1 1 .1 3 .3 6 .4 8.9.3 0 .3.1.3.3zM54.8 2201.7c-1.5 2.6-2.9 5.1-4.4 7.7-.4.6-.8 1.3-1.1 1.9-.2.4-.4.5-.9.5-1.6 0-1.6 0-1.6-1.6-.1-2.8-.3-5.6-.4-8.5-.3.1-.3.4-.5.6-1.7 3-3.5 6-5.2 9.1-.2.4-.5.5-.9.5h-2.1c1-1.7 1.9-3.4 2.9-5 1.6-2.7 3.2-5.4 4.7-8.2.3-.6.7-.7 1.3-.7 1.7 0 1.7 0 1.7 1.7.1 2.6.2 5.2.4 7.9 0 .1 0 .1.1.3.9-1.6 1.8-3.2 2.8-4.8.8-1.5 1.7-3 2.5-4.5.2-.4.5-.6 1-.6 1.8 0 1.8 0 1.9 1.8.2 3.7.5 7.4.8 11.1v.6c0 .3-.1.5-.4.4h-.1c-1.9.1-1.9.1-2-1.9-.1-2.7-.3-5.5-.4-8.2 0 0 0-.1-.1-.1z" class="st40"/><path d="M27.5 2198h2c.4 0 .5.3.6.5 1.1 2.4 2.1 4.8 3.3 7.2.6-1 1.1-1.9 1.6-2.8.9-1.5 1.7-3 2.6-4.4.2-.4.5-.5.9-.5h1.8c.1.3-.1.4-.2.6-2.5 4.3-5 8.5-7.4 12.8-.2.4-.5.6-.9.5h-1.9c.7-1.1 1.3-2.2 1.9-3.3.3-.4.3-.8 0-1.2-1.4-3.1-2.8-6.2-4.3-9.4z" class="st42"/><path fill="#cc1439" d="M152.6 2213.8h-8.5c.2-.5.5-1 .8-1.4.3-.2.7-.2 1-.2h7.9c.4 0 .9-.1 1.1.4-.6.5-1.5.9-2.3 1.2z"/><path fill="#a31932" d="M165.6 2207.1c-.3.3-.8.3-1.1.6-.6.2-1.1.2-1.7.2h-13.9c-.4 0-.9.1-1.2-.2 0-.3.3-.5.4-.7.3-.2.6-.2.9-.2h15.8c.3-.1.7-.2.8.3z"/><path fill="#aa1934" d="M147.7 2207.7h16.8c-.5.4-1.1.6-1.6.8-.5.1-.9.1-1.4.1h-13.1c-.4 0-.8.1-1.2-.2.1-.3.3-.5.5-.7z"/><path fill="#b11935" d="M147.3 2208.4H162c.3 0 .6 0 .9.1-.3.3-.7.4-1.1.6-.5.2-1.1.2-1.6.2h-12.3c-.3 0-.7.1-1-.2 0-.3.2-.5.4-.7z"/><path fill="#981930" d="M153.2 2206.3c1.2 0 2.4-.3 3.6-.4.2 0 .5 0 .7-.1 3.1-.1 6.1-.1 9.2-.1.4 0 .8-.1 1.2.2-.3.3-.7.4-1.1.6-.4.2-.8.2-1.2.2h-16.2c-.3 0-.8.2-1-.3 0-.2.1-.3.3-.4 1.3-.4 2.5-.3 3.8 0 .2 0 .4.2.7.3z"/><path fill="#c11737" d="M159.2 2210.4c-.5.3-1 .6-1.6.8-.2.1-.5.1-.8.1h-10.1c-.2 0-.5 0-.7-.1-.2-.1-.3-.2-.2-.4.1-.1.2-.3.3-.4.3-.2.6-.2.9-.2h11.4c.3 0 .6-.1.8.2z"/><path fill="#c71638" d="M155 2212.6c-.3-.2-.6-.2-1-.2h-9.2c.1-.3.3-.6.5-.8.3-.1.6-.1.8-.1h9.4c.4 0 .8-.1 1.1.2-.4.3-.9.7-1.6.9z"/><path fill="#9f1931" d="M148.4 2206.4c.2.2.5.1.8.1h17.5c-.3.3-.8.4-1.1.6-.2-.3-.5-.1-.8-.1h-16.7c0-.3.2-.5.3-.6z"/><path fill="#c51738" d="M156.7 2211.7h-10.5c-.3 0-.6.1-.8-.1.1-.3.2-.5.4-.7.1.4.4.3.7.3h9.9c.4 0 .8 0 1.1.1-.2.1-.4.3-.8.4z"/><path fill="#b61936" d="M146.8 2209.1h14.9c-.3.3-.7.4-1.1.6-3.6.1-7.1 0-10.7.1h-2.5c-.3 0-.7.1-.7-.4 0-.1.1-.2.1-.3z"/><path fill="#b91836" d="M146.7 2209.4c.2.3.5.2.8.2h12.3c.3 0 .6-.1.8.2-.1.2-.3.3-.6.3-.5.2-1 .2-1.5.2h-11.1c-.3 0-.8.2-1-.3.1-.4.1-.5.3-.6z"/><path fill="#bc1837" d="M146.4 2209.8c.2.2.5.1.8.1H160c-.2.2-.5.3-.8.4h-13.1c0-.1.1-.3.3-.5z"/><path fill="#931a30" d="M152.5 2205.9h-3.8c0-.2.2-.4.3-.6.8-.4 1.6-.2 2.4-.1.4.2.8.4 1.1.7z"/><path fill="#8b1a2e" d="M151.4 2205.2c-.8.3-1.6.1-2.4.1.8-1.5.6-1.3 1.8-.5.2.2.4.3.6.4z"/><path fill="#92182f" d="M167.8 2206h-9.6c-.3 0-.6.1-.8-.1 1.5-.2 3-.5 4.6-.6 2-.1 4-.1 6-.1.3 0 .7-.1.9.2-.3.3-.7.4-1.1.6z"/><path fill="#8b182d" d="M169 2205.4h-6.2c-.2 0-.5.1-.7-.1 1.2-.3 2.5-.4 3.7-.5.8.2 1.7 0 2.5 0 .5 0 1-.1 1.5.2-.2.2-.5.3-.8.4z"/><path fill="#85182d" d="M169.8 2204.9h-3.3c-.3 0-.6.1-.8-.3 1.7-.2 3.3-.5 5-.7.3 0 .6-.1.9.1-.5.3-1.2.6-1.8.9z"/><path d="M13 2201.5c-.4-2.2-2.2-3.4-4.7-3.4H2.8v13.8h1.8c.4 0 .5-.1.5-.5v-3.2c0-.6.1-.8.8-.8.9.1 1.9.1 2.8 0 3.2-.3 5-2.6 4.3-5.9zm-4.4 3.7c-1 .1-2 0-3.1 0-.4 0-.4-.2-.4-.5v-2-2c0-.3.1-.5.4-.5 1.1 0 2.1 0 3.2.1 1.4.1 2.1 1.1 2.1 2.6 0 1.2-1 2.2-2.2 2.3z" class="st42"/><path d="M66.7 2198c-3.7.8-6.3 4.1-6.3 8.1-.1.7.1 1.5.4 2.2 1.1 3.2 4.7 4.7 8.1 3.3 3-1.2 4.7-3.6 5.1-6.8.6-4.4-2.7-7.7-7.3-6.8zm2.1 11.2c-1.3.8-2.8.9-4.2.2-1.4-.8-1.8-2.1-1.8-3.6 0-2.7 1.8-5.1 4.3-5.7 2.3-.5 4.3.9 4.5 3.2.3 2.6-.6 4.6-2.8 5.9zM88.4 2201c-.3-1.6-1.6-2.5-3.6-2.8-1.8-.2-3.5 0-5.3-.1-.5 0-.7.1-.8.6-1 3.8-1.9 7.7-2.9 11.5-.1.5-.6 1.2-.3 1.5.3.4 1 .1 1.6.1.5.1.7-.2.8-.6l.9-3.6c.1-.3.2-.6.7-.5.6.1 1.2 0 1.9 0 .4 0 .6.1.8.5.4.8.8 1.6 1.2 2.5 1 2 1 2 3.2 1.8h.1v-.1c-.7-1.4-1.4-2.9-2.1-4.3-.2-.5-.1-.6.3-.7.7-.1 1.3-.4 1.9-.8 1.3-1.2 2.1-3.1 1.6-5zm-3.6 3.4c-.6.3-1.2.5-1.8.5h-3.6c.4-1.4.7-2.8 1.1-4.2.1-.3.2-.4.5-.4h3c1.2.1 1.9.6 2.1 1.5.2.9-.3 2-1.3 2.6zM110.6 2198c-3.7.8-6.3 4.1-6.3 8.1-.1.5 0 1.1.2 1.8 1 3.5 4.7 5.2 8.3 3.7 3-1.2 4.7-3.6 5.1-6.8.6-4.4-2.6-7.8-7.3-6.8zm4.9 7.2c-.5 2.1-1.6 3.8-3.8 4.5-.4.1-.8.1-1.2.2-2.3 0-3.9-1.5-3.8-3.9 0-2.1.9-3.8 2.6-5 1.5-1.1 3.4-1.1 4.8-.2 1.2.7 1.8 2.6 1.4 4.4z" class="st40"/><path d="M27.1 2211.2c-1.8-4-3.6-7.9-5.3-11.9-.4-1-1-1.5-2.1-1.3-.5.1-.7.2-.9.6-.6 1.3-1.2 2.6-1.7 3.9l-4.2 9.3c2.3.2 2.3.2 3.3-1.8.2-.3.8-1.5.8-1.5h6.5s.2.6.8 1.8c.3 1.3 1.2 1.8 2.5 1.6.6-.1.5-.2.3-.7zm-9.5-4.9c.8-1.9 1.6-3.7 2.5-5.7.9 2 1.7 3.8 2.5 5.7h-5z" class="st42"/><path d="M102.3 2201c-.3-1.6-1.6-2.5-3.6-2.8-1.8-.2-3.5 0-5.3-.1-.5 0-.7.1-.8.6-1 3.8-1.9 7.7-2.9 11.5-.1.5-.6 1.2-.3 1.5.3.4 1 .1 1.6.1.5.1.7-.2.8-.6l.9-3.6c.1-.3.2-.6.7-.5.6.1 1.2 0 1.9 0 .4 0 .6.1.8.5.4.8.8 1.6 1.2 2.5 1 2 1 2 3.2 1.8h.1v-.1c-.7-1.4-1.4-2.9-2.1-4.3-.2-.5-.1-.6.3-.7.7-.1 1.3-.4 1.9-.8 1.3-1.2 2.1-3.1 1.6-5zm-3.5 3.4c-.6.3-1.2.5-1.8.5h-3.6c.4-1.4.7-2.8 1.1-4.2.1-.3.2-.4.5-.4h3c1.2.1 1.9.6 2.1 1.5.1.9-.4 2-1.3 2.6z" class="st40"/></g><g id="Badges"><g id="DE" transform="translate(-24 -116)"><g id="Badge-_x2F_-de_x5F_de-_x2F_-pay_x5F_now-_x2F_-descriptive-_x2F_pink" transform="translate(24 116)"><g id="BG-_x2F_-Radius-5"><defs><filter id="Adobe_OpacityMaskFilter" width="96" height="64" x="39.9" y="364.3" filterUnits="userSpaceOnUse"><feColorMatrix values="1 0 0 0 0 0 1 0 0 0 0 0 1 0 0 0 0 0 1 0"/></filter></defs><mask id="mask-2_1_" width="96" height="64" x="39.9" y="364.3" maskUnits="userSpaceOnUse"><g filter="url(#Adobe_OpacityMaskFilter)"><path id="path-1_1_" d="M44.9 364.3h86c2.8 0 5 2.2 5 5v54c0 2.8-2.2 5-5 5h-86c-2.8 0-5-2.2-5-5v-54c0-2.7 2.2-5 5-5z" class="st2"/></g></mask><g id="Color-_x2F_-Pink" mask="url(#mask-2_1_)"><path id="BG_1_" fill="#eb7194" d="M39.9 364.3h96v64h-96z"/></g></g><path id="Sofort." d="M68.7 421.5c2.2 0 3.8-1.5 3.8-3.6 0-2-1.4-2.8-3.1-3.4-1.1-.3-1.8-.6-1.8-1.3 0-.7.5-1.2 1.2-1.2.6 0 1.1.4 1.5.9l1.8-1.1c-.6-1.2-1.8-1.9-3.2-1.9-2.2 0-3.6 1.6-3.6 3.4 0 1.4.9 2.6 3 3.2 1.2.3 1.9.6 1.9 1.5s-.6 1.4-1.5 1.4c-1 0-1.7-.6-2.2-1.2l-1.5 1.5c.9 1.1 2.2 1.8 3.7 1.8zm8.8 0c-2.3 0-4.2-1.8-4.2-4.1 0-2.2 1.9-4.1 4.2-4.1 2.3 0 4.2 1.8 4.2 4.1s-1.9 4.1-4.2 4.1zm0-2c1.1 0 2-.9 2-2 0-1.2-.9-2-2-2s-2 .9-2 2 .9 2 2 2zm9.6-7.3v-2h-.3c-2.7 0-4 1.8-4 3.8v7.4H85v-3.2c0-1.1.8-1.8 2-1.9v-2.1c-.9 0-1.6.3-2 .8v-.8c0-1.5.8-2.1 2.1-2zm4.7 9.3c-2.3 0-4.2-1.8-4.2-4.1 0-2.2 1.9-4.1 4.2-4.1 2.3 0 4.2 1.8 4.2 4.1s-1.9 4.1-4.2 4.1zm0-2c1.1 0 2-.9 2-2 0-1.2-.9-2-2-2s-2 .9-2 2 .9 2 2 2zm7.5-5v-.9h-2.1v7.7h2.2v-3.5c0-1.3.8-2 2.1-2v-2.3c-1.1-.1-1.8.3-2.2 1zm5.5 2.9v-1.9c.5.5 1.2.8 2 .8v-2.1c-1.2 0-2-.8-2-1.9v-1.2h-2.2v6.4c0 2.1 1.3 3.8 4 3.8h.3v-2c-1.2 0-2.1-.6-2.1-1.9zm4.7 4.1c.8 0 1.5-.7 1.5-1.5s-.7-1.5-1.5-1.5-1.5.7-1.5 1.5c.1.8.7 1.5 1.5 1.5z" class="st2"/><g id="Icons-_x2F_-Pay-now-_x2F_-White" transform="translate(36 5)"><path id="_Path_" d="M48.4 389.1c.7.7.7 1.8 0 2.4l-.1.1c-.7.7-1.8.7-2.4 0l-3.8-3.8c-1.1-1.1-1.2-2.4-.5-3.1l.1-.1c.6-.6 1.5-.6 2.1-.1.3.2.7.2 1-.1.2-.3.2-.7-.1-1-1.2-.9-2.9-.8-3.9.3l-.1.1c-1.2 1.3-1 3.4.6 5l3.8 3.8c1.2 1.2 3.2 1.2 4.4-.1l.1-.1c1.2-1.2 1.2-3.2-.1-4.4-.3-.3-.7-.3-1 0s-.3.8-.1 1.1z" class="st2"/><path id="_Path_2" d="M46.1 368.5l1.6 12.9c0 .4.4.6.8.6s.6-.4.6-.8l-1.6-13v-.1c-.3-1.1.4-2.3 1.3-2.5.5-.1 1 0 1.4.3.4.3.7.7.8 1.2l2.7 11.7c.1.4.5.6.8.5s.6-.5.5-.8l-2.7-11.7c-.2-.8-.7-1.6-1.4-2.1s-1.6-.7-2.5-.5c-1.6.5-2.7 2.5-2.3 4.3z" class="st2"/><path id="_Path_3" d="M60.6 383.6l3.1-15.5c.4-1.7-.6-3.3-2.3-3.8-1.8-.5-3.7.6-4.2 2.4l-3.4 11.8c-.1.4.1.7.5.9.4.1.7-.1.9-.5l3.4-11.8c.3-1.1 1.4-1.7 2.5-1.5.9.3 1.5 1.2 1.3 2.2l-3.1 15.5c-.1.4.2.7.5.8.4.2.7-.1.8-.5z" class="st2"/><path id="Shape" d="M52.8 398.6c-4.9 0-9-3.6-9-8.7 0-.4-.3-.7-.7-.7-.4 0-.7.3-.7.7 0 5.9 4.8 10.1 10.4 10.1.4 0 .7-.3.7-.7 0-.4-.4-.7-.7-.7z" class="st2"/><path id="_Path_4" d="M50.3 386.5c-.1.4-.3.7-.7 1l-.1.1c-.8.5-1.9.3-2.4-.5l-3-4.5c-.8-1.3-.7-2.6.1-3.1l.1-.1c1-.6 1.9-.1 2.8 1.2l2.5 3.8c.2.3.6.4 1 .2.3-.2.4-.6.2-1l-2.5-3.8c-1.2-1.8-2.8-2.6-4.6-1.5l-.2.1c-1.5 1-1.7 3.2-.5 5l3 4.5c1 1.4 2.9 1.8 4.3.8l.2-.1c.6-.4 1-1 1.2-1.7.1-.4-.1-.7-.5-.8-.4-.2-.8 0-.9.4z" class="st2"/><path id="Shape_1_" d="M54.9 388.8c-1.4.8-2.3 2.3-2.4 4.6 0 .4.3.7.7.7.4 0 .7-.3.7-.7.1-2.1.9-3.2 2.2-3.7.7-.3 1.5-.3 2.1-.2h.2c.9.2 1.2-1.2.3-1.4l-5.3-1.2c-2.5-.7-2.9-1.6-2.4-3.1.2-.7.6-1 1.2-1.1.4-.1.9-.1 1.3 0 .1 0 .2 0 .3.1l8.1 1.9c.1 0 .1 0 .2.1s.3.2.4.3c.5.6.8 1.7.7 3.5-.5 6.3-3.4 10.2-10.4 10.1-.4 0-.7.3-.7.7 0 .4.3.7.7.7 7.8.1 11.2-4.5 11.8-11.4.2-2.1-.2-3.6-1.1-4.5-.5-.5-.9-.7-1.3-.8l-8-1.9c-.1 0-.2 0-.4-.1-.6-.1-1.2-.1-1.8 0-1.1.2-1.9.9-2.2 2.1-.7 2.2 0 4 3.4 4.9l1.7.4z" class="st2"/></g></g></g></g><g><path d="M111.2 2331.6c-1.3.6-2.9.3-4-.8l-12.9-12.9c-.8-.8-1.1-1.9-1.1-3v-2L79.3 2299c-2.1-2.1-1.4-5.9 1.9-6.4l7.7-1.1-3.7-6.5c-1.3-1.9-.5-4.7 1.8-5.5l23.9-8.8c1.7-.6 3.7-.1 4.6 1.6l3.9 6.8 6.4-7.5c1.5-1.7 3.8-2.4 5.7-.6l14.9 14.9c1.4 1.4 1.7 3.5.3 5.1l-9.2 10.8v17.5c0 1.6-1.1 3-2.6 3.5l-23.7 8.8zM43.6 2310.4h30.5c1.1 0 2.1.9 2.1 2.1v.1c0 1.1-.9 2.1-2.1 2.1H43.6c-1.1 0-2.1-.9-2.1-2.1v-.1c0-1.2 1-2.1 2.1-2.1zM52.2 2319.9h30.5c1.1 0 2.1.9 2.1 2.1v.1c0 1.1-.9 2.1-2.1 2.1H52.2c-1.1 0-2.1-.9-2.1-2.1v-.1c.1-1.2 1-2.1 2.1-2.1zM29.5 2327.6H60c1.1 0 2.1.9 2.1 2.1v.1c0 1.1-.9 2.1-2.1 2.1H29.5c-1.1 0-2.1-.9-2.1-2.1v-.1c0-1.2.9-2.1 2.1-2.1z" class="st63"/><path d="M120.2 2288.4v15.2l11.1-4.1-2.4-2.3zM117.9 2304.4l-.1-16.8-20.5 7.6 12.3 12.3zM98.8 2313.9l7.8 7.7v-8.8zM91.2 2296.1l-6.7 1.1 12.1 12.1 6.8-1.1zM90.7 2283.3l4 7.2 20.9-7.8-4-7.3zM129.2 2275.5l-7.1 8.2 13.1 12.7 7.2-8.2zM132.8 2303.6l-21.2 7.9v15.1l21.2-7.9z" class="st64"/></g><g><path d="M42.4 2348.7c0 .6-.1 1.2-.3 1.7-.2.5-.5.9-.9 1.3s-.9.6-1.4.8c-.6.2-1.2.3-2 .3h-1.4V2357.5l-.1.1c-.1 0-.1 0-.3.1s-.2 0-.4 0h-.4c-.1 0-.2 0-.3-.1-.1 0-.1-.1-.1-.1V2345.7c0-.3.1-.4.2-.6s.3-.2.5-.2h3.3c.3 0 .5.1.9.1s.7.2 1 .4c.4.2.7.5.9.8.2.3.4.6.6 1 .1.6.2 1 .2 1.5zm-1.8.2c0-.5-.1-.9-.3-1.3-.2-.3-.4-.6-.7-.8s-.6-.3-.9-.3-.6-.1-.9-.1h-1.6v5.1h1.5c.5 0 .9-.1 1.3-.2.3-.1.6-.3.8-.5.2-.2.4-.5.5-.8s.3-.8.3-1.1zM52.9 2357.1c.1.1.1.3.1.3 0 .1 0 .2-.1.2s-.1.1-.3.1h-1.3c-.1 0-.1-.1-.1-.1l-.1-.1-1.1-3.1h-5.3l-1 3c0 .1 0 .1-.1.2l-.1.1c-.1 0-.2.1-.3.1h-.9c-.1 0-.2 0-.3-.1s-.1-.1-.1-.2 0-.2.1-.3l4.2-11.7c0-.1.1-.1.1-.2 0 0 .1-.1.2-.1s.2 0 .3-.1.3 0 .5 0h.5c.1 0 .2 0 .3.1.1 0 .1.1.2.1 0 0 .1.1.1.2l4.5 11.6zm-5.4-10.4l-2.2 6.3h4.4l-2.2-6.3zM63.3 2357.4v.1l-.1.1c-.1 0-.2 0-.3.1h-1c-.1 0-.3-.1-.3-.1l-.2-.2-4.6-6.3V2357.5l-.1.1c-.1 0-.2 0-.3.1s-.2 0-.4 0h-.4c-.1 0-.2 0-.3-.1-.1 0-.1-.1-.1-.1v-12.2-.1l.1-.1c.1 0 .2 0 .3-.1h.8c.1 0 .2 0 .3.1.1 0 .1.1.1.1V2350.9l4.5-5.6c0-.1.1-.1.1-.1.1 0 .1-.1.2-.1s.2 0 .3-.1.2 0 .4 0h.4c.1 0 .2 0 .2.1.1 0 .1.1.1.1v.1c0 .1 0 .2-.1.3 0 .1-.1.2-.2.4l-4.2 5 4.5 6c.1.2.2.3.2.3.1 0 .1 0 .1.1zM72.5 2357v.3c0 .1 0 .2-.1.2 0 .1-.1.1-.1.1H66c-.2 0-.3-.1-.4-.2-.1-.1-.2-.3-.2-.5v-11.3c0-.3.1-.4.2-.5.1-.1.3-.2.4-.2h6.1l.1.1c0 .1 0 .1.1.2v.6c0 .1 0 .2-.1.2 0 .1-.1.1-.1.1h-5v4h4.3l.1.1s0 .1.1.2v.6c0 .1 0 .2-.1.2s-.1.1-.1.1h-4.3v4.5h5.1l.1.1c0 .1.1.1.1.2 0 .6.1.7.1.9zM83.1 2345.7v.3c0 .1 0 .2-.1.2s-.1.1-.1.1h-3.7v11.1l-.1.1c-.1 0-.2 0-.3.1s-.2 0-.4 0H78c-.1 0-.2 0-.3-.1-.1 0-.1-.1-.1-.1v-11.1h-3.7l-.1-.1c0-.1 0-.1-.1-.2v-.3-.3c0-.1 0-.2.1-.2 0-.1.1-.1.1-.1h9l.1.1s0 .1.1.2v.3zM94.7 2351.2c0 1.1-.1 2-.4 2.9-.3.8-.7 1.5-1.2 2s-1.2.9-2 1.2-1.7.4-2.8.4h-2.7c-.2 0-.3-.1-.4-.2-.1-.1-.2-.3-.2-.5v-11.3c0-.3.1-.4.2-.5.1-.1.3-.2.4-.2h2.9c1.1 0 2 .1 2.8.4.8.3 1.4.7 1.9 1.2s.9 1.2 1.2 1.9.3 1.7.3 2.7zm-1.8 0c0-.7-.1-1.3-.3-1.9-.2-.6-.4-1.1-.8-1.5s-.8-.8-1.4-1c-.6-.2-1.3-.4-2.1-.4h-1.7v9.8h1.7c.8 0 1.5-.1 2-.3.6-.2 1-.5 1.4-.9s.6-.9.8-1.6.4-1.3.4-2.2zM98.9 2357.4v.1l-.1.1c-.1 0-.2 0-.3.1s-.2 0-.4 0h-.4c-.1 0-.2 0-.3-.1-.1 0-.1-.1-.1-.1v-12.2-.1l.1-.1s.2 0 .3-.1.2 0 .4 0h.4c.1 0 .2 0 .3.1.1 0 .1.1.1.1v12.2zM109.3 2357v.3c0 .1 0 .2-.1.2 0 .1-.1.1-.1.1H102.9c-.2 0-.3-.1-.4-.2-.1-.1-.2-.3-.2-.5v-11.3c0-.3.1-.4.2-.5.1-.1.3-.2.4-.2h6.1l.1.1c0 .1 0 .1.1.2v.6c0 .1 0 .2-.1.2 0 .1-.1.1-.1.1h-5v4h4.3l.1.1s0 .1.1.2v.6c0 .1 0 .2-.1.2s-.1.1-.1.1H104v4.5h5.1l.1.1c0 .1.1.1.1.2v.9zM121.6 2357c0 .1 0 .2-.1.3 0 .1-.1.2-.2.2-.1.1-.2.1-.2.1H120.2c-.2 0-.3 0-.5-.1-.1 0-.3-.1-.4-.2l-.4-.4c-.1-.2-.2-.4-.4-.6l-3.9-7.2-.6-1.2-.6-1.2v10.6l-.1.1s-.2 0-.3.1-.2 0-.4 0h-.4c-.1 0-.2 0-.3-.1l-.1-.1V2345.5c0-.3.1-.4.2-.6.1-.1.3-.2.5-.2h1.3c.1 0 .2.1.4.2l.3.3c.1.1.2.3.3.5l3 5.5c.2.3.4.7.5 1s.3.6.5 1c.2.3.3.6.5.9s.3.6.5.9v-1.6-8.5-.1l.1-.1s.2-.1.3-.1h.8c.1 0 .2 0 .3.1.1 0 .1.1.1.1v12.2zM131.7 2354.1c0 .6-.1 1.1-.3 1.6-.2.5-.5.9-.9 1.2-.4.3-.8.6-1.4.7-.5.2-1.1.2-1.7.2-.4 0-.8 0-1.2-.1s-.7-.2-1-.3-.5-.2-.7-.3c-.2-.1-.3-.2-.4-.3-.1-.1-.1-.2-.2-.3 0-.1-.1-.3-.1-.5v-.4c0-.1 0-.2.1-.2 0-.1.1-.1.1-.1h.1c.1 0 .2.1.4.2s.4.2.6.4c.3.1.6.3.9.4.4.1.8.2 1.3.2.4 0 .7 0 1-.1s.6-.2.8-.4c.2-.2.4-.4.5-.7s.2-.6.2-.9c0-.4-.1-.7-.2-.9-.2-.3-.4-.5-.6-.7-.3-.2-.6-.4-.9-.5s-.7-.3-1-.5c-.4-.2-.7-.3-1-.6-.3-.2-.6-.4-.9-.7-.3-.3-.5-.6-.6-1s-.2-.8-.2-1.3.1-1 .3-1.4c.2-.4.5-.8.8-1s.7-.5 1.2-.6c.5-.1 1-.2 1.5-.2.3 0 .6 0 .8.1s.5.1.8.2c.3.1.5.2.7.3s.3.2.4.2l.1.1v1.1s0 .1-.1.1h-.1c-.1 0-.2 0-.3-.1-.2-.1-.3-.2-.6-.3-.2-.1-.5-.2-.8-.3s-.6-.1-1-.1-.7 0-.9.1c-.3.1-.5.2-.6.4-.2.2-.3.3-.4.6-.1.2-.1.4-.1.7 0 .4.1.7.2.9.2.3.4.5.6.7.3.2.6.4.9.5.3.2.7.3 1.1.5.4.2.7.3 1.1.5.3.2.7.4.9.7.3.3.5.6.7 1s.1.7.1 1.2zM141.9 2345.7v.3c0 .1 0 .2-.1.2s-.1.1-.1.1H138v11.1l-.1.1c-.1 0-.2 0-.3.1s-.2 0-.4 0h-.4c-.1 0-.2 0-.3-.1-.1 0-.1-.1-.1-.1v-11.1h-3.7l-.1-.1c0-.1 0-.1-.1-.2v-.3-.3c0-.1 0-.2.1-.2 0-.1.1-.1.1-.1h9l.1.1s0 .1.1.2v.3z"/></g><g><path fill="#050008" fill-rule="evenodd" d="M120.9 2435c0 5.4 4.4 9.8 9.8 9.8s9.8-4.3 9.8-9.8c0-5.4-4.4-9.7-9.8-9.7s-9.8 4.4-9.8 9.7zm-7-41.7l24.2 1.5c1.1.1 2.1.8 2.4 1.8l6.2 16.3c.4 1.3.7 2.6.7 3.9v15.4c0 1.6-1.3 2.8-2.8 2.8h-1.4c0-6.9-5.6-12.5-12.5-12.5s-12.5 5.6-12.5 12.5H68c0-3.8-1.7-7.3-4.7-9.7h50.6v-32zM45.7 2435c0 5.4 4.4 9.8 9.8 9.8s9.8-4.3 9.8-9.8c0-5.4-4.4-9.7-9.8-9.7s-9.8 4.4-9.8 9.7zm-9.8 0l-8.4-2.8v-6.9h20c-3 2.4-4.7 6-4.7 9.7h-6.9z" clip-rule="evenodd"/><path d="M27.6 2383.5h80.8v39H27.6z" class="st63"/><path d="M123.7 2412.1l18.5 2.1c.8.1 1.4-.4 1.5-1.2v-.6L139 2400c-.2-.5-.7-.9-1.2-.9l-14.1-.9v13.9z" class="st64"/></g><g><path d="M8.9 2467.1c0 .6-.1 1.1-.3 1.6-.2.5-.5.9-.9 1.2-.4.3-.8.6-1.4.7-.5.2-1.1.2-1.7.2-.4 0-.8 0-1.2-.1s-.7-.2-1-.3-.5-.2-.7-.3c-.2-.1-.3-.2-.4-.3-.1-.1-.1-.2-.2-.3 0-.1-.1-.3-.1-.5v-.4c0-.1 0-.2.1-.2 0-.1.1-.1.1-.1h.1c.1 0 .2.1.4.2s.4.2.6.4c.3.1.6.3.9.4.4.1.8.2 1.3.2.4 0 .7 0 1-.1s.6-.2.8-.4c.2-.2.4-.4.5-.7s.2-.6.2-.9c0-.4-.1-.7-.2-.9-.2-.3-.4-.5-.6-.7-.3-.2-.6-.4-.9-.5s-.7-.3-1-.5c-.4-.2-.7-.3-1-.6-.3-.2-.6-.4-.9-.7-.3-.3-.5-.6-.6-1s-.2-.8-.2-1.3.1-1 .3-1.4c.2-.4.5-.8.8-1s.7-.5 1.2-.6c.5-.1 1-.2 1.5-.2.3 0 .6 0 .8.1s.5.1.8.2c.3.1.5.2.7.3s.3.2.4.2l.1.1v1.1s0 .1-.1.1H8c-.1 0-.2 0-.3-.1-.2-.1-.3-.2-.6-.3-.2-.1-.5-.2-.8-.3s-.6-.1-1-.1-.7 0-.9.1c-.3.1-.5.2-.6.4-.2.2-.3.3-.4.6-.1.2-.1.4-.1.7 0 .4.1.7.2.9.2.3.4.5.6.7.3.2.6.4.9.5.3.2.7.3 1.1.5.4.2.7.3 1.1.5.3.2.7.4.9.7.3.3.5.6.7 1s.1.7.1 1.2zM19.1 2461.7c0 .6-.1 1.2-.3 1.7-.2.5-.5.9-.9 1.3s-.9.6-1.4.8c-.6.2-1.2.3-2 .3H13V2470.5l-.1.1c-.1 0-.1 0-.3.1s-.2 0-.4 0h-.4c-.1 0-.2 0-.3-.1-.1 0-.1-.1-.1-.1V2458.7c0-.3.1-.4.2-.6s.3-.2.5-.2h3.5c.3 0 .5.1.9.1s.7.2 1 .4c.4.2.7.5.9.8.2.3.4.6.6 1 0 .6.1 1 .1 1.5zm-1.8.2c0-.5-.1-.9-.3-1.3-.2-.3-.4-.6-.7-.8s-.6-.3-.9-.3-.6-.1-.9-.1H13v5.1h1.5c.5 0 .9-.1 1.3-.2.3-.1.6-.3.8-.5.2-.2.4-.5.5-.8s.2-.8.2-1.1zM28.7 2470v.3c0 .1 0 .2-.1.2 0 .1-.1.1-.1.1H22.3c-.2 0-.3-.1-.4-.2-.1-.1-.2-.3-.2-.5v-11.3c0-.3.1-.4.2-.5.1-.1.3-.2.4-.2h6.1l.1.1c0 .1 0 .1.1.2v.6c0 .1 0 .2-.1.2 0 .1-.1.1-.1.1h-5v4h4.3l.1.1s0 .1.1.2v.6c0 .1 0 .2-.1.2s-.1.1-.1.1h-4.3v4.5h5.1l.1.1c0 .1.1.1.1.2-.1.6 0 .7 0 .9zM41.1 2464.2c0 1.1-.1 2-.4 2.9-.3.8-.7 1.5-1.2 2s-1.2.9-2 1.2-1.7.4-2.8.4H32c-.2 0-.3-.1-.4-.2-.1-.1-.2-.3-.2-.5v-11.3c0-.3.1-.4.2-.5.1-.1.3-.2.4-.2h2.9c1.1 0 2 .1 2.8.4.8.3 1.4.7 1.9 1.2s.9 1.2 1.2 1.9.3 1.7.3 2.7zm-1.8 0c0-.7-.1-1.3-.3-1.9-.2-.6-.4-1.1-.8-1.5s-.8-.8-1.4-1c-.6-.2-1.3-.4-2.1-.4H33v9.8h1.7c.8 0 1.5-.1 2-.3.6-.2 1-.5 1.4-.9s.6-.9.8-1.6.4-1.3.4-2.2zM45.4 2470.4v.1l-.1.1c-.1 0-.2 0-.3.1s-.2 0-.4 0h-.4c-.1 0-.2 0-.3-.1-.1 0-.1-.1-.1-.1v-12.2-.1l.1-.1s.2 0 .3-.1.2 0 .4 0h.4c.1 0 .2 0 .3.1.1 0 .1.1.1.1v12.2zM56.7 2458.7v.3c0 .1 0 .2-.1.2s-.1.1-.1.1h-3.7v11.1l-.1.1c-.1 0-.2 0-.3.1s-.2 0-.4 0h-.4c-.1 0-.2 0-.3-.1-.1 0-.1-.1-.1-.1v-11.1h-3.7l-.1-.1c0-.1 0-.1-.1-.2v-.3-.3c0-.1 0-.2.1-.2 0-.1.1-.1.1-.1h9l.1.1s0 .1.1.2c-.1.1 0 .2 0 .3zM60.2 2470.4v.1l-.1.1c-.1 0-.2 0-.3.1s-.2 0-.4 0H59c-.1 0-.2 0-.3-.1-.1 0-.1-.1-.1-.1v-12.2-.1l.1-.1s.2 0 .3-.1.2 0 .4 0h.4c.1 0 .2 0 .3.1.1 0 .1.1.1.1v12.2zM74.1 2464.2c0 1-.1 1.9-.4 2.8-.2.8-.6 1.5-1.1 2.1s-1.1 1-1.8 1.3-1.6.5-2.5.5c-1 0-1.8-.1-2.5-.4s-1.3-.7-1.7-1.2c-.5-.5-.8-1.2-1-2-.2-.8-.3-1.7-.3-2.8 0-1 .1-1.9.4-2.7.2-.8.6-1.5 1.1-2.1.5-.6 1.1-1 1.8-1.3s1.6-.5 2.5-.5c.9 0 1.7.1 2.4.4.7.3 1.3.7 1.7 1.2s.8 1.2 1 2 .4 1.7.4 2.7zm-1.8.1c0-.7-.1-1.4-.2-2s-.3-1.1-.6-1.6-.7-.8-1.2-1.1-1.1-.4-1.8-.4-1.3.1-1.8.4-.9.6-1.2 1.1c-.3.5-.5 1-.7 1.6-.1.6-.2 1.2-.2 1.9s.1 1.4.2 2.1c.1.6.3 1.2.6 1.6.3.5.7.8 1.2 1.1s1.1.4 1.8.4 1.4-.1 1.9-.4c.5-.3.9-.6 1.2-1.1s.5-1 .7-1.6.1-1.3.1-2zM86.3 2470c0 .1 0 .2-.1.3 0 .1-.1.2-.2.2-.1.1-.2.1-.2.1H85c-.2 0-.3 0-.5-.1-.1 0-.3-.1-.4-.2l-.4-.4c-.1-.2-.2-.4-.4-.6l-3.9-7.2-.6-1.2-.6-1.2v10.6l-.1.1s-.2 0-.3.1-.2 0-.4 0H77c-.1 0-.2 0-.3-.1l-.1-.1V2458.5c0-.3.1-.4.2-.6.1-.1.3-.2.5-.2h1.3c.1 0 .2.1.4.2l.3.3c.1.1.2.3.3.5l3 5.5c.2.3.4.7.5 1s.3.6.5 1c.2.3.3.6.5.9s.3.6.5.9v-1.6-8.5-.1l.1-.1s.2-.1.3-.1h.8c.1 0 .2 0 .3.1.1 0 .1.1.1.1v12.2zM96.5 2467.1c0 .6-.1 1.1-.3 1.6-.2.5-.5.9-.9 1.2-.4.3-.8.6-1.4.7-.5.2-1.1.2-1.7.2-.4 0-.8 0-1.2-.1s-.7-.2-1-.3-.5-.2-.7-.3c-.2-.1-.3-.2-.4-.3-.1-.1-.1-.2-.2-.3 0-.1-.1-.3-.1-.5v-.4c0-.1 0-.2.1-.2 0-.1.1-.1.1-.1h.1c.1 0 .2.1.4.2s.4.2.6.4c.3.1.6.3.9.4.4.1.8.2 1.3.2.4 0 .7 0 1-.1s.6-.2.8-.4c.2-.2.4-.4.5-.7s.2-.6.2-.9c0-.4-.1-.7-.2-.9-.2-.3-.4-.5-.6-.7-.3-.2-.6-.4-.9-.5s-.7-.3-1-.5c-.4-.2-.7-.3-1-.6-.3-.2-.6-.4-.9-.7-.3-.3-.5-.6-.6-1s-.2-.8-.2-1.3.1-1 .3-1.4c.2-.4.5-.8.8-1s.7-.5 1.2-.6c.5-.1 1-.2 1.5-.2.3 0 .6 0 .8.1s.5.1.8.2c.3.1.5.2.7.3s.3.2.4.2l.1.1v1.1s0 .1-.1.1h-.1c-.1 0-.2 0-.3-.1-.2-.1-.3-.2-.6-.3-.2-.1-.5-.2-.8-.3s-.6-.1-1-.1-.7 0-.9.1c-.3.1-.5.2-.6.4-.2.2-.3.3-.4.6-.1.2-.1.4-.1.7 0 .4.1.7.2.9.2.3.4.5.6.7.3.2.6.4.9.5.3.2.7.3 1.1.5.4.2.7.3 1.1.5.3.2.7.4.9.7.3.3.5.6.7 1s.1.7.1 1.2zM103.8 2470.4c0 .1-.1.1-.1.2 0 0-.1.1-.2.1s-.2 0-.3.1-.3 0-.5 0H101.8c-.1 0-.1 0-.1-.1s-.1-.1-.1-.1 0-.1-.1-.1l-4.1-11.7c-.1-.1-.1-.3-.1-.3 0-.1 0-.2.1-.2s.2-.1.3-.1h.9c.1 0 .2 0 .2.1s.1.1.1.1.1.1.1.2l3.6 10.6 3.5-10.6c0-.1 0-.1.1-.2l.1-.1c.1 0 .2 0 .3-.1s.3 0 .5 0h.5c.1 0 .2 0 .2.1 0 0 .1.1 0 .2s0 .2-.1.3l-3.9 11.6zM117.1 2470v.3c0 .1 0 .2-.1.2 0 .1-.1.1-.1.1H110.7c-.2 0-.3-.1-.4-.2-.1-.1-.2-.3-.2-.5v-11.3c0-.3.1-.4.2-.5.1-.1.3-.2.4-.2h6.1l.1.1c0 .1 0 .1.1.2v.6c0 .1 0 .2-.1.2 0 .1-.1.1-.1.1h-5v4h4.3l.1.1s0 .1.1.2v.6c0 .1 0 .2-.1.2s-.1.1-.1.1h-4.3v4.5h5.1l.1.1c0 .1.1.1.1.2v.9zM128.3 2470.4v.1l-.1.1c-.1 0-.2 0-.3.1s-.3 0-.5 0h-.4c-.1 0-.2 0-.3-.1-.1 0-.1-.1-.2-.1 0-.1-.1-.1-.1-.2l-1.2-3c-.1-.3-.3-.6-.4-.9s-.3-.5-.5-.7c-.2-.2-.4-.4-.7-.5s-.6-.2-1-.2h-1.1v5.5l-.1.1c-.1 0-.1 0-.3.1s-.2 0-.4 0h-.4c-.1 0-.2 0-.3-.1-.1 0-.1-.1-.1-.1V2458.7c0-.3.1-.4.2-.5.1-.1.3-.2.4-.2h3.5c.2 0 .4 0 .6.1.5.1.9.2 1.3.4s.7.4.9.7.4.6.6 1 .2.8.2 1.2c0 .4-.1.8-.2 1.1-.1.3-.3.6-.5.9s-.5.5-.8.7c-.3.2-.6.3-1 .5l.6.3c.2.1.3.3.5.5s.3.4.4.7c.1.3.3.5.4.9l1.1 2.8c.1.2.1.4.2.5-.1 0 0 .1 0 .1zm-2.6-8.9c0-.5-.1-.9-.3-1.3-.2-.3-.6-.6-1.1-.7-.2 0-.3-.1-.6-.1h-2.2v4.3h1.6c.4 0 .8-.1 1.1-.2s.6-.3.8-.4.4-.4.5-.7c.2-.3.2-.6.2-.9zM137.2 2467.1c0 .6-.1 1.1-.3 1.6-.2.5-.5.9-.9 1.2-.4.3-.8.6-1.4.7-.5.2-1.1.2-1.7.2-.4 0-.8 0-1.2-.1s-.7-.2-1-.3-.5-.2-.7-.3c-.2-.1-.3-.2-.4-.3-.1-.1-.1-.2-.2-.3 0-.1-.1-.3-.1-.5v-.4c0-.1 0-.2.1-.2 0-.1.1-.1.1-.1h.1c.1 0 .2.1.4.2s.4.2.6.4c.3.1.6.3.9.4.4.1.8.2 1.3.2.4 0 .7 0 1-.1s.6-.2.8-.4c.2-.2.4-.4.5-.7s.2-.6.2-.9c0-.4-.1-.7-.2-.9-.2-.3-.4-.5-.6-.7-.3-.2-.6-.4-.9-.5s-.7-.3-1-.5c-.4-.2-.7-.3-1-.6-.3-.2-.6-.4-.9-.7-.3-.3-.5-.6-.6-1s-.2-.8-.2-1.3.1-1 .3-1.4c.2-.4.5-.8.8-1s.7-.5 1.2-.6c.5-.1 1-.2 1.5-.2.3 0 .6 0 .8.1s.5.1.8.2c.3.1.5.2.7.3s.3.2.4.2l.1.1v1.1s0 .1-.1.1h-.1c-.1 0-.2 0-.3-.1-.2-.1-.3-.2-.6-.3-.2-.1-.5-.2-.8-.3s-.6-.1-1-.1-.7 0-.9.1c-.3.1-.5.2-.6.4-.2.2-.3.3-.4.6-.1.2-.1.4-.1.7 0 .4.1.7.2.9.2.3.4.5.6.7.3.2.6.4.9.5.3.2.7.3 1.1.5.4.2.7.3 1.1.5.3.2.7.4.9.7.3.3.5.6.7 1s.1.7.1 1.2zM148.9 2470.1c.1.1.1.3.1.3 0 .1 0 .2-.1.2s-.1.1-.3.1h-1.3c-.1 0-.1-.1-.1-.1l-.1-.1-1.1-3.1h-5.3l-1 3c0 .1 0 .1-.1.2l-.1.1c-.1 0-.2.1-.3.1h-.9c-.1 0-.2 0-.3-.1s-.1-.1-.1-.2 0-.2.1-.3l4.2-11.7c0-.1.1-.1.1-.2 0 0 .1-.1.2-.1s.2 0 .3-.1.3 0 .5 0h.5c.1 0 .2 0 .3.1.1 0 .1.1.2.1 0 0 .1.1.1.2l4.5 11.6zm-5.4-10.4l-2.2 6.3h4.4l-2.2-6.3zM160.6 2470c0 .1 0 .2-.1.3 0 .1-.1.2-.2.2-.1.1-.2.1-.2.1H159.2c-.2 0-.3 0-.5-.1-.1 0-.3-.1-.4-.2l-.4-.4c-.1-.2-.2-.4-.4-.6l-3.9-7.2-.6-1.2-.6-1.2v10.6l-.1.1s-.2 0-.3.1-.2 0-.4 0h-.4c-.1 0-.2 0-.3-.1l-.1-.1V2458.5c0-.3.1-.4.2-.6.1-.1.3-.2.5-.2h1.3c.1 0 .2.1.4.2l.3.3c.1.1.2.3.3.5l3 5.5c.2.3.4.7.5 1s.3.6.5 1c.2.3.3.6.5.9s.3.6.5.9v-1.6-8.5-.1l.1-.1s.2-.1.3-.1h.8c.1 0 .2 0 .3.1.1 0 .1.1.1.1v12.2zM173.7 2464.2c0 1.1-.1 2-.4 2.9-.3.8-.7 1.5-1.2 2s-1.2.9-2 1.2-1.7.4-2.8.4h-2.7c-.2 0-.3-.1-.4-.2-.1-.1-.2-.3-.2-.5v-11.3c0-.3.1-.4.2-.5.1-.1.3-.2.4-.2h2.9c1.1 0 2 .1 2.8.4.8.3 1.4.7 1.9 1.2s.9 1.2 1.2 1.9.3 1.7.3 2.7zm-1.8 0c0-.7-.1-1.3-.3-1.9-.2-.6-.4-1.1-.8-1.5s-.8-.8-1.4-1c-.6-.2-1.3-.4-2.1-.4h-1.7v9.8h1.7c.8 0 1.5-.1 2-.3.6-.2 1-.5 1.4-.9s.6-.9.8-1.6.4-1.3.4-2.2z"/></g><g><path d="M51.6 98.4c0 .1-.1.1-.1.2 0 0-.1.1-.2.1s-.2 0-.3.1-.3 0-.5 0H49.6c-.1 0-.1 0-.1-.1s-.1-.1-.1-.1 0-.1-.1-.1l-4.1-11.7c-.1-.1-.1-.3-.1-.3 0-.1 0-.2.1-.2s.2-.1.3-.1h.9c.1 0 .2 0 .2.1s.1.1.1.1.1.1.1.2l3.6 10.6 3.5-10.6c0-.1 0-.1.1-.2l.1-.1c.1 0 .2 0 .3-.1s.3 0 .5 0h.5c.1 0 .2 0 .2.1 0 0 .1.1 0 .2s0 .2-.1.3l-3.9 11.6zM68.2 92.2c0 1-.1 1.9-.4 2.8-.2.8-.6 1.5-1.1 2.1s-1.1 1-1.8 1.3-1.6.5-2.5.5c-1 0-1.8-.1-2.5-.4s-1.3-.7-1.7-1.2c-.5-.5-.8-1.2-1-2-.2-.8-.3-1.7-.3-2.8 0-1 .1-1.9.4-2.7.2-.8.6-1.5 1.1-2.1.5-.6 1.1-1 1.8-1.3s1.6-.5 2.5-.5c.9 0 1.7.1 2.4.4.7.3 1.3.7 1.7 1.2s.8 1.2 1 2 .4 1.7.4 2.7zm-1.8.1c0-.7-.1-1.4-.2-2-.1-.6-.3-1.1-.6-1.6s-.7-.8-1.2-1.1-1.1-.4-1.8-.4-1.3.1-1.8.4c-.5.3-.9.6-1.2 1.1s-.5 1-.7 1.6c-.1.6-.2 1.2-.2 1.9s.1 1.4.2 2.1c.1.6.3 1.2.6 1.6s.7.8 1.2 1.1c.5.3 1.1.4 1.8.4s1.4-.1 1.9-.4.9-.6 1.2-1.1.5-1 .7-1.6c.1-.7.1-1.3.1-2zM79.3 98.4v.1l-.1.1c-.1 0-.2 0-.3.1s-.3 0-.5 0H78c-.1 0-.2 0-.3-.1-.1 0-.1-.1-.2-.1 0-.1-.1-.1-.1-.2l-1.2-3c-.1-.3-.3-.6-.4-.9s-.3-.5-.5-.7c-.2-.2-.4-.4-.7-.5s-.6-.2-.9-.2h-1.1v5.5l-.1.1c-.1 0-.1 0-.3.1s-.2 0-.4 0h-.4c-.1 0-.2 0-.3-.1-.1 0-.1-.1-.1-.1V86.7c0-.3.1-.4.2-.5.1-.1.3-.2.4-.2h3.5c.2 0 .4 0 .6.1.5.1.9.2 1.3.4s.7.4.9.7.4.6.6 1 .2.8.2 1.2c0 .4-.1.8-.2 1.1-.1.3-.3.6-.5.9s-.5.5-.8.7c-.3.2-.6.3-1 .5l.6.3c.2.1.3.3.5.5s.3.4.4.7c.1.3.3.5.4.9l1.1 2.8c.1.2.2.4.2.5-.1 0-.1.1-.1.1zm-2.5-8.9c0-.5-.1-.9-.3-1.3-.2-.3-.6-.6-1.1-.7-.2 0-.3-.1-.6-.1h-2.2v4.3h1.6c.4 0 .8-.1 1.1-.2s.6-.3.8-.4.4-.4.5-.7c.1-.3.2-.6.2-.9zM90 98.4v.1l-.1.1c-.1 0-.2 0-.3.1h-1c-.1 0-.3-.1-.3-.1l-.2-.2-4.6-6.3V98.5l-.1.1c-.1 0-.2 0-.3.1s-.2 0-.4 0h-.4c-.1 0-.2 0-.3-.1-.1 0-.1-.1-.1-.1V86.3v-.1l.1-.1c.1 0 .2 0 .3-.1h.8c.1 0 .2 0 .3.1.1 0 .1.1.1.1V91.9l4.5-5.6c0-.1.1-.1.1-.1.1 0 .1-.1.2-.1s.2 0 .3-.1.2 0 .4 0h.4c.1 0 .2 0 .2.1.1 0 .1.1.1.1v.1c0 .1 0 .2-.1.3 0 .1-.1.2-.2.4l-4.2 5 4.5 6c.1.2.2.3.2.3.1 0 .1 0 .1.1zM101.6 98.1c.1.1.1.3.1.3 0 .1 0 .2-.1.2s-.1.1-.3.1H100c-.1 0-.1-.1-.1-.1l-.1-.1-1.1-3.1h-5.3l-1 3c0 .1 0 .1-.1.2l-.1.1c-.1 0-.1.1-.3.1H91c-.1 0-.2 0-.3-.1s-.1-.1-.1-.2 0-.2.1-.3l4.2-11.7c0-.1.1-.1.1-.2 0 0 .1-.1.2-.1s.2 0 .3-.1.3 0 .5 0h.5c.1 0 .2 0 .3.1.1 0 .2.1.2.1s.1.1.1.2l4.5 11.6zm-5.5-10.4L93.9 94h4.4l-2.2-6.3zM110.5 95.1c0 .6-.1 1.1-.3 1.6-.2.5-.5.9-.9 1.2-.4.3-.8.6-1.4.7-.5.2-1.1.2-1.7.2-.4 0-.8 0-1.2-.1s-.7-.2-1-.3-.5-.2-.7-.3c-.2-.1-.3-.2-.4-.3-.1-.1-.1-.2-.2-.3 0-.1-.1-.3-.1-.5v-.4c0-.1 0-.2.1-.2 0-.1.1-.1.1-.1h.1c.1 0 .2.1.4.2s.4.2.6.4c.3.1.6.3.9.4.4.1.8.2 1.3.2.4 0 .7 0 1-.1s.6-.2.8-.4c.2-.2.4-.4.5-.7s.2-.6.2-.9c0-.4-.1-.7-.2-.9-.2-.3-.4-.5-.6-.7-.3-.2-.6-.4-.9-.5s-.7-.3-1-.5c-.4-.2-.7-.3-1-.6-.3-.2-.6-.4-.9-.7-.3-.3-.5-.6-.6-1s-.2-.8-.2-1.3.1-1 .3-1.4c.2-.4.5-.8.8-1s.7-.5 1.2-.6c.5-.1 1-.2 1.5-.2.3 0 .6 0 .8.1s.6.1.8.2c.3.1.5.2.7.3s.3.2.4.2l.1.1V88s0 .1-.1.1h-.1c-.1 0-.2 0-.3-.1-.2-.1-.3-.2-.6-.3-.2-.1-.5-.2-.8-.3s-.6-.1-1-.1-.7 0-.9.1c-.3.1-.5.2-.6.4-.2.2-.3.3-.4.6-.1.2-.1.4-.1.7 0 .4.1.7.2.9.2.3.4.5.6.7.3.2.6.4.9.5.3.2.7.3 1.1.5.4.2.7.3 1.1.5.3.2.7.4.9.7.3.3.5.6.7 1s.1.7.1 1.2zM119.7 95.1c0 .6-.1 1.1-.3 1.6-.2.5-.5.9-.9 1.2-.4.3-.8.6-1.4.7-.5.2-1.1.2-1.7.2-.4 0-.8 0-1.2-.1s-.7-.2-1-.3-.5-.2-.7-.3c-.2-.1-.3-.2-.4-.3-.1-.1-.1-.2-.2-.3 0-.1-.1-.3-.1-.5v-.4c0-.1 0-.2.1-.2 0-.1.1-.1.1-.1h.1c.1 0 .2.1.4.2s.4.2.6.4c.3.1.6.3.9.4.4.1.8.2 1.3.2.4 0 .7 0 1-.1s.6-.2.8-.4c.2-.2.4-.4.5-.7s.2-.6.2-.9c0-.4-.1-.7-.2-.9-.2-.3-.4-.5-.6-.7-.3-.2-.6-.4-.9-.5s-.7-.3-1-.5c-.4-.2-.7-.3-1-.6-.3-.2-.6-.4-.9-.7-.3-.3-.5-.6-.6-1s-.2-.8-.2-1.3.1-1 .3-1.4c.2-.4.5-.8.8-1s.7-.5 1.2-.6c.5-.1 1-.2 1.5-.2.3 0 .6 0 .8.1s.6.1.8.2c.3.1.5.2.7.3s.3.2.4.2l.1.1V88s0 .1-.1.1h-.1c-.1 0-.2 0-.3-.1-.2-.1-.3-.2-.6-.3-.2-.1-.5-.2-.8-.3s-.6-.1-1-.1-.7 0-.9.1c-.3.1-.5.2-.6.4-.2.2-.3.3-.4.6-.1.2-.1.4-.1.7 0 .4.1.7.2.9.2.3.4.5.6.7.3.2.6.4.9.5.3.2.7.3 1.1.5.4.2.7.3 1.1.5.3.2.7.4.9.7.3.3.5.6.7 1s.1.7.1 1.2zM129.1 98v.3c0 .1 0 .2-.1.2 0 .1-.1.1-.1.1H122.7c-.1 0-.3-.1-.4-.2-.1-.1-.2-.3-.2-.5V86.7c0-.3.1-.4.2-.5.1-.1.3-.2.4-.2h6.1l.1.1c0 .1 0 .1.1.2v.6c0 .1 0 .2-.1.2 0 .1-.1.1-.1.1h-5v4h4.3l.1.1s.1.1.1.2v.6c0 .1 0 .2-.1.2s-.1.1-.1.1h-4.3v4.5h5.1l.1.1c0 .1.1.1.1.2v.8z"/></g><g><path d="M55.5 29.8h54.3v32H55.5z" class="st2"/><path d="M77.9 52.2h9.6v3.2h-9.6zM88.5 39.4l2.8-3.2H77.9v9.6h8.2l.6-3.1.1-.1h-5.7v-3.2z" class="st66"/><path d="M102.7 52.5L93 43.9v.1l-1.5 11.3zM104.7 50.1l21.1-24.8-9.5-8.3-21.2 24.5z" class="st38"/><path d="M61.9 42.6h9.6v3.2h-9.6z" class="st66"/><path d="M109.9 61.7H55.5V29.8h41.3l5.5-6.4H49.2v44.7h67.1V46.3l-6.4 7.5z" class="st38"/><path d="M61.9 36.2h9.6v3.2h-9.6zM61.9 52.2h9.6v3.2h-9.6z" class="st66"/></g><g><path id="SCHENKER" d="M168.9 512.7c-.4-.7-.9-1.2-1.4-1.5 2.1-.7 3-1.9 3-4 0-3.2-1.9-4.7-5.9-4.7h-6v16h4.1v-6.3h.5c.9 0 1.2.2 2 1.5l2.8 4.8h4.4l-3.5-5.8zm-6.3-7.2h1.8c1.6 0 2.1.5 2.1 1.9s-.6 1.9-2.1 1.9h-1.8v-3.8m-14.1 9.7v-3.3h5.4v-3.1h-5.4v-3.1h6.8v-3.2h-10.9v16h11.2l.3-3.2c0-.1-7.1-.1-7.4-.1m-12.4-5.2c.2-.2 5.9-7.5 5.9-7.5h-4.2s-4.7 6.1-5.2 6.8v-6.8h-4.1v16h4.1v-6.8c.5.7 5.1 6.8 5.1 6.8h4.8c.1-.1-6.3-8.3-6.4-8.5m-14.4-7.6v8.7c-.5-.7-6.5-8.7-6.5-8.7h-3.4v16h3.4v-9.7c.5.7 7.2 9.7 7.2 9.7h2.7v-16h-3.4m-20 12.8v-3.3h5.4v-3.1h-5.4v-3.1h6.8v-3.2H97.6v16h11.2l.3-3.2c0-.1-7.1-.1-7.4-.1m-11.6-12.8v6.2h-5.6v-6.2h-4.1v16h4.1v-6.6h5.6v6.6h4.1v-16h-4.1m-12.6 12.4c-1.5.6-2.5.8-3.7.8-2.6 0-3.7-1.4-3.7-5.1 0-3.8 1-5.2 3.7-5.2 1.2 0 2.3.2 3.6.7l.2.1v-3.3h-.1c-1.2-.4-2.4-.7-3.9-.7-2.2 0-4.1.6-5.4 1.8-1.7 1.5-2.5 3.6-2.5 6.6 0 2.6.5 4.4 1.7 5.8 1.3 1.6 3.4 2.4 6 2.4 1.5 0 2.9-.3 4.1-.9h.1v-3.1l-.1.1m-17.4-5.9l-.3-.1c-1.6-.7-1.7-.7-2.1-1-.5-.4-.7-.7-.7-1.2 0-.9.7-1.3 2.1-1.3 1.3 0 2.2.2 3.6.9l.2.1V503h-.1c-1.4-.5-2.6-.7-3.9-.7-3.6 0-5.7 1.8-5.7 4.9 0 2.3 1 3.7 3.7 4.8 2.8 1.2 3.1 1.5 3.1 2.4 0 1-.8 1.5-2.5 1.5-1.4 0-2.5-.3-4.1-1.1l-.2-.1v3.3h.1c1.5.7 2.8 1 4.5 1 4 0 6.2-1.8 6.2-5 0-2.7-1-3.9-3.9-5.1" class="st10"/><path id="DB" fill="#e52521" d="M15.1 518.4H8.2v-18.8H15c4.8 0 7.4 3.1 7.4 9.3 0 5.5-1.7 9.5-7.3 9.5zm2.9-9.1c0-3.8-.4-6.8-4.4-6.8h-.9v12.8h1.6c2.3.1 3.7-1.8 3.7-6m13.6 9.1h-7.2v-18.8H32c3.6 0 5.5 1.5 5.5 5 0 1.8-1.5 3.1-3.1 4 2.3.7 3.8 2.1 3.8 4.4-.1 3.8-3.2 5.4-6.6 5.4zM28.8 507h1.5c1.5 0 2.5-.7 2.5-2.3 0-1.8-1.4-2.3-2.8-2.3h-1.2v4.6zm4.6 5.9c0-1.9-1.2-2.4-3-2.4h-1.6v4.8h1.6c1.6.1 3-.5 3-2.4m5.8-18.3H6.7c-2.2 0-4.1 1.8-4.1 4.1v20.5c0 2.3 1.8 4.1 4.1 4.1h32.4c2.2 0 4-1.8 4-4.1v-20.5c.1-2.3-1.8-4.1-3.9-4.1zm1 24.7c0 .7-.4 1.2-1.1 1.2H6.7c-.6 0-1.1-.5-1.1-1.2v-20.5c0-.7.5-1.2 1.1-1.2h32.4c.6 0 1.1.5 1.1 1.2v20.5"/></g></svg>